<svg id="Capa_1" enable-background="new 0 0 512.005 512.005" height="512" viewBox="0 0 512.005 512.005" width="512" xmlns="http://www.w3.org/2000/svg"><g id="XMLID_1022_"><g id="XMLID_14_"><path id="XMLID_424_" d="m512.002 315.964c0-68.38-26.629-132.667-74.98-181.019-38.302-38.301-86.606-62.955-139.02-71.556v-1.425c0-23.159-18.841-42-42-42s-42 18.841-42 42v1.425c-52.413 8.601-100.718 33.255-139.02 71.556-48.352 48.352-74.98 112.639-74.98 181.019l-.002 127.626c0 19.918 11.432 37.027 29.833 44.649s38.583 3.607 52.667-10.477c46.267-46.268 107.885-71.748 173.502-71.747 65.617 0 127.235 25.48 173.502 71.748 9.365 9.364 21.426 14.277 33.866 14.277 6.27 0 12.636-1.248 18.802-3.802 18.401-7.623 29.833-24.73 29.833-44.648zm-20 0v44.098c-19.295-15.783-40.022-29.515-62-41.084v-85.013c0-43.54-16.076-83.394-42.602-113.943 63.043 42.412 104.602 114.413 104.602 195.942zm-236-276c11.776 0 21.419 9.301 21.973 20.943-7.268-.614-14.595-.943-21.973-.943s-14.705.329-21.973.943c.554-11.642 10.197-20.943 21.973-20.943zm-131.398 80.057c-26.526 30.549-42.602 70.403-42.602 113.943v85.014c-21.978 11.569-42.705 25.3-62 41.084v-44.098c0-81.529 41.559-153.53 104.602-195.943zm349.915 349.74c-8.456 3.501-21.004 3.726-30.872-6.142-50.045-50.044-116.685-77.605-187.645-77.604-70.96 0-137.6 27.561-187.645 77.605-9.867 9.866-22.42 9.642-30.87 6.141-8.454-3.501-17.487-12.215-17.487-26.171v-57.18c30.474-27.412 65.114-49.112 103.048-64.495 28.687-11.633 58.72-19.44 89.267-23.207 5.481-.676 9.377-5.667 8.701-11.148-.677-5.482-5.677-9.375-11.148-8.701-32.286 3.981-64.025 12.231-94.335 24.522-4.558 1.848-9.063 3.798-13.53 5.818v-75.235c0-84.916 69.084-154 154-154s154 69.084 154 154v75.234c-4.467-2.02-8.972-3.969-13.53-5.818-30.31-12.29-62.047-20.54-94.329-24.521-5.477-.669-10.473 3.219-11.148 8.701-.676 5.481 3.22 10.473 8.701 11.148 30.543 3.767 60.575 11.574 89.261 23.205 37.935 15.384 72.574 37.084 103.049 64.497v57.18c-.002 13.956-9.035 22.67-17.488 26.171z"/><path id="XMLID_430_" d="m334.191 239.76c11.797-11.798 11.797-30.994 0-42.792-5.716-5.715-13.314-8.862-21.396-8.862-8.083 0-15.682 3.147-21.396 8.862l-8.826 8.826-12.428-12.428 27.065-27.065c3.905-3.905 3.905-10.237 0-14.143-3.905-3.904-10.235-3.904-14.143 0l-27.064 27.065-27.064-27.065c-3.906-3.905-10.236-3.904-14.143 0-3.905 3.905-3.905 10.237 0 14.143l27.065 27.064-12.428 12.428-8.826-8.826c-5.715-5.715-13.313-8.863-21.396-8.863-8.082 0-15.681 3.147-21.396 8.863-11.797 11.798-11.797 30.994 0 42.792 6.136 6.135 14.293 9.514 22.969 9.514s16.833-3.379 22.968-9.514l32.253-32.253 32.253 32.252c6.135 6.135 14.292 9.514 22.968 9.514s16.83-3.376 22.965-9.512zm-124.585-14.141c-2.357 2.357-5.491 3.656-8.825 3.656s-6.469-1.298-8.826-3.656c-4-4-4-10.509 0-14.508 1.938-1.938 4.514-3.005 7.254-3.005s5.316 1.067 7.254 3.005l8.826 8.826zm87.109-5.683 8.826-8.826c1.938-1.938 4.514-3.004 7.254-3.004s5.316 1.067 7.254 3.004c4 4 4 10.509 0 14.508-2.357 2.358-5.492 3.656-8.826 3.656s-6.468-1.298-8.825-3.656z"/><path id="XMLID_432_" d="m256.002 276.039c-2.63 0-5.21 1.061-7.07 2.931-1.86 1.859-2.93 4.439-2.93 7.069s1.069 5.21 2.93 7.07 4.44 2.93 7.07 2.93 5.21-1.069 7.069-2.93c1.86-1.86 2.931-4.44 2.931-7.07 0-2.64-1.07-5.21-2.931-7.069-1.859-1.871-4.439-2.931-7.069-2.931z"/></g></g></svg>