<?xml version="1.0" standalone="no"?>
<!DOCTYPE svg PUBLIC "-//W3C//DTD SVG 1.1//EN" "http://www.w3.org/Graphics/SVG/1.1/DTD/svg11.dtd">
<svg xmlns="http://www.w3.org/2000/svg">
<defs >
<font id="NotoSansMono" horiz-adv-x="645" ><font-face
    font-family="Noto Sans Mono"
    units-per-em="1000"
    panose-1="2 11 5 9 4 5 4 2 2 4"
    ascent="1069"
    descent="-293"
    alphabetic="0" />
<glyph unicode=" " horiz-adv-x="600" />
<glyph unicode="!" horiz-adv-x="600" d="M237 237L216 714H385L364 237H237ZM300 -10Q257 -10 233 13T209 78Q209 122 232 144T300 166Q343 166 366 143T390 78Q390 38 366 14T300 -10Z" />
<glyph unicode="&quot;" horiz-adv-x="600" d="M350 456L331 714H470L451 456H350ZM149 456L130 714H269L250 456H149Z" />
<glyph unicode="#" horiz-adv-x="600" d="M99 0L130 200H15V298H146L166 418H44V517H181L214 714H315L282 517H369L401 714H501L469 517H585V418H453L433 298H556V200H418L385 0H283L316 200H230L199 0H99ZM247 298H333L353 418H267L247 298Z" />
<glyph unicode="$" horiz-adv-x="600" d="M270 35Q215 37 167 47T81 75V199Q118 178 170 161T270 142V313Q203 339 162 366T101 427T81 507Q81 562 105 600T172 661T270 690V759H335V691Q382 689 427 679T512 648L474 541Q441 557 405 566T335 578V416Q389 396
431 372T496 314T520 226Q520 152 474 101T335 37V-58H270V35ZM335 148Q365 154 380 171T395 218Q395 235 389 247T369 268T335 287V148ZM270 577Q250 575 236 567T215 545T207 511Q207 496 214 484T235 462T270 443V577Z" />
<glyph unicode="%" horiz-adv-x="600" d="M59 0L424 714H531L167 0H59ZM456 -9Q391 -9 353 35T314 158Q314 241 352 285T456 330Q525 330 562 286T600 158Q600 79 563 35T456 -9ZM458 76Q479 76 490 96T502 158Q502 203 491 224T458 245Q433 245 423 224T412 158Q412
117 422 97T458 76ZM142 383Q77 383 39 427T0 550Q0 633 38 677T142 722Q211 722 248 678T286 550Q286 471 249 427T142 383ZM144 468Q165 468 176 488T188 550Q188 595 177 616T144 637Q119 637 109 616T98 550Q98 509 108 489T144 468Z" />
<glyph unicode="&amp;" horiz-adv-x="600" d="M217 -10Q153 -10 112 15T50 82T30 179Q30 228 48 269T103 350T197 430Q223 449 246 469T284 513T299 566Q299 596 287 611T255 626Q233 626 220 610T207 562Q207 527 218 499T244 452T265 422L585 0H427L175 349Q161
370 140 398T103 466T87 554Q87 633 131 678T248 723Q328 723 371 681T415 564Q415 525 396 487T343 410T260 332Q228 306 205 285T170 241T158 188Q158 157 177 132T233 107Q269 107 298 125T349 173T388 239T414 311T429 377H557Q550 323 533 268T488 163T421
74T331 13T217 -10Z" />
<glyph unicode="&apos;" horiz-adv-x="600" d="M249 456L230 714H369L350 456H249Z" />
<glyph unicode="(" horiz-adv-x="600" d="M331 -165Q262 -78 226 33T190 271Q190 400 226 513T331 714H450Q383 619 350 507T316 272Q316 153 350 42T449 -165H331Z" />
<glyph unicode=")" horiz-adv-x="600" d="M269 714Q338 627 374 517T410 278Q410 149 374 36T269 -165H150Q217 -70 250 42T284 277Q284 396 250 507T151 714H269Z" />
<glyph unicode="*" horiz-adv-x="600" d="M376 321L299 465L224 322L128 379L226 507L75 527L99 632L255 591L242 755H359L345 590L503 634L525 525L374 507L473 380L376 321Z" />
<glyph unicode="+" horiz-adv-x="600" d="M248 117V300H70V406H248V592H355V406H530V300H355V117H248Z" />
<glyph unicode="," horiz-adv-x="600" d="M194 -156Q205 -112 215 -59T233 46T248 136H385L392 125Q386 100 377 66T356 -6T330 -83T301 -156H194Z" />
<glyph unicode="-" horiz-adv-x="600" d="M150 205V330H450V205H150Z" />
<glyph unicode="." horiz-adv-x="600" d="M300 -10Q257 -10 233 13T209 78Q209 122 232 144T300 166Q343 166 366 143T390 78Q390 38 366 14T300 -10Z" />
<glyph unicode="/" horiz-adv-x="600" d="M100 -4L375 718H500L226 -4H100Z" />
<glyph unicode="0" horiz-adv-x="600" d="M302 -10Q216 -10 160 33T77 158T50 361Q50 480 76 561T158 683T297 724Q384 724 440 681T523 556T550 352Q550 272 537 206T496 91T419 17T302 -10ZM201 106L125 172L385 603L460 529L201 106ZM299 107Q361 107 384 168T407
350Q407 428 398 485T365 572T299 603Q258 603 234 574T200 490T190 352Q190 229 214 168T299 107Z" />
<glyph unicode="1" horiz-adv-x="600" d="M251 413Q251 439 251 462T253 509T255 555Q240 545 226 537T201 522L133 485L68 602L278 714H396V0H251V413ZM113 0V101L252 116H396L530 101V0H113Z" />
<glyph unicode="2" horiz-adv-x="600" d="M57 0V105L231 279Q273 321 308 358T364 431T385 508Q385 551 360 574T294 598Q254 598 217 580T137 525L55 622Q94 656 129 678T206 712T305 724Q378 724 429 698T508 628T536 526Q536 462 508 410T435 310T335 215L243
134V124H555V0H57Z" />
<glyph unicode="3" horiz-adv-x="600" d="M273 -10Q224 -10 172 0T71 29V157Q115 136 167 124T262 112Q325 112 356 138T387 215Q387 250 371 270T321 300T229 309H175V425H230Q281 425 313 436T360 468T376 521Q376 554 357 577T289 600Q258 600 220 588T134
550L69 654Q119 688 178 706T297 724Q354 724 403 707T483 652T514 553Q514 512 498 476T451 414T375 376V373Q431 365 466 344T518 288T535 208Q535 132 500 84T405 13T273 -10Z" />
<glyph unicode="4" horiz-adv-x="600" d="M330 0V148H40V253L333 714H468V265H560V148H468V0H330ZM173 265H330V386Q330 397 331 420T333 469T335 515T337 539H333Q324 519 313 500T290 461L173 265Z" />
<glyph unicode="5" horiz-adv-x="600" d="M253 -10Q208 -10 161 0T76 29V159Q120 137 167 127T255 116Q314 116 343 142T373 222Q373 265 356 290T312 326T254 337Q226 337 197 333T148 320L88 350L116 714H486V590H246L235 446Q258 451 277 452T311 454Q372 454
420 429T497 354T525 232Q525 152 489 98T392 17T253 -10Z" />
<glyph unicode="6" horiz-adv-x="600" d="M309 -11Q251 -11 205 10T125 74T73 180T55 326Q55 424 77 498T143 621T254 696T411 722Q433 722 455 721T495 715V594Q473 599 451 601T405 604Q354 604 317 590T254 549T214 479T194 381H200Q216 409 237 427T287 454T352
464Q447 464 496 403T545 238Q545 162 517 106T437 20T309 -11ZM306 116Q351 116 375 146T399 236Q399 289 377 318T309 348Q281 348 258 334T220 294T205 230Q205 210 209 193T222 161T243 137T271 122T306 116Z" />
<glyph unicode="7" horiz-adv-x="600" d="M122 0L390 590H50V713H550V618L280 0H122Z" />
<glyph unicode="8" horiz-adv-x="600" d="M300 -10Q231 -10 177 10T91 73T59 181Q59 222 72 256T113 320T186 373Q149 399 126 427T92 486T81 552Q81 608 111 646T191 703T300 723Q360 723 410 704T489 647T519 551Q519 496 491 454T400 377Q450 349 481 319T526
255T541 185Q541 121 509 78T421 13T300 -10ZM298 107Q350 107 375 130T401 189Q401 211 390 230T355 270T293 311Q262 295 241 277T210 237T199 190Q199 152 225 130T298 107ZM300 440Q329 455 345 470T369 502T377 540Q377 570 356 587T299 605Q265 605 244 587T223
540Q223 517 232 499T259 467T300 440Z" />
<glyph unicode="9" horiz-adv-x="600" d="M187 -10Q165 -10 143 -9T103 -3V118Q125 113 147 111T193 108Q247 108 285 123T349 166T387 236T405 331H399Q384 304 362 286T312 259T248 250Q154 250 105 310T55 474Q55 551 83 607T164 694T291 725Q349 725 395 704T475
640T527 536T545 394Q545 314 531 250T489 136T418 55T318 7T187 -10ZM291 366Q319 366 342 379T380 418T395 479Q395 506 388 528T368 565T336 589T294 598Q249 598 225 568T201 476Q201 424 223 395T291 366Z" />
<glyph unicode=":" horiz-adv-x="600" d="M300 380Q257 380 233 403T209 468Q209 512 232 534T300 556Q343 556 366 533T390 468Q390 428 366 404T300 380ZM300 -10Q257 -10 233 13T209 78Q209 122 232 144T300 166Q343 166 366 143T390 78Q390 38 366 14T300 -10Z" />
<glyph unicode=";" horiz-adv-x="600" d="M194 -156Q205 -112 215 -59T233 46T248 136H385L392 125Q386 100 377 66T356 -6T330 -83T301 -156H194ZM322 380Q279 380 255 403T231 468Q231 512 254 534T322 556Q365 556 388 533T412 468Q412 428 388 404T322 380Z" />
<glyph unicode="&lt;" horiz-adv-x="600" d="M515 110L85 319V389L515 611V493L237 356L515 227V110Z" />
<glyph unicode="=" horiz-adv-x="600" d="M70 388V508H530V388H70ZM70 178V298H530V178H70Z" />
<glyph unicode="&gt;" horiz-adv-x="600" d="M85 110V227L363 356L85 493V611L515 389V319L85 110Z" />
<glyph unicode="?" horiz-adv-x="600" d="M207 273Q207 308 217 334T247 383T300 428Q325 446 342 462T369 497T379 539Q379 571 357 587T295 604Q260 604 222 592T133 556L80 663Q137 694 191 709T306 724Q367 724 415 704T491 645T520 547Q520 504 509 474T472
420T408 366Q384 348 368 335T344 306T336 266V237H207V273ZM273 -10Q230 -10 206 13T182 78Q182 122 205 144T273 166Q316 166 339 143T363 78Q363 38 339 14T273 -10Z" />
<glyph unicode="@" horiz-adv-x="600" d="M320 -89Q220 -89 148 -44T38 84T0 282Q0 374 22 452T86 590T188 681T326 714Q408 714 469 671T565 549T600 365Q600 313 591 267T563 185T517 129T454 108Q423 108 403 124T372 165H370Q356 143 333 126T276 108Q218
108 186 161T154 299Q154 364 173 413T229 491T316 520Q351 520 384 512T446 493L436 296Q435 289 435 282T435 265Q434 225 441 211T460 197Q473 197 482 219T497 279T503 363Q503 498 453 565T326 632Q254 632 203 588T125 466T98 289Q98 194 123 128T197 28T315
-6Q362 -6 409 5T496 35V-49Q460 -68 416 -78T320 -89ZM289 197Q315 197 326 234T341 326L346 426Q341 428 334 429T320 431Q293 431 278 412T256 362T249 297Q249 244 259 221T289 197Z" />
<glyph unicode="A" horiz-adv-x="600" d="M10 0L207 717H392L590 0H445L331 473Q326 496 321 518T310 562T300 607Q295 585 290 563T280 518T269 473L151 0H10ZM168 177L198 297H404L418 177H168Z" />
<glyph unicode="B" horiz-adv-x="600" d="M80 0V714H303Q421 714 483 673T545 539Q545 474 516 432T438 379V374Q475 365 502 345T544 292T560 209Q560 144 533 97T453 25T327 0H80ZM313 119Q367 119 388 145T409 217Q409 248 400 268T369 299T308 310H215V119H313ZM302
433Q355 433 376 452T398 514Q398 557 375 576T297 595H215V433H302Z" />
<glyph unicode="C" horiz-adv-x="600" d="M351 -10Q248 -10 182 33T83 156T50 342Q50 431 72 501T136 622T242 698T388 724Q440 724 479 714T560 683L512 564Q475 583 444 590T383 597Q331 597 295 580T238 529T207 450T197 348Q197 270 215 219T273 142T375 117Q410
117 446 126T532 157V27Q489 8 443 -1T351 -10Z" />
<glyph unicode="D" horiz-adv-x="600" d="M45 0V714H266Q359 714 427 675T532 557T570 363Q570 246 532 165T423 42T255 0H45ZM247 123Q338 123 380 182T423 362Q423 442 405 492T350 567T259 591H188V123H247Z" />
<glyph unicode="E" horiz-adv-x="600" d="M80 0V714H530V589H220V433H515V308H220V125H530V0H80Z" />
<glyph unicode="F" horiz-adv-x="600" d="M80 0V714H530V589H220V403H515V278H220V0H80Z" />
<glyph unicode="G" horiz-adv-x="600" d="M343 -10Q238 -10 169 33T65 157T30 349Q30 467 67 550T177 679T353 724Q409 724 459 712T549 680L504 564Q473 582 438 590T368 599Q303 599 260 570T196 486T175 352Q175 280 193 226T250 143T346 113Q368 113 387 116T424
123V282H325V402H555V31Q503 8 453 -1T343 -10Z" />
<glyph unicode="H" horiz-adv-x="600" d="M45 0V714H190V435H410V714H555V0H410V310H190V0H45Z" />
<glyph unicode="I" horiz-adv-x="600" d="M90 0V100L229 116V598L90 614V714H510V614L368 598V116L510 100V0H90Z" />
<glyph unicode="J" horiz-adv-x="600" d="M235 -10Q200 -10 161 -5T85 11V135Q132 125 170 121T230 116Q271 116 297 129T335 171T348 245V714H490V246Q490 162 464 105T381 19T235 -10Z" />
<glyph unicode="K" horiz-adv-x="600" d="M45 0V714H187V372Q203 403 218 428T251 480L407 714H566L341 395L560 0H401L247 291L187 235V0H45Z" />
<glyph unicode="L" horiz-adv-x="600" d="M90 0V714H235V128H530V0H90Z" />
<glyph unicode="M" horiz-adv-x="600" d="M40 0V714H236L297 309H301L373 714H559V0H429V163Q429 195 430 235T434 319T438 404T443 482T448 545T450 582H444L371 168H230L151 583H145Q146 570 148 544T153 481T159 402T164 317T168 232T170 155V0H40Z" />
<glyph unicode="N" horiz-adv-x="600" d="M45 0V714H242L430 139H433Q431 174 430 206T428 267T427 318T426 356V714H555V0H356L168 580H164Q166 544 168 511T171 448T173 395T174 356V0H45Z" />
<glyph unicode="O" horiz-adv-x="600" d="M300 -10Q230 -10 179 15T95 87T46 203T30 358Q30 474 59 556T147 682T300 726Q370 726 421 701T505 629T554 513T570 358Q570 271 554 203T505 88T421 15T300 -10ZM300 115Q343 115 370 142T410 224T423 359Q423 478
394 539T300 601Q257 601 230 574T190 492T177 358Q177 278 189 224T229 143T300 115Z" />
<glyph unicode="P" horiz-adv-x="600" d="M80 0V714H317Q440 714 500 657T560 492Q560 421 535 368T454 284T308 254H220V0H80ZM293 377Q335 377 362 389T402 426T416 486Q416 539 391 565T312 591H220V377H293Z" />
<glyph unicode="Q" horiz-adv-x="600" d="M397 -180L293 27L403 93L551 -180H397ZM300 -10Q230 -10 179 15T95 87T46 203T30 358Q30 474 59 556T147 682T300 726Q370 726 421 701T505 629T554 513T570 358Q570 271 554 203T505 88T421 15T300 -10ZM300 115Q343
115 370 142T410 224T423 359Q423 478 394 539T300 601Q257 601 230 574T190 492T177 358Q177 278 189 224T229 143T300 115Z" />
<glyph unicode="R" horiz-adv-x="600" d="M80 0V714H271Q356 714 413 689T501 615T531 499Q531 451 516 413T474 348T410 302L585 0H431L282 269H225V0H80ZM268 392Q306 392 332 403T371 438T385 496Q385 549 355 570T265 591H225V392H268Z" />
<glyph unicode="S" horiz-adv-x="600" d="M275 -10Q221 -10 169 0T70 33V165Q126 137 178 124T279 110Q314 110 340 117T382 142T397 191Q397 223 380 241T329 275T250 316Q204 341 166 370T106 438T84 534Q84 598 113 640T195 703T318 724Q360 724 418 715T532
678L486 565Q437 586 397 595T326 604Q294 604 273 595T242 569T232 527Q232 498 246 480T288 448T359 411Q418 382 459 355T523 291T545 199Q545 147 526 108T471 43T386 3T275 -10Z" />
<glyph unicode="T" horiz-adv-x="600" d="M227 0V589H30V714H570V589H372V0H227Z" />
<glyph unicode="U" horiz-adv-x="600" d="M298 -10Q215 -10 159 19T74 106T45 243V714H190V268Q190 212 202 179T238 130T300 115Q339 115 363 130T399 180T410 269V714H555V244Q555 166 527 109T441 21T298 -10Z" />
<glyph unicode="V" horiz-adv-x="600" d="M219 0L10 714H156L265 290Q270 274 276 244T289 183T298 130H307Q310 152 315 182T327 242T337 290L442 714H590L381 0H219Z" />
<glyph unicode="W" horiz-adv-x="600" d="M63 0L10 714H136Q147 606 153 534T161 413T164 332T165 268Q165 253 165 238T165 208T165 178T164 149T163 121H170Q173 148 177 177T185 235T192 285T197 320L232 546H370L404 320Q407 298 411 273T420 222T428 170T436
120H443Q442 139 442 159T440 199T439 239T438 274T438 302Q438 318 438 338T441 388T446 461T453 566T464 714H590L540 0H360L324 244Q321 264 318 289T311 342T304 397H298Q295 370 292 342T284 289T277 244L241 0H63Z" />
<glyph unicode="X" horiz-adv-x="600" d="M20 0L234 368L34 714H182L300 489L416 714H566L366 369L580 0H427L299 248L168 0H20Z" />
<glyph unicode="Y" horiz-adv-x="600" d="M228 0V277L20 714H173L301 411L428 714H580L373 277V0H228Z" />
<glyph unicode="Z" horiz-adv-x="600" d="M80 0V98L366 591H105V714H528V616L239 125H530V0H80Z" />
<glyph unicode="[" horiz-adv-x="600" d="M230 -162V721H470V619H354V-59H470V-162H230Z" />
<glyph unicode="\" horiz-adv-x="600" d="M500 -4H374L100 718H225L500 -4Z" />
<glyph unicode="]" horiz-adv-x="600" d="M370 721V-162H130V-60H246V618H130V721H370Z" />
<glyph unicode="^" horiz-adv-x="600" d="M40 266L258 716H327L560 266H442L294 554L158 266H40Z" />
<glyph unicode="_" horiz-adv-x="600" d="M0 -187V-67H600V-187H0Z" />
<glyph unicode="`" horiz-adv-x="600" d="M297 606Q281 618 259 638T213 680T169 722T136 757V766H294Q306 745 324 717T361 663T393 619V606H297Z" />
<glyph unicode="a" horiz-adv-x="600" d="M223 -10Q137 -10 94 35T50 158Q50 219 76 258T153 316T277 337L397 340V364Q397 402 370 421T288 440Q253 440 214 432T130 407L83 508Q130 532 182 544T293 556Q409 556 472 509T535 364V0H425L402 69H398Q373 40 345
23T287 -2T223 -10ZM274 104Q308 104 336 116T380 152T397 208V253L314 251Q274 250 247 241T205 215T191 171Q191 135 215 120T274 104Z" />
<glyph unicode="b" horiz-adv-x="600" d="M354 -10Q308 -10 267 8T197 60H187L165 0H55V760H197V583Q197 567 196 540T191 475H197Q223 516 265 536T357 556Q410 556 448 535T511 474T548 385T560 275Q560 215 548 163T510 73T446 12T354 -10ZM305 110Q358 110
385 152T413 276Q413 359 385 397T304 436Q256 436 227 401T197 276Q197 191 225 151T305 110Z" />
<glyph unicode="c" horiz-adv-x="600" d="M339 -10Q247 -10 188 21T99 113T70 266Q70 361 100 425T192 523T344 556Q385 556 431 549T520 522L478 407Q438 423 405 428T352 433Q307 433 277 415T232 361T217 271Q217 216 233 181T279 130T354 113Q385 113 422
122T503 158V28Q460 6 421 -2T339 -10Z" />
<glyph unicode="d" horiz-adv-x="600" d="M243 -10Q190 -10 152 11T89 71T52 161T40 273Q40 355 62 418T132 519T254 556Q289 556 317 547T368 521T409 476H414Q411 497 409 516T405 555T403 596V760H545V0H435L405 71H399Q382 44 358 26T305 -1T243 -10ZM300
110Q357 110 385 146T414 255V271Q414 319 405 356T372 415T305 436Q245 436 216 393T187 267Q187 185 215 148T300 110Z" />
<glyph unicode="e" horiz-adv-x="600" d="M351 -10Q255 -10 188 23T86 120T50 276Q50 361 80 424T168 521T308 556Q385 556 439 526T521 439T550 303V231H191Q193 191 215 164T276 123T359 109Q398 109 441 118T534 146V29Q490 7 444 -1T351 -10ZM420 330Q420
366 406 391T367 431T311 445Q265 445 232 416T194 330H420Z" />
<glyph unicode="f" horiz-adv-x="600" d="M213 0V426H68V516L213 546V581Q213 645 236 685T305 745T422 765Q461 765 502 759T580 742L542 628Q517 636 492 639T451 642Q403 642 381 622T358 566V546H534V426H358V0H213Z" />
<glyph unicode="g" horiz-adv-x="600" d="M260 -245Q217 -245 171 -238T78 -213V-77Q128 -98 177 -109T270 -119Q338 -118 368 -92T399 -7V4Q399 21 400 37T403 67H399Q371 27 333 9T248 -10Q150 -10 95 65T40 273Q40 407 94 482T246 557Q296 557 334 537T401
476H405L435 546H545V-1Q545 -79 514 -133T420 -216T260 -245ZM301 110Q330 110 350 120T383 148T403 193T409 253V271Q409 330 398 366T362 419T298 436Q240 436 214 394T187 273Q187 194 214 152T301 110Z" />
<glyph unicode="h" horiz-adv-x="600" d="M55 0V760H200V605Q200 573 200 541T197 476H205Q222 502 243 520T293 547T360 556Q452 556 501 505T550 356V0H405V319Q405 386 380 411T312 436Q274 436 249 418T212 360T200 257V0H55Z" />
<glyph unicode="i" horiz-adv-x="600" d="M60 0V90L242 120V426L87 443V546H387V120L550 90V0H60ZM315 608Q272 608 250 629T228 692Q228 733 250 754T317 776Q361 776 383 755T405 693Q405 652 383 630T315 608Z" />
<glyph unicode="j" horiz-adv-x="600" d="M196 -245Q160 -245 119 -240T40 -223V-100Q64 -106 88 -110T135 -117T174 -119Q214 -119 238 -107T273 -66T284 9V426L129 443V546H429V-19Q429 -135 371 -190T196 -245ZM345 608Q302 608 280 629T258 692Q258 733 280
754T347 776Q391 776 413 755T435 693Q435 652 413 630T345 608Z" />
<glyph unicode="k" horiz-adv-x="600" d="M60 0V760H205V409Q205 389 204 371T202 334T197 295H199Q213 316 230 338T265 382L404 546H572L372 319L585 0H429L282 227L205 168V0H60Z" />
<glyph unicode="l" horiz-adv-x="600" d="M60 0V90L240 120V640L95 670V760H385V120L550 90V0H60Z" />
<glyph unicode="m" horiz-adv-x="600" d="M30 0V546H128L144 478H152Q162 505 175 522T208 547T253 556Q297 556 320 533T351 466H356Q374 510 399 533T467 556Q510 556 532 534T562 466T570 355V0H445V384Q445 401 442 412T432 430T409 436Q392 436 382 428T368
402T364 353V0H237V384Q237 401 234 412T223 430T200 436Q183 436 173 428T159 402T155 353V0H30Z" />
<glyph unicode="n" horiz-adv-x="600" d="M55 0V546H165L189 476H197Q214 503 238 520T293 547T362 556Q454 556 502 505T550 356V0H405V319Q405 379 381 407T312 436Q253 436 227 388T200 257V0H55Z" />
<glyph unicode="o" horiz-adv-x="600" d="M300 -10Q239 -10 191 10T109 67T58 155T40 271Q40 358 71 422T162 521T302 556Q381 556 439 523T528 426T560 273Q560 210 543 158T493 69T412 11T300 -10ZM302 107Q340 107 364 127T401 184T413 273Q413 323 402 360T366
418T302 439Q244 439 216 395T187 273Q187 222 199 185T238 128T302 107Z" />
<glyph unicode="p" horiz-adv-x="600" d="M55 -240V546H165L190 475H197Q215 502 240 520T295 547T358 556Q411 556 449 535T511 474T548 384T560 274Q560 185 535 121T463 24T353 -10Q323 -10 294 -2T241 21T197 60H190Q195 26 196 6T197 -19V-240H55ZM308 110Q361
110 385 149T410 276Q410 354 386 395T307 436Q255 436 226 398T197 291V275Q197 190 226 150T308 110Z" />
<glyph unicode="q" horiz-adv-x="600" d="M403 -11Q403 -1 403 11T405 39T409 71H403Q381 34 338 12T242 -10Q189 -10 151 11T89 71T52 161T40 272Q40 331 51 382T88 473T152 534T247 556Q296 556 338 537T409 476H414L435 546H545V-240H403V-11ZM299 110Q359
110 384 150T410 253V271Q410 357 381 396T299 436Q243 436 217 394T190 271Q190 192 216 151T299 110Z" />
<glyph unicode="r" horiz-adv-x="600" d="M41 0V90L183 120V426L68 443V546H293L314 454H321Q347 500 387 528T488 556Q505 556 531 553T583 539L544 404Q530 409 509 413T465 417Q419 417 389 397T343 341T328 262V120L471 90V0H41Z" />
<glyph unicode="s" horiz-adv-x="600" d="M272 -10Q223 -10 176 -3T80 22V157Q123 138 177 125T289 111Q327 111 349 120T371 152Q371 171 356 182T313 205T241 233Q196 251 161 270T105 319T84 396Q84 452 112 487T191 539T307 556Q360 556 414 546T519 513L474
402Q428 419 387 428T302 437Q269 437 251 429T232 401Q232 383 246 372T287 351T352 327Q397 311 435 291T496 239T520 151Q520 95 492 60T409 7T272 -10Z" />
<glyph unicode="t" horiz-adv-x="600" d="M391 -10Q321 -10 274 10T202 74T178 188V426H53V516L189 546L213 682H323V546H528V426H323V203Q323 164 336 145T371 118T419 111Q443 111 468 115T533 126V12Q496 0 461 -5T391 -10Z" />
<glyph unicode="u" horiz-adv-x="600" d="M234 -10Q147 -10 99 41T50 190V546H195V227Q195 172 214 141T283 110Q331 110 356 132T390 194T400 289V546H545V0H435L411 70H403Q387 45 362 27T304 0T234 -10Z" />
<glyph unicode="v" horiz-adv-x="600" d="M223 0L20 546H176L275 235Q284 206 291 178T301 123H304Q307 149 313 174T329 234L427 546H580L376 0H223Z" />
<glyph unicode="w" horiz-adv-x="600" d="M80 0L3 546H135L160 264Q162 243 164 223T168 180T173 124H177Q181 156 184 178T190 221T199 266L239 466H363L403 265Q407 246 411 224T419 178T427 124H431Q434 153 436 177T440 223T443 264L468 546H598L521 0H356L318
212Q312 245 309 266T302 313H298Q294 287 291 266T282 212L243 0H80Z" />
<glyph unicode="x" horiz-adv-x="600" d="M20 0L213 278L29 546H203L302 374L406 546H580L392 278L580 0H406L303 180L194 0H20Z" />
<glyph unicode="y" horiz-adv-x="600" d="M133 -245Q115 -245 97 -243T59 -237V-113Q73 -116 87 -117T111 -119Q142 -119 163 -108T200 -76T226 -23L235 4L20 546H178L283 232Q290 212 295 189T305 137H308Q311 156 314 171T322 202T331 232L424 546H580L371 -29Q344
-103 311 -151T234 -222T133 -245Z" />
<glyph unicode="z" horiz-adv-x="600" d="M65 0V88L343 432H80V546H526V449L250 114H535V0H65Z" />
<glyph unicode="{" horiz-adv-x="600" d="M463 -162Q382 -162 336 -148T270 -100T250 -12V135Q250 180 222 201T137 223V333Q193 333 221 354T250 421V568Q250 621 268 654T333 702T463 718V611Q436 610 417 605T387 585T376 542V397Q376 346 351 318T274 281V275Q327
267 351 239T376 161V15Q376 -25 397 -39T463 -55V-162Z" />
<glyph unicode="|" horiz-adv-x="600" d="M244 -240V760H355V-240H244Z" />
<glyph unicode="}" horiz-adv-x="600" d="M137 718Q219 718 265 704T330 657T350 568V421Q350 376 378 355T463 333V223Q407 223 379 203T350 135V-12Q350 -65 332 -98T268 -146T137 -162V-55Q165 -54 184 -49T213 -28T224 14V159Q224 210 249 238T326 275V281Q274
289 249 317T224 395V541Q224 581 203 595T137 611V718Z" />
<glyph unicode="~" horiz-adv-x="600" d="M66 271Q66 307 72 341T94 402T134 444T198 460Q222 460 241 454T280 433T326 393Q357 363 371 354T401 344Q427 344 441 373T458 460H532Q531 420 524 386T501 326T462 286T403 271Q382 271 363 277T323 298T276 336Q242
368 229 377T200 387Q170 387 155 360T139 271H66Z" />
<glyph unicode="&#xa0;" horiz-adv-x="600" />
<glyph unicode="&#xa1;" horiz-adv-x="600" d="M363 292L384 -185H215L236 292H363ZM300 539Q344 539 367 516T391 451Q391 408 368 386T300 363Q257 363 234 386T210 451Q210 492 234 515T300 539Z" />
<glyph unicode="&#xa2;" horiz-adv-x="600" d="M299 86Q225 94 175 127T98 220T70 362Q72 449 99 508T177 601T299 643V724H379V647Q423 645 464 636T530 612L491 502Q463 516 426 524T360 532Q311 532 277 515T226 460T208 363Q208 306 225 270T277 216T359 198Q401
198 442 208T516 237V119Q491 105 454 96T379 83V-10H299V86Z" />
<glyph unicode="&#xa3;" horiz-adv-x="600" d="M81 117Q106 130 122 145T148 184T157 243V313H80V417H157V520Q157 626 215 675T366 724Q412 724 453 714T532 684L491 574Q460 589 435 596T377 604Q348 604 323 585T297 520V417H460V313H297V244Q297 213 288 190T264
150T228 123H540V0H81V117Z" />
<glyph unicode="&#xa4;" horiz-adv-x="600" d="M403 199Q380 186 354 178T299 170Q269 170 243 177T193 199L129 135L61 203L127 267Q112 291 104 317T96 372Q96 400 104 426T127 476L60 542L129 610L194 545Q217 560 244 567T299 575Q327 575 353 568T403 544L469
610L539 544L472 477Q486 455 494 428T503 372Q503 343 495 317T472 266L536 202L469 134L403 199ZM299 272Q329 272 352 284T388 319T401 372Q401 402 389 424T354 460T299 473Q268 473 246 460T211 423T199 372Q199 341 212 319T248 284T299 272Z" />
<glyph unicode="&#xa5;" horiz-adv-x="600" d="M232 0V111H88V197H232V265H88V352H206L25 714H172L300 427L428 714H575L391 352H512V265H368V197H512V111H368V0H232Z" />
<glyph unicode="&#xa6;" horiz-adv-x="600" d="M244 362V758H355V362H244ZM244 -230V167H355V-230H244Z" />
<glyph unicode="&#xa7;" horiz-adv-x="600" d="M276 -10Q223 -10 181 0T103 29V131Q128 118 158 107T218 89T274 82Q322 82 343 98T364 139Q364 156 357 168T328 194T263 225Q210 248 175 270T122 320T104 386Q104 430 125 461T181 511Q147 533 129 561T110 626Q110
690 166 727T313 765Q362 765 405 755T491 726L449 633Q415 651 381 662T314 673Q276 673 257 661T238 626Q238 610 249 598T282 574T338 549Q390 529 425 506T479 453T498 382Q498 341 480 311T429 260Q461 238 477 210T493 146Q493 75 435 33T276 -10ZM343 303Q357
314 367 330T378 369Q378 389 369 405T335 436T266 468Q248 461 236 445T223 405Q223 387 233 372T266 342T321 313L343 303Z" />
<glyph unicode="&#xa8;" horiz-adv-x="600" d="M419 610Q388 610 368 629T347 684Q347 722 367 739T419 757Q450 757 471 739T492 684Q492 648 471 629T419 610ZM185 610Q154 610 134 628T114 684Q114 722 134 739T185 757Q216 757 237 739T258 684Q258 648 237
629T185 610Z" />
<glyph unicode="&#xa9;" horiz-adv-x="600" d="M298 77Q209 77 149 115T57 215T26 350Q26 427 59 488T155 586T300 622Q385 622 446 586T540 487T574 346Q574 266 539 206T442 111T298 77ZM311 180Q235 180 195 225T155 349Q155 429 196 475T312 521Q336 521 359
516T407 498L383 435Q366 445 349 450T315 455Q278 455 257 427T235 346Q235 297 254 272T316 247Q334 247 355 251T395 264V198Q376 190 356 185T311 180ZM298 142Q359 142 404 168T475 242T501 352Q501 415 475 461T404 532T300 557Q236 557 191 529T123 453T99
349Q99 292 122 245T190 170T298 142Z" />
<glyph unicode="&#xaa;" horiz-adv-x="600" d="M257 369Q206 369 175 395T143 474Q143 515 163 538T221 573T313 587L361 589V598Q361 623 345 635T299 648Q278 648 254 642T203 623L172 687Q201 703 237 712T314 722Q388 722 422 687T456 591V375H392L377 427Q356
399 326 384T257 369ZM283 440Q318 440 339 461T361 514V532L313 529Q267 526 253 511T239 478Q239 459 250 450T283 440Z" />
<glyph unicode="&#xab;" horiz-adv-x="600" d="M440 48L274 267V281L440 500L540 447L421 274L540 102L440 48ZM226 48L60 267V281L226 500L326 447L206 274L326 102L226 48Z" />
<glyph unicode="&#xac;" horiz-adv-x="600" d="M413 120V300H70V406H520V120H413Z" />
<glyph unicode="&#xad;" horiz-adv-x="600" d="M150 205V330H450V205H150Z" />
<glyph unicode="&#xae;" horiz-adv-x="600" d="M298 78Q210 78 150 116T58 216T27 351Q27 428 60 489T155 586T300 622Q384 622 445 586T539 487T573 347Q573 267 539 206T442 112T298 78ZM298 143Q359 143 404 169T475 243T500 353Q500 416 475 461T404 532T300
557Q236 557 192 529T124 453T100 349Q100 292 123 246T190 171T298 143ZM192 196V511H290Q352 511 383 488T414 416Q414 382 401 362T366 330L425 196H347L301 317H264V196H192ZM287 368Q310 368 323 379T337 415Q337 437 326 446T288 455H264V368H287Z" />
<glyph unicode="&#xaf;" horiz-adv-x="600" d="M149 622V721H452V622H149Z" />
<glyph unicode="&#xb0;" horiz-adv-x="600" d="M300 409Q254 409 218 430T162 487T141 567Q141 611 162 646T220 703T300 724Q345 724 381 703T438 647T460 567Q460 523 441 487T386 430T300 409ZM300 495Q334 495 352 516T370 567Q370 599 350 619T300 639Q271
639 251 619T231 567Q231 537 249 516T300 495Z" />
<glyph unicode="&#xb1;" horiz-adv-x="600" d="M248 155V337H72V443H248V627H355V443H530V337H355V155H248ZM70 0V107H530V0H70Z" />
<glyph unicode="&#xb2;" horiz-adv-x="600" d="M154 416V499L243 585Q267 608 288 628T323 669T337 718Q337 746 323 756T287 766Q263 766 243 756T200 723L150 792Q176 818 215 836T305 854Q364 854 401 825T439 728Q439 685 423 655T377 598T308 532L278 503H460V416H154Z"
/>
<glyph unicode="&#xb3;" horiz-adv-x="600" d="M283 408Q246 408 213 416T152 440V533Q180 514 212 503T282 492Q316 492 332 504T349 542Q349 566 332 580T271 595H223V672H263Q307 672 323 687T339 725Q339 745 327 757T288 770Q264 770 242 762T196 733L150
799Q179 824 216 838T299 853Q360 853 398 824T437 743Q437 708 418 683T360 642V637Q405 627 427 599T450 530Q450 474 407 441T283 408Z" />
<glyph unicode="&#xb4;" horiz-adv-x="600" d="M223 619Q240 642 258 667T293 718T322 766H480V757Q464 738 435 710T375 654T319 606H223V619Z" />
<glyph unicode="&#xb5;" horiz-adv-x="600" d="M50 -240V227H195V-240H50ZM234 -10Q147 -10 99 41T50 190V546H195V227Q195 172 214 141T283 110Q331 110 356 132T390 194T400 289V546H545V0H435L411 70H403Q387 45 362 27T304 0T234 -10Z" />
<glyph unicode="&#xb6;" horiz-adv-x="600" d="M326 273Q313 269 297 267T259 264Q189 264 140 289T66 368T40 509Q40 599 67 654T147 734T274 760H550V-127H473V676H402V-127H326V273Z" />
<glyph unicode="&#xb7;" horiz-adv-x="600" d="M300 260Q257 260 233 283T209 348Q209 392 232 414T300 436Q343 436 366 413T390 348Q390 308 366 284T300 260Z" />
<glyph unicode="&#xb8;" horiz-adv-x="600" d="M271 -240Q251 -240 233 -238T199 -231V-157Q212 -161 225 -163T251 -166Q274 -166 289 -157T305 -126Q305 -104 287 -94T230 -79L266 5H341L326 -35Q362 -44 385 -68T409 -136Q409 -182 377 -211T271 -240Z" />
<glyph unicode="&#xb9;" horiz-adv-x="600" d="M271 629Q271 652 272 684T274 736Q268 731 258 724T240 712L189 679L145 749L291 844H367V416H271V629ZM171 416V480L277 490H363L465 480V416H171Z" />
<glyph unicode="&#xba;" horiz-adv-x="600" d="M298 369Q231 369 188 415T144 546Q144 630 186 676T300 722Q344 722 379 702T434 642T455 546Q455 461 413 415T298 369ZM299 446Q330 446 344 471T358 546Q358 579 352 601T333 634T299 645Q268 645 254 621T240
546Q240 497 254 472T299 446Z" />
<glyph unicode="&#xbb;" horiz-adv-x="600" d="M160 500L326 281V267L160 48L60 101L179 274L60 446L160 500ZM374 500L540 281V267L374 48L274 101L394 274L274 446L374 500Z" />
<glyph unicode="&#xbc;" horiz-adv-x="600" d="M45 73L456 617H566L156 73H45ZM32 379V441L129 449H172L264 441V379H32ZM445 0V62H299V125L439 336H526V129H578V62H526V0H445ZM372 129H445V196Q445 212 446 224T447 251Q443 238 435 225T421 203L372 129ZM109
539Q109 559 110 582T112 625Q104 619 96 613T79 602L46 583L8 648L121 714H189V379H109V539Z" />
<glyph unicode="&#xbd;" horiz-adv-x="600" d="M45 73L456 617H566L156 73H45ZM32 379V441L129 449H172L264 441V379H32ZM344 0V68L424 150Q449 174 462 188T480 214T486 238Q486 255 476 264T448 273Q430 273 415 265T383 240L341 294Q362 316 392 330T461 344Q515
344 543 318T571 247Q571 220 560 198T528 152T475 99L445 73H584V0H344ZM109 539Q109 559 110 582T112 625Q104 619 96 613T79 602L46 583L8 648L121 714H189V379H109V539Z" />
<glyph unicode="&#xbe;" horiz-adv-x="600" d="M45 73L456 617H566L156 73H45ZM445 0V62H299V125L439 336H526V129H578V62H526V0H445ZM372 129H445V196Q445 212 446 224T447 251Q443 238 435 225T421 203L372 129ZM138 374Q109 374 84 379T37 398V475Q60 459 85
452T134 445Q162 445 175 455T188 484Q188 501 175 510T130 519H89V583H124Q155 583 167 593T180 620Q180 637 171 646T141 655Q123 655 106 648T70 626L31 681Q56 701 84 712T149 723Q202 723 232 700T262 637Q262 608 249 588T210 557V554Q271 538 271 475Q271
429 237 402T138 374Z" />
<glyph unicode="&#xbf;" horiz-adv-x="600" d="M369 256Q369 221 359 195T329 147T276 101Q251 83 234 67T207 32T197 -10Q197 -42 219 -58T281 -75Q316 -75 354 -63T443 -27L496 -134Q439 -165 385 -180T270 -195Q210 -195 162 -175T85 -116T56 -18Q56 26 68
55T104 110T168 163Q193 181 208 194T232 224T240 263V292H369V256ZM303 539Q347 539 370 516T394 451Q394 408 371 386T303 363Q260 363 237 386T213 451Q213 492 237 515T303 539Z" />
<glyph unicode="&#xc0;" horiz-adv-x="600" d="M10 0L207 717H392L590 0H445L331 473Q326 496 321 518T310 562T300 607Q295 585 290 563T280 518T269 473L151 0H10ZM168 177L198 297H404L418 177H168ZM292 774Q276 786 254 806T208 848T164 890T131 925V934H289Q301
913 319 885T356 831T388 787V774H292Z" />
<glyph unicode="&#xc1;" horiz-adv-x="600" d="M10 0L207 717H392L590 0H445L331 473Q326 496 321 518T310 562T300 607Q295 585 290 563T280 518T269 473L151 0H10ZM168 177L198 297H404L418 177H168ZM231 787Q248 810 266 835T301 886T330 934H488V925Q472 906
443 878T383 822T327 774H231V787Z" />
<glyph unicode="&#xc2;" horiz-adv-x="600" d="M10 0L207 717H392L590 0H445L331 473Q326 496 321 518T310 562T300 607Q295 585 290 563T280 518T269 473L151 0H10ZM168 177L198 297H404L418 177H168ZM117 787Q134 806 155 832T196 886T227 934H374Q387 912 405
886T444 835T483 787V774H395Q373 790 348 811T300 858Q276 832 252 811T206 774H117V787Z" />
<glyph unicode="&#xc3;" horiz-adv-x="600" d="M10 0L207 717H392L590 0H445L331 473Q326 496 321 518T310 562T300 607Q295 585 290 563T280 518T269 473L151 0H10ZM168 177L198 297H404L418 177H168ZM110 773Q112 804 119 831T140 879T174 911T220 923Q242 923
262 916T302 898T341 880T378 872Q395 872 404 885T418 924H490Q486 849 455 812T380 774Q359 774 338 781T297 799T258 817T222 825Q204 825 196 813T182 773H110Z" />
<glyph unicode="&#xc4;" horiz-adv-x="600" d="M10 0L207 717H392L590 0H445L331 473Q326 496 321 518T310 562T300 607Q295 585 290 563T280 518T269 473L151 0H10ZM168 177L198 297H404L418 177H168ZM416 778Q385 778 365 797T344 852Q344 890 364 907T416 925Q447
925 468 907T489 852Q489 816 468 797T416 778ZM182 778Q151 778 131 796T111 852Q111 890 131 907T182 925Q213 925 234 907T255 852Q255 816 234 797T182 778Z" />
<glyph unicode="&#xc5;" horiz-adv-x="600" d="M10 0L207 717H392L590 0H445L331 473Q326 496 321 518T310 562T300 607Q295 585 290 563T280 518T269 473L151 0H10ZM168 177L198 297H404L418 177H168ZM298 774Q245 774 213 805T180 890Q180 942 212 973T298 1004Q350
1004 384 973T419 890Q419 838 385 806T298 774ZM299 843Q319 843 332 855T345 889Q345 910 332 922T299 935Q279 935 266 923T252 889Q252 868 264 856T299 843Z" />
<glyph unicode="&#xc6;" horiz-adv-x="600" d="M10 0L180 714H570V590H430V433H552V309H430V124H570V0H309V590H274L144 0H10ZM154 176L176 300H336V176H154Z" />
<glyph unicode="&#xc7;" horiz-adv-x="600" d="M351 -10Q248 -10 182 33T83 156T50 342Q50 431 72 501T136 622T242 698T388 724Q440 724 479 714T560 683L512 564Q475 583 444 590T383 597Q331 597 295 580T238 529T207 450T197 348Q197 270 215 219T273 142T375
117Q410 117 446 126T532 157V27Q489 8 443 -1T351 -10ZM306 -240Q286 -240 268 -238T234 -231V-157Q247 -161 260 -163T286 -166Q309 -166 324 -157T340 -126Q340 -104 322 -94T265 -79L301 5H376L361 -35Q397 -44 420 -68T444 -136Q444 -182 412 -211T306 -240Z"
/>
<glyph unicode="&#xc8;" horiz-adv-x="600" d="M80 0V714H530V589H220V433H515V308H220V125H530V0H80ZM298 774Q282 786 260 806T214 848T170 890T137 925V934H295Q307 913 325 885T362 831T394 787V774H298Z" />
<glyph unicode="&#xc9;" horiz-adv-x="600" d="M80 0V714H530V589H220V433H515V308H220V125H530V0H80ZM237 787Q254 810 272 835T307 886T336 934H494V925Q478 906 449 878T389 822T333 774H237V787Z" />
<glyph unicode="&#xca;" horiz-adv-x="600" d="M80 0V714H530V589H220V433H515V308H220V125H530V0H80ZM123 787Q140 806 161 832T202 886T233 934H380Q393 912 411 886T450 835T489 787V774H401Q379 790 354 811T306 858Q282 832 258 811T212 774H123V787Z" />
<glyph unicode="&#xcb;" horiz-adv-x="600" d="M80 0V714H530V589H220V433H515V308H220V125H530V0H80ZM422 778Q391 778 371 797T350 852Q350 890 370 907T422 925Q453 925 474 907T495 852Q495 816 474 797T422 778ZM188 778Q157 778 137 796T117 852Q117 890
137 907T188 925Q219 925 240 907T261 852Q261 816 240 797T188 778Z" />
<glyph unicode="&#xcc;" horiz-adv-x="600" d="M90 0V100L229 116V598L90 614V714H510V614L368 598V116L510 100V0H90ZM292 774Q276 786 254 806T208 848T164 890T131 925V934H289Q301 913 319 885T356 831T388 787V774H292Z" />
<glyph unicode="&#xcd;" horiz-adv-x="600" d="M90 0V100L229 116V598L90 614V714H510V614L368 598V116L510 100V0H90ZM231 787Q248 810 266 835T301 886T330 934H488V925Q472 906 443 878T383 822T327 774H231V787Z" />
<glyph unicode="&#xce;" horiz-adv-x="600" d="M90 0V100L229 116V598L90 614V714H510V614L368 598V116L510 100V0H90ZM117 787Q134 806 155 832T196 886T227 934H374Q387 912 405 886T444 835T483 787V774H395Q373 790 348 811T300 858Q276 832 252 811T206 774H117V787Z"
/>
<glyph unicode="&#xcf;" horiz-adv-x="600" d="M90 0V100L229 116V598L90 614V714H510V614L368 598V116L510 100V0H90ZM416 778Q385 778 365 797T344 852Q344 890 364 907T416 925Q447 925 468 907T489 852Q489 816 468 797T416 778ZM182 778Q151 778 131 796T111
852Q111 890 131 907T182 925Q213 925 234 907T255 852Q255 816 234 797T182 778Z" />
<glyph unicode="&#xd0;" horiz-adv-x="600" d="M0 293V413H294V293H0ZM45 0V714H266Q359 714 427 675T532 557T570 363Q570 246 532 165T423 42T255 0H45ZM247 123Q338 123 380 182T423 362Q423 442 405 492T350 567T259 591H188V123H247Z" />
<glyph unicode="&#xd1;" horiz-adv-x="600" d="M45 0V714H242L430 139H433Q431 174 430 206T428 267T427 318T426 356V714H555V0H356L168 580H164Q166 544 168 511T171 448T173 395T174 356V0H45ZM115 773Q117 804 124 831T145 879T179 911T225 923Q247 923 267
916T307 898T346 880T383 872Q400 872 409 885T423 924H495Q491 849 460 812T385 774Q364 774 343 781T302 799T263 817T227 825Q209 825 201 813T187 773H115Z" />
<glyph unicode="&#xd2;" horiz-adv-x="600" d="M300 -10Q230 -10 179 15T95 87T46 203T30 358Q30 474 59 556T147 682T300 726Q370 726 421 701T505 629T554 513T570 358Q570 271 554 203T505 88T421 15T300 -10ZM300 115Q343 115 370 142T410 224T423 359Q423
478 394 539T300 601Q257 601 230 574T190 492T177 358Q177 278 189 224T229 143T300 115ZM292 774Q276 786 254 806T208 848T164 890T131 925V934H289Q301 913 319 885T356 831T388 787V774H292Z" />
<glyph unicode="&#xd3;" horiz-adv-x="600" d="M300 -10Q230 -10 179 15T95 87T46 203T30 358Q30 474 59 556T147 682T300 726Q370 726 421 701T505 629T554 513T570 358Q570 271 554 203T505 88T421 15T300 -10ZM300 115Q343 115 370 142T410 224T423 359Q423
478 394 539T300 601Q257 601 230 574T190 492T177 358Q177 278 189 224T229 143T300 115ZM231 787Q248 810 266 835T301 886T330 934H488V925Q472 906 443 878T383 822T327 774H231V787Z" />
<glyph unicode="&#xd4;" horiz-adv-x="600" d="M300 -10Q230 -10 179 15T95 87T46 203T30 358Q30 474 59 556T147 682T300 726Q370 726 421 701T505 629T554 513T570 358Q570 271 554 203T505 88T421 15T300 -10ZM300 115Q343 115 370 142T410 224T423 359Q423
478 394 539T300 601Q257 601 230 574T190 492T177 358Q177 278 189 224T229 143T300 115ZM117 787Q134 806 155 832T196 886T227 934H374Q387 912 405 886T444 835T483 787V774H395Q373 790 348 811T300 858Q276 832 252 811T206 774H117V787Z" />
<glyph unicode="&#xd5;" horiz-adv-x="600" d="M300 -10Q230 -10 179 15T95 87T46 203T30 358Q30 474 59 556T147 682T300 726Q370 726 421 701T505 629T554 513T570 358Q570 271 554 203T505 88T421 15T300 -10ZM300 115Q343 115 370 142T410 224T423 359Q423
478 394 539T300 601Q257 601 230 574T190 492T177 358Q177 278 189 224T229 143T300 115ZM110 773Q112 804 119 831T140 879T174 911T220 923Q242 923 262 916T302 898T341 880T378 872Q395 872 404 885T418 924H490Q486 849 455 812T380 774Q359 774 338 781T297
799T258 817T222 825Q204 825 196 813T182 773H110Z" />
<glyph unicode="&#xd6;" horiz-adv-x="600" d="M300 -10Q230 -10 179 15T95 87T46 203T30 358Q30 474 59 556T147 682T300 726Q370 726 421 701T505 629T554 513T570 358Q570 271 554 203T505 88T421 15T300 -10ZM300 115Q343 115 370 142T410 224T423 359Q423
478 394 539T300 601Q257 601 230 574T190 492T177 358Q177 278 189 224T229 143T300 115ZM416 778Q385 778 365 797T344 852Q344 890 364 907T416 925Q447 925 468 907T489 852Q489 816 468 797T416 778ZM182 778Q151 778 131 796T111 852Q111 890 131 907T182
925Q213 925 234 907T255 852Q255 816 234 797T182 778Z" />
<glyph unicode="&#xd7;" horiz-adv-x="600" d="M156 133L81 210L222 353L80 495L156 573L300 432L444 573L521 497L377 353L519 209L443 133L300 276L156 133Z" />
<glyph unicode="&#xd8;" horiz-adv-x="600" d="M90 -43L13 9L512 751L588 701L90 -43ZM300 -10Q230 -10 179 15T95 87T46 203T30 358Q30 474 59 556T147 682T300 726Q370 726 421 701T505 629T554 513T570 358Q570 271 554 203T505 88T421 15T300 -10ZM300 115Q343
115 370 142T410 224T423 359Q423 478 394 539T300 601Q257 601 230 574T190 492T177 358Q177 278 189 224T229 143T300 115Z" />
<glyph unicode="&#xd9;" horiz-adv-x="600" d="M298 -10Q215 -10 159 19T74 106T45 243V714H190V268Q190 212 202 179T238 130T300 115Q339 115 363 130T399 180T410 269V714H555V244Q555 166 527 109T441 21T298 -10ZM292 774Q276 786 254 806T208 848T164 890T131
925V934H289Q301 913 319 885T356 831T388 787V774H292Z" />
<glyph unicode="&#xda;" horiz-adv-x="600" d="M298 -10Q215 -10 159 19T74 106T45 243V714H190V268Q190 212 202 179T238 130T300 115Q339 115 363 130T399 180T410 269V714H555V244Q555 166 527 109T441 21T298 -10ZM231 787Q248 810 266 835T301 886T330 934H488V925Q472
906 443 878T383 822T327 774H231V787Z" />
<glyph unicode="&#xdb;" horiz-adv-x="600" d="M298 -10Q215 -10 159 19T74 106T45 243V714H190V268Q190 212 202 179T238 130T300 115Q339 115 363 130T399 180T410 269V714H555V244Q555 166 527 109T441 21T298 -10ZM117 787Q134 806 155 832T196 886T227 934H374Q387
912 405 886T444 835T483 787V774H395Q373 790 348 811T300 858Q276 832 252 811T206 774H117V787Z" />
<glyph unicode="&#xdc;" horiz-adv-x="600" d="M298 -10Q215 -10 159 19T74 106T45 243V714H190V268Q190 212 202 179T238 130T300 115Q339 115 363 130T399 180T410 269V714H555V244Q555 166 527 109T441 21T298 -10ZM416 778Q385 778 365 797T344 852Q344 890
364 907T416 925Q447 925 468 907T489 852Q489 816 468 797T416 778ZM182 778Q151 778 131 796T111 852Q111 890 131 907T182 925Q213 925 234 907T255 852Q255 816 234 797T182 778Z" />
<glyph unicode="&#xdd;" horiz-adv-x="600" d="M228 0V277L20 714H173L301 411L428 714H580L373 277V0H228ZM231 787Q248 810 266 835T301 886T330 934H488V925Q472 906 443 878T383 822T327 774H231V787Z" />
<glyph unicode="&#xde;" horiz-adv-x="600" d="M80 0V714H220V594H317Q440 594 500 537T560 372Q560 301 535 248T454 164T308 134H220V0H80ZM293 257Q335 257 362 269T402 306T416 366Q416 419 391 445T312 471H220V257H293Z" />
<glyph unicode="&#xdf;" horiz-adv-x="600" d="M373 -10Q337 -10 304 -3T243 20V143Q266 127 298 115T362 103Q394 103 411 117T428 161Q428 178 421 189T398 214T350 249Q317 272 297 293T267 337T257 385Q257 417 268 439T297 478T332 510T361 542T373 584Q373
617 350 632T292 648Q260 648 239 636T207 601T196 545V0H55V554Q55 623 83 670T165 741T289 765Q353 765 404 746T484 690T514 600Q514 565 502 540T473 495T438 461T408 433T396 404Q396 390 407 377T437 351T476 322Q505 300 526 278T559 229T571 160Q571 105
549 67T482 10T373 -10Z" />
<glyph unicode="&#xe0;" horiz-adv-x="600" d="M223 -10Q137 -10 94 35T50 158Q50 219 76 258T153 316T277 337L397 340V364Q397 402 370 421T288 440Q253 440 214 432T130 407L83 508Q130 532 182 544T293 556Q409 556 472 509T535 364V0H425L402 69H398Q373
40 345 23T287 -2T223 -10ZM274 104Q308 104 336 116T380 152T397 208V253L314 251Q274 250 247 241T205 215T191 171Q191 135 215 120T274 104ZM300 606Q284 618 262 638T216 680T172 722T139 757V766H297Q309 745 327 717T364 663T396 619V606H300Z" />
<glyph unicode="&#xe1;" horiz-adv-x="600" d="M223 -10Q137 -10 94 35T50 158Q50 219 76 258T153 316T277 337L397 340V364Q397 402 370 421T288 440Q253 440 214 432T130 407L83 508Q130 532 182 544T293 556Q409 556 472 509T535 364V0H425L402 69H398Q373
40 345 23T287 -2T223 -10ZM274 104Q308 104 336 116T380 152T397 208V253L314 251Q274 250 247 241T205 215T191 171Q191 135 215 120T274 104ZM239 619Q256 642 274 667T309 718T338 766H496V757Q480 738 451 710T391 654T335 606H239V619Z" />
<glyph unicode="&#xe2;" horiz-adv-x="600" d="M223 -10Q137 -10 94 35T50 158Q50 219 76 258T153 316T277 337L397 340V364Q397 402 370 421T288 440Q253 440 214 432T130 407L83 508Q130 532 182 544T293 556Q409 556 472 509T535 364V0H425L402 69H398Q373
40 345 23T287 -2T223 -10ZM274 104Q308 104 336 116T380 152T397 208V253L314 251Q274 250 247 241T205 215T191 171Q191 135 215 120T274 104ZM125 619Q142 638 163 664T204 718T235 766H382Q395 744 413 718T452 667T491 619V606H403Q381 622 356 643T308 690Q284
664 260 643T214 606H125V619Z" />
<glyph unicode="&#xe3;" horiz-adv-x="600" d="M223 -10Q137 -10 94 35T50 158Q50 219 76 258T153 316T277 337L397 340V364Q397 402 370 421T288 440Q253 440 214 432T130 407L83 508Q130 532 182 544T293 556Q409 556 472 509T535 364V0H425L402 69H398Q373
40 345 23T287 -2T223 -10ZM274 104Q308 104 336 116T380 152T397 208V253L314 251Q274 250 247 241T205 215T191 171Q191 135 215 120T274 104ZM118 605Q120 636 127 663T148 711T182 743T228 755Q250 755 270 748T310 730T349 712T386 704Q403 704 412 717T426
756H498Q494 681 463 644T388 606Q367 606 346 613T305 631T266 649T230 657Q212 657 204 645T190 605H118Z" />
<glyph unicode="&#xe4;" horiz-adv-x="600" d="M223 -10Q137 -10 94 35T50 158Q50 219 76 258T153 316T277 337L397 340V364Q397 402 370 421T288 440Q253 440 214 432T130 407L83 508Q130 532 182 544T293 556Q409 556 472 509T535 364V0H425L402 69H398Q373
40 345 23T287 -2T223 -10ZM274 104Q308 104 336 116T380 152T397 208V253L314 251Q274 250 247 241T205 215T191 171Q191 135 215 120T274 104ZM424 610Q393 610 373 629T352 684Q352 722 372 739T424 757Q455 757 476 739T497 684Q497 648 476 629T424 610ZM190
610Q159 610 139 628T119 684Q119 722 139 739T190 757Q221 757 242 739T263 684Q263 648 242 629T190 610Z" />
<glyph unicode="&#xe5;" horiz-adv-x="600" d="M223 -10Q137 -10 94 35T50 158Q50 219 76 258T153 316T277 337L397 340V364Q397 402 370 421T288 440Q253 440 214 432T130 407L83 508Q130 532 182 544T293 556Q409 556 472 509T535 364V0H425L402 69H398Q373
40 345 23T287 -2T223 -10ZM274 104Q308 104 336 116T380 152T397 208V253L314 251Q274 250 247 241T205 215T191 171Q191 135 215 120T274 104ZM306 606Q253 606 221 637T188 722Q188 774 220 805T306 836Q358 836 392 805T427 722Q427 670 393 638T306 606ZM307
675Q327 675 340 687T353 721Q353 742 340 754T307 767Q287 767 274 755T260 721Q260 700 272 688T307 675Z" />
<glyph unicode="&#xe6;" horiz-adv-x="600" d="M149 -10Q81 -10 46 33T10 157Q10 216 29 254T85 311T178 332L240 334V377Q240 408 223 424T167 440Q148 440 128 435T82 419L37 516Q71 536 108 546T183 556Q224 556 254 545T310 508Q336 533 366 544T428 556Q484
556 520 524T573 435T590 306V239H361Q362 192 376 161T416 115T475 100Q501 100 522 109T567 136V28Q545 9 517 0T454 -10Q402 -10 360 12T291 78Q265 35 232 13T149 -10ZM183 101Q203 101 215 114T234 152T240 207V251H207Q172 251 155 228T137 167Q137 133 150
117T183 101ZM469 331Q468 368 463 392T446 428T418 440Q390 440 377 410T364 331H469Z" />
<glyph unicode="&#xe7;" horiz-adv-x="600" d="M339 -10Q247 -10 188 21T99 113T70 266Q70 361 100 425T192 523T344 556Q385 556 431 549T520 522L478 407Q438 423 405 428T352 433Q307 433 277 415T232 361T217 271Q217 216 233 181T279 130T354 113Q385 113
422 122T503 158V28Q460 6 421 -2T339 -10ZM300 -240Q280 -240 262 -238T228 -231V-157Q241 -161 254 -163T280 -166Q303 -166 318 -157T334 -126Q334 -104 316 -94T259 -79L295 5H370L355 -35Q391 -44 414 -68T438 -136Q438 -182 406 -211T300 -240Z" />
<glyph unicode="&#xe8;" horiz-adv-x="600" d="M351 -10Q255 -10 188 23T86 120T50 276Q50 361 80 424T168 521T308 556Q385 556 439 526T521 439T550 303V231H191Q193 191 215 164T276 123T359 109Q398 109 441 118T534 146V29Q490 7 444 -1T351 -10ZM420 330Q420
366 406 391T367 431T311 445Q265 445 232 416T194 330H420ZM302 606Q286 618 264 638T218 680T174 722T141 757V766H299Q311 745 329 717T366 663T398 619V606H302Z" />
<glyph unicode="&#xe9;" horiz-adv-x="600" d="M351 -10Q255 -10 188 23T86 120T50 276Q50 361 80 424T168 521T308 556Q385 556 439 526T521 439T550 303V231H191Q193 191 215 164T276 123T359 109Q398 109 441 118T534 146V29Q490 7 444 -1T351 -10ZM420 330Q420
366 406 391T367 431T311 445Q265 445 232 416T194 330H420ZM241 619Q258 642 276 667T311 718T340 766H498V757Q482 738 453 710T393 654T337 606H241V619Z" />
<glyph unicode="&#xea;" horiz-adv-x="600" d="M351 -10Q255 -10 188 23T86 120T50 276Q50 361 80 424T168 521T308 556Q385 556 439 526T521 439T550 303V231H191Q193 191 215 164T276 123T359 109Q398 109 441 118T534 146V29Q490 7 444 -1T351 -10ZM420 330Q420
366 406 391T367 431T311 445Q265 445 232 416T194 330H420ZM127 619Q144 638 165 664T206 718T237 766H384Q397 744 415 718T454 667T493 619V606H405Q383 622 358 643T310 690Q286 664 262 643T216 606H127V619Z" />
<glyph unicode="&#xeb;" horiz-adv-x="600" d="M351 -10Q255 -10 188 23T86 120T50 276Q50 361 80 424T168 521T308 556Q385 556 439 526T521 439T550 303V231H191Q193 191 215 164T276 123T359 109Q398 109 441 118T534 146V29Q490 7 444 -1T351 -10ZM420 330Q420
366 406 391T367 431T311 445Q265 445 232 416T194 330H420ZM426 610Q395 610 375 629T354 684Q354 722 374 739T426 757Q457 757 478 739T499 684Q499 648 478 629T426 610ZM192 610Q161 610 141 628T121 684Q121 722 141 739T192 757Q223 757 244 739T265 684Q265
648 244 629T192 610Z" />
<glyph unicode="&#xec;" horiz-adv-x="600" d="M60 0V90L242 120V426L87 443V546H387V120L550 90V0H60ZM548 606Q532 618 510 638T464 680T420 722T387 757V766H545Q557 745 575 717T612 663T644 619V606H548Z" />
<glyph unicode="&#xed;" horiz-adv-x="600" d="M60 0V90L242 120V426L87 443V546H387V120L550 90V0H60ZM231 619Q248 642 266 667T301 718T330 766H488V757Q472 738 443 710T383 654T327 606H231V619Z" />
<glyph unicode="&#xee;" horiz-adv-x="600" d="M60 0V90L242 120V426L87 443V546H387V120L550 90V0H60ZM373 619Q390 638 411 664T452 718T483 766H630Q643 744 661 718T700 667T739 619V606H651Q629 622 604 643T556 690Q532 664 508 643T462 606H373V619Z" />
<glyph unicode="&#xef;" horiz-adv-x="600" d="M60 0V90L242 120V426L87 443V546H387V120L550 90V0H60ZM672 610Q641 610 621 629T600 684Q600 722 620 739T672 757Q703 757 724 739T745 684Q745 648 724 629T672 610ZM438 610Q407 610 387 628T367 684Q367 722
387 739T438 757Q469 757 490 739T511 684Q511 648 490 629T438 610Z" />
<glyph unicode="&#xf0;" horiz-adv-x="600" d="M295 -10Q221 -10 163 19T73 103T40 238Q40 317 69 372T150 456T269 485Q319 485 353 473T405 436L409 438Q392 480 366 515T308 579T239 634T163 682L211 765Q297 729 362 679T471 567T537 433T560 280Q560 141
489 66T295 -10ZM297 96Q339 96 364 114T402 169T414 259Q414 291 402 318T363 362T297 379Q257 379 233 363T197 316T186 237Q186 196 197 164T233 114T297 96ZM198 509L151 583L448 764L496 691L198 509Z" />
<glyph unicode="&#xf1;" horiz-adv-x="600" d="M55 0V546H165L189 476H197Q214 503 238 520T293 547T362 556Q454 556 502 505T550 356V0H405V319Q405 379 381 407T312 436Q253 436 227 388T200 257V0H55ZM114 605Q116 636 123 663T144 711T178 743T224 755Q246
755 266 748T306 730T345 712T382 704Q399 704 408 717T422 756H494Q490 681 459 644T384 606Q363 606 342 613T301 631T262 649T226 657Q208 657 200 645T186 605H114Z" />
<glyph unicode="&#xf2;" horiz-adv-x="600" d="M300 -10Q239 -10 191 10T109 67T58 155T40 271Q40 358 71 422T162 521T302 556Q381 556 439 523T528 426T560 273Q560 210 543 158T493 69T412 11T300 -10ZM302 107Q340 107 364 127T401 184T413 273Q413 323 402
360T366 418T302 439Q244 439 216 395T187 273Q187 222 199 185T238 128T302 107ZM548 606Q532 618 510 638T464 680T420 722T387 757V766H545Q557 745 575 717T612 663T644 619V606H548Z" />
<glyph unicode="&#xf3;" horiz-adv-x="600" d="M300 -10Q239 -10 191 10T109 67T58 155T40 271Q40 358 71 422T162 521T302 556Q381 556 439 523T528 426T560 273Q560 210 543 158T493 69T412 11T300 -10ZM302 107Q340 107 364 127T401 184T413 273Q413 323 402
360T366 418T302 439Q244 439 216 395T187 273Q187 222 199 185T238 128T302 107ZM231 619Q248 642 266 667T301 718T330 766H488V757Q472 738 443 710T383 654T327 606H231V619Z" />
<glyph unicode="&#xf4;" horiz-adv-x="600" d="M300 -10Q239 -10 191 10T109 67T58 155T40 271Q40 358 71 422T162 521T302 556Q381 556 439 523T528 426T560 273Q560 210 543 158T493 69T412 11T300 -10ZM302 107Q340 107 364 127T401 184T413 273Q413 323 402
360T366 418T302 439Q244 439 216 395T187 273Q187 222 199 185T238 128T302 107ZM373 619Q390 638 411 664T452 718T483 766H630Q643 744 661 718T700 667T739 619V606H651Q629 622 604 643T556 690Q532 664 508 643T462 606H373V619Z" />
<glyph unicode="&#xf5;" horiz-adv-x="600" d="M300 -10Q239 -10 191 10T109 67T58 155T40 271Q40 358 71 422T162 521T302 556Q381 556 439 523T528 426T560 273Q560 210 543 158T493 69T412 11T300 -10ZM302 107Q340 107 364 127T401 184T413 273Q413 323 402
360T366 418T302 439Q244 439 216 395T187 273Q187 222 199 185T238 128T302 107ZM110 605Q112 636 119 663T140 711T174 743T220 755Q242 755 262 748T302 730T341 712T378 704Q395 704 404 717T418 756H490Q486 681 455 644T380 606Q359 606 338 613T297 631T258
649T222 657Q204 657 196 645T182 605H110Z" />
<glyph unicode="&#xf6;" horiz-adv-x="600" d="M300 -10Q239 -10 191 10T109 67T58 155T40 271Q40 358 71 422T162 521T302 556Q381 556 439 523T528 426T560 273Q560 210 543 158T493 69T412 11T300 -10ZM302 107Q340 107 364 127T401 184T413 273Q413 323 402
360T366 418T302 439Q244 439 216 395T187 273Q187 222 199 185T238 128T302 107ZM672 610Q641 610 621 629T600 684Q600 722 620 739T672 757Q703 757 724 739T745 684Q745 648 724 629T672 610ZM438 610Q407 610 387 628T367 684Q367 722 387 739T438 757Q469
757 490 739T511 684Q511 648 490 629T438 610Z" />
<glyph unicode="&#xf7;" horiz-adv-x="600" d="M70 300V406H530V300H70ZM301 97Q271 97 252 116T233 173Q233 212 251 230T301 248Q331 248 349 230T368 173Q368 135 349 116T301 97ZM301 458Q271 458 252 476T233 533Q233 572 251 590T301 608Q331 608 349 590T368
533Q368 495 349 477T301 458Z" />
<glyph unicode="&#xf8;" horiz-adv-x="600" d="M147 -37L74 13L455 576L528 524L147 -37ZM300 -10Q239 -10 191 10T109 67T58 155T40 271Q40 358 71 422T162 521T302 556Q381 556 439 523T528 426T560 273Q560 210 543 158T493 69T412 11T300 -10ZM302 107Q340
107 364 127T401 184T413 273Q413 323 402 360T366 418T302 439Q244 439 216 395T187 273Q187 222 199 185T238 128T302 107Z" />
<glyph unicode="&#xf9;" horiz-adv-x="600" d="M234 -10Q147 -10 99 41T50 190V546H195V227Q195 172 214 141T283 110Q331 110 356 132T390 194T400 289V546H545V0H435L411 70H403Q387 45 362 27T304 0T234 -10ZM548 606Q532 618 510 638T464 680T420 722T387
757V766H545Q557 745 575 717T612 663T644 619V606H548Z" />
<glyph unicode="&#xfa;" horiz-adv-x="600" d="M234 -10Q147 -10 99 41T50 190V546H195V227Q195 172 214 141T283 110Q331 110 356 132T390 194T400 289V546H545V0H435L411 70H403Q387 45 362 27T304 0T234 -10ZM231 619Q248 642 266 667T301 718T330 766H488V757Q472
738 443 710T383 654T327 606H231V619Z" />
<glyph unicode="&#xfb;" horiz-adv-x="600" d="M234 -10Q147 -10 99 41T50 190V546H195V227Q195 172 214 141T283 110Q331 110 356 132T390 194T400 289V546H545V0H435L411 70H403Q387 45 362 27T304 0T234 -10ZM373 619Q390 638 411 664T452 718T483 766H630Q643
744 661 718T700 667T739 619V606H651Q629 622 604 643T556 690Q532 664 508 643T462 606H373V619Z" />
<glyph unicode="&#xfc;" horiz-adv-x="600" d="M234 -10Q147 -10 99 41T50 190V546H195V227Q195 172 214 141T283 110Q331 110 356 132T390 194T400 289V546H545V0H435L411 70H403Q387 45 362 27T304 0T234 -10ZM672 610Q641 610 621 629T600 684Q600 722 620
739T672 757Q703 757 724 739T745 684Q745 648 724 629T672 610ZM438 610Q407 610 387 628T367 684Q367 722 387 739T438 757Q469 757 490 739T511 684Q511 648 490 629T438 610Z" />
<glyph unicode="&#xfd;" horiz-adv-x="600" d="M133 -245Q115 -245 97 -243T59 -237V-113Q73 -116 87 -117T111 -119Q142 -119 163 -108T200 -76T226 -23L235 4L20 546H178L283 232Q290 212 295 189T305 137H308Q311 156 314 171T322 202T331 232L424 546H580L371
-29Q344 -103 311 -151T234 -222T133 -245ZM231 619Q248 642 266 667T301 718T330 766H488V757Q472 738 443 710T383 654T327 606H231V619Z" />
<glyph unicode="&#xfe;" horiz-adv-x="600" d="M55 -240V760H197V563Q197 541 196 519T192 475H197Q215 502 240 520T295 547T358 556Q411 556 449 535T511 474T548 384T560 274Q560 185 535 121T463 24T353 -10Q323 -10 294 -2T241 21T197 60H190Q195 26 196
6T197 -19V-240H55ZM308 110Q361 110 385 149T410 276Q410 354 386 395T307 436Q255 436 226 398T197 291V275Q197 190 226 150T308 110Z" />
<glyph unicode="&#xff;" horiz-adv-x="600" d="M133 -245Q115 -245 97 -243T59 -237V-113Q73 -116 87 -117T111 -119Q142 -119 163 -108T200 -76T226 -23L235 4L20 546H178L283 232Q290 212 295 189T305 137H308Q311 156 314 171T322 202T331 232L424 546H580L371
-29Q344 -103 311 -151T234 -222T133 -245ZM672 610Q641 610 621 629T600 684Q600 722 620 739T672 757Q703 757 724 739T745 684Q745 648 724 629T672 610ZM438 610Q407 610 387 628T367 684Q367 722 387 739T438 757Q469 757 490 739T511 684Q511 648 490 629T438
610Z" />
<glyph unicode="&#x2013;" horiz-adv-x="600" d="M100 205V330H500V205H100Z" />
<glyph unicode="&#x2014;" horiz-adv-x="600" d="M0 205V330H600V205H0Z" />
<glyph unicode="&#x2018;" horiz-adv-x="600" d="M205 480Q214 516 228 556T258 637T291 714H394Q385 675 376 631T358 546T345 469H212L205 480Z" />
<glyph unicode="&#x2019;" horiz-adv-x="600" d="M210 469Q219 505 226 538T239 602T250 661T259 714H396L403 703Q395 671 383 635T354 557T317 469H210Z" />
<glyph unicode="&#x201a;" horiz-adv-x="600" d="M194 -156Q205 -112 215 -59T233 46T248 136H385L392 125Q386 100 377 66T356 -6T330 -83T301 -156H194Z" />
<glyph unicode="&#x201c;" horiz-adv-x="600" d="M349 480Q358 516 372 556T402 637T435 714H538Q529 675 520 631T502 546T489 469H356L349 480ZM317 480Q326 516 340 556T370 637T403 714H506Q497 675 488 631T470 546T457 469H324L317 480Z" />
<glyph unicode="&#x201d;" horiz-adv-x="600" d="M506 703Q497 668 483 628T453 547T420 469H317Q327 509 336 552T353 638T366 714H499L506 703ZM282 703Q273 668 259 628T229 547T196 469H93Q103 509 112 552T129 638T142 714H275L282 703Z" />
<glyph unicode="&#x201e;" horiz-adv-x="600" d="M326 -156Q337 -112 347 -59T365 46T380 136H517L524 125Q518 100 509 66T488 -6T462 -83T433 -156H326ZM370 -156Q381 -112 391 -59T409 46T424 136H561L568 125Q562 100 553 66T532 -6T506 -83T477 -156H370Z" />
<glyph unicode="&#x2022;" horiz-adv-x="600" d="M300 213Q242 213 203 248T163 365Q163 448 202 482T300 517Q338 517 369 502T418 454T437 365Q437 311 419 278T369 229T300 213Z" />
<glyph unicode="&#x2039;" horiz-adv-x="600" d="M339 47L159 266V279L339 499L441 443L305 273L441 103L339 47Z" />
<glyph unicode="&#x203a;" horiz-adv-x="600" d="M260 512L440 293V280L260 60L158 116L294 286L158 456L260 512Z" />
</font>
</defs>
</svg>
