<?xml version="1.0" encoding="utf-8"?>
<svg version="1.1" id="Layer_1" xmlns="http://www.w3.org/2000/svg" xmlns:xlink="http://www.w3.org/1999/xlink" x="0px" y="0px" viewBox="0 0 450 450" style="enable-background:new 0 0 450 450;" xml:space="preserve">
<style type="text/css">
	.st0{enable-background:new;}
	.st1{fill:#00B4CC;}
	.st2{fill:#5FECFF;}
</style>
<g class="st0">
	<g>
		<path class="st1" d="M124.61,169.81c-12.54-7.24-27.48-10.84-44.85-10.87c-17.36,0.03-32.27,3.63-44.72,10.87 c-12.45,7.24-18.63,15.89-18.62,25.94l-0.17,59.94c0.1,10.06,6.37,18.7,18.91,25.94c3.15,1.82,6.45,3.4,9.89,4.76 c0.01,0,0.03,0.01,0.04,0.02c2.38,0.94,4.84,1.77,7.36,2.48c0.8,0.23,1.64,0.4,2.46,0.6c0.57,0.14,1.14,0.29,1.72,0.42 c0.69,0.16,1.35,0.36,2.04,0.5c1.93,0.4,3.89,0.74,5.9,1.02c0.71,0.1,1.45,0.15,2.17,0.24c0.49,0.06,0.99,0.11,1.49,0.17 c0.79,0.08,1.56,0.2,2.37,0.27c2.13,0.18,4.31,0.29,6.53,0.34c0.96,0.03,1.92,0.04,2.89,0.04c1.33,0,2.65-0.03,3.96-0.07 c2.46-0.08,4.87-0.24,7.22-0.47c0.29-0.03,0.56-0.09,0.85-0.12c0.6-0.06,1.17-0.17,1.76-0.24c1.74-0.22,3.49-0.41,5.17-0.71 c0.9-0.17,1.71-0.46,2.59-0.64c1.87-0.39,3.7-0.86,5.5-1.36c0.98-0.28,2.04-0.44,3-0.74c1.11-0.36,2.14-0.82,3.22-1.22 c0.9-0.33,1.81-0.66,2.69-1.02c3.04-1.26,5.99-2.64,8.78-4.26c0.35-0.2,0.69-0.41,1.02-0.61c0.5-0.3,0.91-0.62,1.39-0.93 c0.88-0.57,1.76-1.13,2.57-1.71c0.6-0.43,1.14-0.87,1.7-1.31c0.74-0.58,1.46-1.16,2.13-1.75c0.2-0.18,0.45-0.35,0.64-0.53 c0.24-0.23,0.41-0.47,0.65-0.7c0.88-0.85,1.68-1.72,2.42-2.61c0.2-0.25,0.48-0.48,0.67-0.73c0.13-0.17,0.21-0.34,0.34-0.5 c0.48-0.64,0.9-1.3,1.31-1.95c0.23-0.36,0.51-0.7,0.72-1.06c0.08-0.14,0.12-0.29,0.2-0.42c0.3-0.56,0.54-1.13,0.8-1.71 c0.19-0.43,0.44-0.84,0.6-1.28c0.05-0.14,0.08-0.29,0.13-0.44c0.2-0.58,0.35-1.17,0.5-1.75c0.12-0.45,0.29-0.88,0.38-1.34 c0.03-0.15,0.02-0.3,0.05-0.45c0.13-0.7,0.18-1.43,0.24-2.14c0.04-0.43,0.13-0.85,0.15-1.3c0.01-0.24,0.01-0.48,0.01-0.73 l0.17-59.94C143.42,185.7,137.15,177.05,124.61,169.81z"/>
		<path class="st1" d="M429.41,202.85c0.1-2.37,0.26-4.73,0.25-7.1c-0.18-32.64-11.04-64.62-32.55-95.86 c-21.52-31.22-53.83-59.28-96.93-84.16l-41,23.83l-0.17,59.94c37.28,21.52,65.31,45.87,84.04,73.06 c12.33,17.9,20.59,36.03,24.89,54.38c-4.26,17.53-12.18,34.84-23.78,51.95c-18.43,27.19-46.18,51.53-83.22,73.06l-0.17,59.94 l41.32,23.86c2.29-1.33,4.56-2.68,6.79-4.03c1.48-0.89,2.83-1.82,4.28-2.72c2.6-1.62,5.17-3.25,7.69-4.89 c2.45-1.6,4.83-3.22,7.2-4.85c2.43-1.67,4.83-3.35,7.17-5.05c2.28-1.65,4.5-3.32,6.69-4.99c2.25-1.72,4.48-3.45,6.64-5.2 c2.11-1.7,4.17-3.42,6.2-5.15c2.08-1.77,4.13-3.55,6.12-5.35c0.9-0.81,1.88-1.6,2.76-2.42c0.8-0.75,1.49-1.53,2.28-2.27 c3.03-2.88,5.94-5.79,8.75-8.73c1.27-1.33,2.58-2.65,3.8-3.99c3.68-4.02,7.19-8.09,10.46-12.23c0.16-0.2,0.35-0.4,0.51-0.6 c0.03-0.03,0.04-0.06,0.07-0.09c3.01-3.84,5.85-7.72,8.52-11.66c3.06-4.52,5.83-9.06,8.45-13.61c0.27-0.47,0.61-0.94,0.88-1.42 c0.66-1.17,1.19-2.34,1.82-3.52c1.29-2.4,2.56-4.81,3.73-7.22c0.85-1.76,1.64-3.52,2.43-5.28c1.06-2.38,2.07-4.75,3.01-7.14 c0.35-0.89,0.79-1.77,1.12-2.66c0.36-0.95,0.61-1.9,0.94-2.85c0.76-2.14,1.46-4.28,2.13-6.42c0.59-1.89,1.14-3.79,1.65-5.68 c0.58-2.15,1.1-4.31,1.58-6.47c0.24-1.1,0.58-2.19,0.8-3.3c0.16-0.8,0.23-1.6,0.38-2.4c0.4-2.18,0.73-4.37,1.03-6.56 c0.26-1.9,0.52-3.8,0.71-5.7c0.22-2.2,0.35-4.41,0.48-6.62c0.07-1.26,0.23-2.52,0.27-3.79c0.04-1.31,0.06-2.62,0.06-3.94 l0.17-59.95C429.65,198.97,429.49,200.91,429.41,202.85z M407.7,276.05c0.59-1.05,1.16-2.11,1.72-3.16 c-0.03,0.06-0.06,0.12-0.09,0.18C408.79,274.07,408.25,275.06,407.7,276.05z M414.12,263.53c0.5-1.07,0.99-2.13,1.46-3.2 c-0.03,0.08-0.06,0.15-0.1,0.23C415.05,261.55,414.59,262.54,414.12,263.53z M419.28,251.34c0.48-1.26,0.95-2.51,1.4-3.76 c-0.04,0.11-0.07,0.22-0.11,0.33C420.16,249.05,419.72,250.2,419.28,251.34z M423.35,239.23c0.38-1.28,0.76-2.55,1.1-3.83 c-0.04,0.14-0.06,0.27-0.1,0.41C424.04,236.95,423.69,238.09,423.35,239.23z M426.39,227.1c0.27-1.31,0.55-2.62,0.79-3.94 c-0.03,0.16-0.05,0.32-0.08,0.47C426.89,224.79,426.63,225.94,426.39,227.1z M428.4,214.99c0.17-1.39,0.36-2.77,0.49-4.16 c-0.02,0.18-0.02,0.37-0.04,0.55C428.73,212.58,428.55,213.78,428.4,214.99z"/>
		<path class="st1" d="M266.15,306.63c0.89-1.45,1.82-2.9,2.64-4.36c0.1-0.18,0.18-0.37,0.29-0.55c0.88-1.57,1.65-3.15,2.44-4.73 c0.53-1.06,1.11-2.11,1.61-3.17c0.81-1.74,1.5-3.48,2.2-5.22c0.34-0.84,0.75-1.67,1.06-2.51c0.03-0.07,0.04-0.13,0.07-0.2 c0.4-1.07,0.7-2.13,1.06-3.2c0.5-1.49,1.04-2.98,1.46-4.48c0.32-1.12,0.54-2.24,0.82-3.36c0.32-1.32,0.7-2.65,0.97-3.98 c0.02-0.12,0.03-0.24,0.06-0.36c0.22-1.13,0.36-2.26,0.54-3.39c0.23-1.44,0.48-2.87,0.64-4.31c0.13-1.17,0.17-2.33,0.25-3.5 c0.09-1.22,0.23-2.44,0.26-3.67c0.01-0.37,0.02-0.75,0.03-1.12c0.01-0.35,0.01-0.7,0.01-1.06l0.17-59.95c0,0.35,0,0.7-0.01,1.06 c0.31-20.9-6.69-41.53-21.17-61.83c-14.43-20.28-36.49-39.01-66.12-56.11l-41,23.83l-0.17,59.95 c33.31,19.23,54.83,40.14,64.67,62.72c-10.16,23.77-32.48,45.73-67.09,65.84l-0.17,59.95l41.25,23.81 c1.75-1.02,3.47-2.04,5.16-3.06c0.86-0.52,1.64-1.05,2.48-1.57c2.12-1.31,4.19-2.63,6.23-3.96c1.54-1,3.07-2.01,4.56-3.02 c2-1.36,3.94-2.73,5.86-4.11c1.4-1.01,2.81-2.01,4.17-3.03c1.91-1.44,3.75-2.89,5.57-4.35c1.23-0.98,2.49-1.96,3.68-2.96 c1.91-1.59,3.72-3.21,5.52-4.82c0.83-0.74,1.73-1.47,2.54-2.22c0.14-0.13,0.25-0.26,0.39-0.39c3.06-2.85,5.95-5.74,8.69-8.66 c0.7-0.74,1.34-1.5,2.01-2.25c2.04-2.25,3.99-4.52,5.84-6.82c0.4-0.5,0.87-0.97,1.25-1.47c0.93-1.18,1.83-2.37,2.71-3.57 c1.8-2.46,3.49-4.92,5.08-7.39C265.18,308.27,265.64,307.45,266.15,306.63z M200.48,135.64c-0.83-0.89-1.62-1.78-2.48-2.66 C198.87,133.86,199.66,134.75,200.48,135.64z M225.22,190.36c-0.03-1.04-0.05-2.07-0.13-3.1 C225.17,188.28,225.19,189.32,225.22,190.36z M224.75,183.95c-0.12-1.02-0.23-2.04-0.4-3.05 C224.52,181.91,224.63,182.93,224.75,183.95z M223.71,177.63c-0.21-1-0.41-2-0.66-3C223.3,175.63,223.5,176.63,223.71,177.63z M222.1,171.38c-0.3-0.98-0.58-1.96-0.93-2.94C221.51,169.41,221.8,170.4,222.1,171.38z M219.92,165.22 c-0.39-0.97-0.76-1.94-1.19-2.89C219.16,163.28,219.53,164.25,219.92,165.22z M217.18,159.16c-0.48-0.96-0.94-1.92-1.46-2.87 C216.24,157.24,216.7,158.2,217.18,159.16z M213.86,153.16c-0.57-0.94-1.11-1.88-1.72-2.82 C212.75,151.28,213.3,152.22,213.86,153.16z M209.97,147.23c-0.65-0.92-1.28-1.85-1.97-2.76 C208.69,145.38,209.32,146.31,209.97,147.23z M205.51,141.39c-0.74-0.9-1.45-1.81-2.23-2.71 C204.06,139.58,204.77,140.49,205.51,141.39z M171.21,110.96c1.04,0.71,2.01,1.43,3.02,2.15 C173.22,112.4,172.25,111.67,171.21,110.96z M178.76,116.35c1.03,0.77,1.99,1.55,2.99,2.33 C180.75,117.9,179.79,117.12,178.76,116.35z M194.84,129.92c-0.89-0.85-1.75-1.72-2.69-2.57 C193.09,128.21,193.95,129.07,194.84,129.92z M188.59,124.26c-0.95-0.82-1.86-1.63-2.85-2.45 C186.73,122.62,187.64,123.44,188.59,124.26z M165.85,107.46c-0.93-0.6-1.81-1.2-2.76-1.8 C164.04,106.26,164.92,106.86,165.85,107.46z"/>
	</g>
	<g>
		<path class="st2" d="M124.61,169.81c12.54,7.24,18.81,15.88,18.91,25.94c0.01,10.06-6.17,18.7-18.62,25.94 s-27.36,10.84-44.72,10.87c-17.36-0.03-32.31-3.63-44.85-10.87c-12.54-7.24-18.81-15.89-18.91-25.94 c-0.01-10.06,6.17-18.7,18.62-25.94s27.36-10.84,44.72-10.87C97.13,158.97,112.08,162.57,124.61,169.81z"/>
		<path class="st2" d="M282.7,194.56c-0.35,20.93-8,41.58-22.96,61.97c-15,20.36-37.22,39.14-66.65,56.25l-41.27-23.83 c48-27.89,72.49-59.31,73.46-94.26c1.07-34.94-22.56-66.36-70.87-94.25l41-23.83c29.63,17.1,51.68,35.84,66.12,56.11 C276.01,153.03,283.01,173.66,282.7,194.56z"/>
		<path class="st2" d="M398.19,291.61c-21.16,31.23-53.11,59.31-95.93,84.2l-41.32-23.85c37.04-21.52,64.79-45.87,83.22-73.06 s27.63-54.89,27.47-83.14s-9.67-55.95-28.41-83.14c-18.73-27.19-46.76-51.53-84.04-73.06l41-23.83 c43.1,24.88,75.41,52.94,96.93,84.17s32.37,63.22,32.55,95.85C429.84,228.39,419.35,260.38,398.19,291.61z"/>
	</g>
</g>
</svg>
