<?xml version="1.0" encoding="utf-8"?>
<svg version="1.1" id="Layer_1" xmlns="http://www.w3.org/2000/svg" xmlns:xlink="http://www.w3.org/1999/xlink" x="0px" y="0px" viewBox="0 0 256 256" style="enable-background:new 0 0 256 256;" xml:space="preserve">
<style type="text/css">
	.st0{fill:#FDC134;}
	.st1{fill:#FFFFFF;}
</style>
<circle class="st0" cx="128" cy="128" r="128"/>
<path class="st1" d="M130,137.1h48.6c1,0,1.5,0,1.6-1.4c0.4-4.9,0.4-9.9,0-14.9c0-1-0.5-1.4-1.5-1.4H81.9c-1.2,0-1.5,0.4-1.5,1.5 v14.2c0,1.8,0,1.8,1.9,1.8C82.3,137.1,130,137.1,130,137.1z M174.8,102.8c0.1-0.4,0.1-0.8,0-1.1c-0.8-1.8-1.8-3.5-2.9-5 c-1.7-2.7-3.7-5.2-5.9-7.4c-1.1-1.4-2.3-2.6-3.7-3.6c-6.9-5.9-15.2-10.1-24-12.2c-4.5-1-9-1.5-13.6-1.4h-43c-1.2,0-1.4,0.5-1.4,1.5 V102c0,1.2,0,1.5,1.5,1.5h92.3c0,0,0.8-0.2,1-0.6h-0.3V102.8z M174.8,153.7c-1.4-0.1-2.7-0.1-4.1,0H82c-1.2,0-1.6,0-1.6,1.6v27.8 c0,1.3,0,1.6,1.6,1.6h41c2,0.1,3.9,0,5.8-0.4c5.9-0.4,11.8-1.7,17.4-3.8c2-0.7,4-1.6,5.8-2.7h0.6c9.6-5,17.4-12.8,22.3-22.5 C174.9,155.2,175.4,154,174.8,153.7L174.8,153.7z M64.3,199.1v-0.5V180v-6.3v-18.8c0-1,0-1.2-1.3-1.2H45.7c-1,0-1.4,0-1.4-1.3v-15.2 h18.6c1,0,1.4,0,1.4-1.4v-15c0-1,0-1.2-1.3-1.2H45.7c-1,0-1.4,0-1.4-1.3v-14.1c0-0.9,0-1.1,1.3-1.1h17.2c1.2,0,1.5,0,1.5-1.5V58.4 c0-1.3,0-1.6,1.6-1.6h60c4.4,0.2,8.7,0.7,13,1.4c8.8,1.6,17.3,4.8,25,9.3c5.1,3,9.9,6.7,14.1,10.9c3.2,3.3,6,6.8,8.6,10.6 c2.5,3.8,4.6,7.9,6.2,12.2c0.2,1.1,1.3,1.9,2.4,1.7h14.3c1.8,0,1.8,0,1.9,1.8v13.1c0,1.3-0.5,1.6-1.8,1.6h-11c-1.1,0-1.4,0-1.4,1.4 c0.4,4.9,0.4,9.8,0,14.6c0,1.4,0,1.5,1.5,1.5h12.6c0.6,0.7,0,1.4,0,2.2c0.1,0.9,0.1,1.9,0,2.8v9.7c0,1.4-0.4,1.8-1.6,1.8h-15.1 c-1.1-0.2-2.1,0.5-2.3,1.5c-3.6,9.4-9.4,17.8-16.8,24.5c-2.7,2.4-5.6,4.8-8.6,6.9c-3.2,1.8-6.3,3.8-9.6,5.3c-6,2.7-12.4,4.7-18.9,6 c-6.2,1.1-12.4,1.6-18.7,1.5H64.3L64.3,199.1L64.3,199.1z"/>
</svg>