<?xml version="1.0" encoding="utf-8"?>
<svg version="1.1" id="Layer_1" xmlns="http://www.w3.org/2000/svg" xmlns:xlink="http://www.w3.org/1999/xlink" x="0px" y="0px" viewBox="0 0 450 450" style="enable-background:new 0 0 450 450;" xml:space="preserve">
<style type="text/css">
	.st0{fill:#00B4CC;}
	.st1{fill:#5FECFF;}
</style>
<g>
	<path class="st0" d="M433.25,136.75c-11.02-15.94-27.52-30.28-49.5-42.97C361.82,81.12,337,71.61,309.4,65.24 c-27.6-6.36-55.68-9.51-84.13-9.51c-28.56,0-56.55,3.18-84.08,9.54c-27.53,6.3-52.19,15.84-74.03,28.53 c-21.79,12.66-38.18,26.98-49.02,42.97c-10.89,15.97-16.29,32.19-16.15,48.7c0-0.29,0-0.58,0-0.87l-0.2,70.34c0,0.29,0,0.58,0,0.87 c0.04,16.51,5.62,32.73,16.69,48.7c11.02,16,27.57,30.31,49.5,42.97l84.96,49.05l23.65-13.74l0.2-70.34l-23.03-13.3 c2.37,1.33,4.77,2.62,7.27,3.81c0.98,0.47,2.03,0.87,3.04,1.32c1.88,0.84,3.72,1.7,5.67,2.47c0.13,0.05,0.28,0.09,0.42,0.14 c3.93,1.53,8.03,2.89,12.26,4.13c0.37,0.11,0.69,0.25,1.06,0.36c2.61,0.74,5.27,1.43,7.99,2.06c1.28,0.3,2.56,0.59,3.85,0.85 c1.71,0.35,3.44,0.61,5.17,0.9c0.93,0.16,1.85,0.35,2.79,0.49c0.3,0.04,0.59,0.11,0.89,0.15c2.78,0.39,5.57,0.71,8.39,0.94 c0.27,0.02,0.54,0.02,0.8,0.04c0.75,0.06,1.51,0.08,2.26,0.12c1.8,0.11,3.59,0.24,5.4,0.29c0.9,0.02,1.81-0.02,2.71-0.01 c1.18,0.01,2.37,0,3.56-0.02c0.95-0.01,1.88,0.02,2.84-0.01c1.38-0.05,2.77-0.15,4.16-0.23l-0.03,11.1 c-0.01,3.76,0.96,7.53,2.9,11.31c3.83,7.54,10.57,14.09,20.1,19.6c3.84,2.22,7.87,4.15,12.07,5.81c0.08,0.03,0.14,0.08,0.22,0.11 c2.92,1.15,5.93,2.16,9.02,3.04c0.79,0.22,1.61,0.39,2.41,0.59c0.69,0.18,1.39,0.35,2.1,0.51c1.01,0.24,1.99,0.53,3.01,0.74 c2.32,0.48,4.69,0.89,7.1,1.23c0.62,0.09,1.27,0.13,1.9,0.21c0.57,0.07,1.14,0.13,1.71,0.19c1.2,0.13,2.38,0.3,3.6,0.4 c2.55,0.21,5.15,0.35,7.79,0.42c0.84,0.02,1.67,0.03,2.52,0.04c1.98,0.01,3.94-0.01,5.87-0.08c2.82-0.09,5.58-0.28,8.28-0.55 c0.15-0.01,0.3-0.05,0.45-0.06c0.41-0.04,0.8-0.12,1.2-0.17c2.46-0.28,4.91-0.58,7.28-1.01c0.97-0.17,1.85-0.5,2.81-0.7 c2.12-0.44,4.18-0.98,6.22-1.54c1.24-0.34,2.57-0.55,3.78-0.94c1.25-0.4,2.41-0.93,3.62-1.38c1.04-0.39,2.09-0.76,3.11-1.18 c3.58-1.48,7.08-3.09,10.37-5.01l20.91-12.15c1.17-0.68,2.33-1.37,3.47-2.06c0.75-0.45,1.44-0.93,2.18-1.38 c1.33-0.83,2.65-1.66,3.94-2.51c1.25-0.82,2.46-1.64,3.67-2.47c1.24-0.86,2.47-1.71,3.67-2.59c1.17-0.84,2.3-1.7,3.43-2.56 c1.15-0.88,2.28-1.76,3.39-2.65c1.08-0.87,2.14-1.75,3.17-2.63c1.07-0.91,2.11-1.82,3.13-2.74c0.47-0.42,0.98-0.84,1.45-1.26 c0.4-0.37,0.75-0.76,1.14-1.14c1.56-1.48,3.06-2.99,4.51-4.5c0.64-0.67,1.3-1.33,1.91-2c1.99-2.17,3.89-4.37,5.65-6.61 c0,0,0,0,0.01-0.01c1.52-1.93,2.95-3.89,4.3-5.88c1.62-2.38,3.09-4.77,4.46-7.17c0.15-0.26,0.34-0.52,0.49-0.78 c0.34-0.6,0.61-1.21,0.93-1.81c0.64-1.2,1.28-2.4,1.86-3.6c0.45-0.92,0.87-1.85,1.28-2.77c0.53-1.19,1.04-2.38,1.51-3.58 c0.18-0.46,0.41-0.91,0.58-1.37c0.19-0.5,0.32-1,0.5-1.5c0.38-1.07,0.73-2.15,1.07-3.22c0.31-0.99,0.59-1.98,0.86-2.97 c0.29-1.07,0.55-2.15,0.79-3.23c0.12-0.54,0.29-1.08,0.4-1.62c0.09-0.45,0.13-0.9,0.21-1.35c0.2-1.09,0.36-2.18,0.52-3.27 c0.14-1,0.26-1.99,0.36-2.99c0.11-1.1,0.18-2.19,0.24-3.29c0.03-0.61,0.11-1.21,0.13-1.82c0.02-0.8,0.03-1.59,0.03-2.39l0.2-70.34 C449.85,168.98,444.32,152.72,433.25,136.75z M44.82,220.18c1.16-1.98,2.27-3.98,3.63-5.92c0.32-0.45,0.65-0.9,0.98-1.35 c2.16-2.96,4.51-5.87,7.17-8.71c0.13-0.14,0.29-0.28,0.43-0.43c2.59-2.75,5.45-5.44,8.5-8.09c0.44-0.38,0.87-0.77,1.32-1.15 c3.08-2.6,6.4-5.14,9.92-7.63c0.59-0.41,1.17-0.83,1.77-1.24c3.84-2.64,7.88-5.24,12.23-7.77c4.18-2.43,8.49-4.67,12.86-6.83 c1.27-0.62,2.55-1.22,3.83-1.82c3.38-1.59,6.82-3.1,10.31-4.53c1.22-0.5,2.42-1.02,3.65-1.5c3.03-1.18,6.15-2.22,9.25-3.29 c-6.28,7.77-9.5,16.24-9.39,25.43c0-0.2,0-0.4,0-0.6l-0.2,70.34c0,0.2,0,0.4,0,0.6c0.25,16.21,10.33,30.21,30.04,41.94 l-59.27-34.22C69.51,250.53,53.95,236.09,44.82,220.18z M273.85,244.45c-0.04,0.03-0.09,0.06-0.12,0.09 c0.14-0.13,0.26-0.27,0.41-0.39C274.02,244.24,273.96,244.35,273.85,244.45z M270.46,248.17c-0.11,0.15-0.21,0.31-0.31,0.47 c0.11-0.17,0.22-0.35,0.34-0.52C270.48,248.13,270.48,248.15,270.46,248.17z M268.19,253.02c0.04-0.17,0.09-0.33,0.14-0.5 C268.28,252.69,268.23,252.85,268.19,253.02z M161.65,167.61c0.43-0.51,0.81-1.04,1.28-1.54 C162.46,166.57,162.08,167.1,161.65,167.61z M165.74,163.39c0.26-0.23,0.48-0.47,0.74-0.7c-0.25,0.22-0.45,0.44-0.7,0.66 C165.77,163.37,165.75,163.38,165.74,163.39z M170,159.98c0.24-0.17,0.44-0.35,0.68-0.52c-0.23,0.16-0.42,0.34-0.65,0.5 C170.02,159.97,170.01,159.98,170,159.98z M159.09,171.11c-0.01,0.01-0.01,0.02-0.02,0.03c0.32-0.52,0.6-1.04,0.96-1.55 C159.68,170.09,159.41,170.6,159.09,171.11z M157.21,174.61c-0.02,0.04-0.03,0.07-0.05,0.11c0.21-0.48,0.38-0.98,0.62-1.45 C157.56,173.7,157.41,174.16,157.21,174.61z M155.86,178.42c-0.01,0.05-0.03,0.1-0.04,0.15c0.13-0.5,0.21-1,0.37-1.49 C156.05,177.52,155.98,177.97,155.86,178.42z M155.1,182.76c0,0.02-0.01,0.04-0.01,0.06c0.05-0.59,0.06-1.2,0.15-1.78 C155.16,181.61,155.15,182.19,155.1,182.76z M226.39,226.65c-13.68-0.07-25.96-2.22-36.98-6.28c1.99-0.71,4.03-1.36,6.1-1.94 c2.02-0.57,4.08-1.09,6.18-1.53c2.85-0.6,5.74-1.16,8.74-1.54c0.66-0.08,1.29-0.2,1.96-0.27c4.37-0.47,8.87-0.74,13.56-0.74 c4.59-0.01,8.99,0.25,13.28,0.7c0.54,0.06,1.09,0.12,1.63,0.18c3.92,0.46,7.71,1.13,11.38,1.98c0.64,0.15,1.27,0.31,1.9,0.46 c3.19,0.81,6.25,1.8,9.24,2.91C252.4,224.6,240.13,226.69,226.39,226.65z M340.01,275.57c-5.58,3.24-11.99,5.23-19.11,6.14 c0.27-0.32,0.63-0.62,0.88-0.95c0.21-0.27,0.35-0.56,0.56-0.83c0.81-1.07,1.51-2.17,2.2-3.27c0.37-0.59,0.84-1.16,1.18-1.75 c0.13-0.23,0.2-0.47,0.32-0.69c0.51-0.94,0.92-1.91,1.35-2.88c0.32-0.71,0.72-1.4,0.99-2.13c0.09-0.23,0.12-0.47,0.2-0.7 c0.35-0.99,0.59-2,0.86-3c0.2-0.74,0.48-1.47,0.64-2.22c0.04-0.22,0.04-0.46,0.08-0.69c0.22-1.19,0.31-2.42,0.41-3.64 c0.06-0.72,0.22-1.43,0.25-2.16c0.01-0.36,0.02-0.72,0.02-1.09l0.2-70.34c0.01-8.8-2.91-16.91-8.62-24.37 c2.28,0.81,4.66,1.46,6.9,2.33c0.27,0.11,0.55,0.19,0.82,0.29c3.37,1.33,6.61,2.84,9.89,4.31c1.76,0.79,3.58,1.49,5.31,2.32 c4.95,2.38,9.78,4.93,14.5,7.66c22.33,12.89,37.91,27.33,47.05,43.24c-9.04,15.53-24.24,29.65-45.97,42.28L340.01,275.57z"/>
	<path class="st1" d="M433.6,234.22c-10.84,15.94-27.18,30.28-49.02,42.97l-20.91,12.15c-14.72,8.56-32.38,12.76-52.98,12.6 c-20.59-0.16-38.36-4.58-53.45-13.3c-9.53-5.5-16.27-12.06-20.1-19.59c-3.89-7.57-3.87-15.11,0.09-22.59 c-15.86,1.24-31.08,0.13-45.76-3.34c-14.68-3.4-27.67-8.43-39.07-15.01c-20.61-11.9-31.07-26.18-31.32-42.75 c-0.2-16.54,9.99-30.82,30.46-42.72c20.53-11.93,45.21-17.91,74.09-18.04c28.89-0.06,53.69,5.88,74.29,17.78 c20.66,11.93,30.96,26.24,30.94,42.97c-0.07,16.76-10.31,31.08-30.84,43.01l-20.91,12.15c-8.16,4.74-12.02,10.43-11.55,17.05 c0.42,6.65,4.85,12.44,13.33,17.34c8.21,4.74,18.05,7.19,29.53,7.41c11.42,0.25,21.24-2,29.4-6.74l20.91-12.15 c37.33-21.7,55.97-47.65,55.8-77.93c-0.17-30.28-19.1-56.24-56.67-77.93c-37.58-21.69-82.45-32.57-134.73-32.57 c-52.23,0.03-97.03,10.88-134.36,32.57c-37.33,21.69-55.91,47.68-55.8,77.93c0.23,30.25,19.1,56.24,56.67,77.93l84.96,49.05 l-23.65,13.74l-84.96-49.05c-21.93-12.66-38.48-26.97-49.5-42.97C7.41,218.22,1.83,202,1.79,185.49 c-0.15-16.51,5.25-32.73,16.15-48.7c10.84-16,27.23-30.31,49.02-42.98c21.84-12.69,46.5-22.24,74.03-28.53 c27.53-6.36,55.52-9.54,84.08-9.54c28.45,0,56.53,3.15,84.13,9.51c27.6,6.36,52.42,15.87,74.35,28.53 c21.98,12.69,38.49,27.04,49.5,42.97c11.07,15.97,16.6,32.22,16.75,48.73C449.84,202,444.49,218.25,433.6,234.22z M226.19,226.65 c19.44,0.06,36.11-3.94,50.02-12.02c14.23-8.27,21.26-18.04,21.2-29.36c-0.06-11.32-7.09-21.03-21.14-29.14 c-13.99-8.08-30.82-12.15-50.32-12.12c-19.55,0-36.39,4.1-50.62,12.37c-13.9,8.08-20.77,17.75-20.59,29.01 c0.17,11.2,7.31,20.9,21.31,28.98C190.09,222.48,206.81,226.55,226.19,226.65"/>
</g>
</svg>
