<?xml version="1.0" encoding="UTF-8" standalone="no"?>
<svg
   width="120"
   height="120"
   viewBox="0 0 120 120"
   fill="none"
   version="1.1"
   id="svg6"
   sodipodi:docname="pointlogo.svg"
   inkscape:version="1.2.1 (9c6d41e4, 2022-07-14)"
   xmlns:inkscape="http://www.inkscape.org/namespaces/inkscape"
   xmlns:sodipodi="http://sodipodi.sourceforge.net/DTD/sodipodi-0.dtd"
   xmlns="http://www.w3.org/2000/svg"
   xmlns:svg="http://www.w3.org/2000/svg">
  <defs
     id="defs10" />
  <sodipodi:namedview
     id="namedview8"
     pagecolor="#ffffff"
     bordercolor="#000000"
     borderopacity="0.25"
     inkscape:showpageshadow="2"
     inkscape:pageopacity="0.0"
     inkscape:pagecheckerboard="0"
     inkscape:deskcolor="#d1d1d1"
     showgrid="false"
     inkscape:zoom="1.7167807"
     inkscape:cx="65.529627"
     inkscape:cy="63.490928"
     inkscape:window-width="1417"
     inkscape:window-height="686"
     inkscape:window-x="0"
     inkscape:window-y="25"
     inkscape:window-maximized="0"
     inkscape:current-layer="svg6" />
  <path
     fill-rule="evenodd"
     clip-rule="evenodd"
     d="M102.938 59.6719C102.938 83.1562 83.9067 102.141 60.4692 102.141C37.0317 102.141 18.0474 83.1094 18.0005 59.6719C18.0005 36.1875 36.9849 17.2031 60.4692 17.2031C83.9536 17.2031 102.938 36.2344 102.938 59.6719ZM38.7192 54.3281C38.1567 54 37.5005 53.8125 36.7974 53.8125H31.4536V66.2344H33.4692V61.5H36.7974C37.5005 61.5 38.1099 61.3125 38.7192 60.9844C39.2817 60.6094 39.7505 60.1406 40.1255 59.5781C40.4536 58.9688 40.6411 58.3125 40.6411 57.6094C40.6411 56.9062 40.5005 56.25 40.1255 55.6875C39.7974 55.125 39.3286 54.6562 38.7192 54.3281ZM37.688 59.3438C37.4067 59.5312 37.0786 59.625 36.7505 59.625V59.5781H33.4692V55.5937H36.7505C37.2661 55.5937 37.688 55.7812 38.063 56.1562C38.438 56.5312 38.6255 57 38.6255 57.5625C38.6255 57.9375 38.5317 58.2656 38.3442 58.5938C38.2036 58.9219 37.9692 59.1562 37.688 59.3438ZM56.4849 60.0469C56.4849 60.9375 56.3442 61.7812 56.0161 62.5781C55.688 63.3281 55.2661 64.0312 54.6567 64.5938C54.0942 65.1562 53.3911 65.625 52.5942 65.9531C51.7974 66.2812 50.9536 66.4219 50.0161 66.4219C49.0786 66.4219 48.188 66.2812 47.438 65.9531C46.6411 65.625 45.9849 65.1562 45.3755 64.5938C44.813 64.0312 44.3442 63.3281 44.0161 62.5781C43.688 61.7812 43.5474 60.9375 43.5474 60.0469C43.5474 59.1563 43.688 58.3125 44.0161 57.5625C44.3442 56.7656 44.7661 56.1094 45.3755 55.5469C45.938 54.9844 46.6411 54.5156 47.438 54.1875C48.2349 53.8594 49.0786 53.6719 50.0161 53.6719C50.9536 53.6719 51.7974 53.8594 52.5942 54.1875C53.3911 54.5156 54.0474 54.9375 54.6567 55.5469C55.2661 56.1094 55.688 56.8125 56.0161 57.5625C56.2974 58.3125 56.4849 59.1094 56.4849 60.0469ZM54.3755 60.0469C54.3755 59.2031 54.188 58.4062 53.813 57.75C53.438 57.0469 52.9224 56.5312 52.2661 56.1562C51.6099 55.7344 50.8599 55.5469 50.0161 55.5469C49.1724 55.5469 48.3755 55.7344 47.7192 56.1562C47.063 56.5312 46.5474 57.0938 46.1724 57.75C45.7974 58.4062 45.6099 59.2031 45.6099 60.0469C45.6099 60.8906 45.7974 61.6875 46.1724 62.3906C46.5474 63.0469 47.063 63.6094 47.7192 63.9844C48.3755 64.3594 49.1724 64.5469 50.0161 64.5469C50.8599 64.5469 51.6099 64.3594 52.2661 63.9844C52.9224 63.5625 53.438 63.0469 53.813 62.3438C54.188 61.6406 54.3755 60.8906 54.3755 60.0469ZM83.064 55.6875V66.2344H85.1265V55.6875H88.9233V53.8594H79.3608V55.6875H83.064ZM61.8286 53.8125H59.7661V55.5937V64.4531V66.2344H61.8286V64.4531V55.5937V53.8125ZM74.438 57.8906V53.8594H76.5005V66.2812H74.6255L67.2661 57.1875V61.0781V61.8281V66.2344H65.2505V53.8125H67.0786L74.4849 63.1406V59.9062C74.438 59.2032 74.438 58.547 74.438 57.8908V57.8906Z"
     fill="white"
     id="path2" />
  <path
     d="M60 0C26.8594 0 0 26.8594 0 60C0 93.1406 26.8594 120 60 120C93.1406 120 120 93.1406 120 60C120 26.8594 93.1406 0 60 0ZM60 112.406C31.0313 112.406 7.59375 88.9219 7.59375 60C7.59375 31.0781 31.0313 7.59375 60 7.59375C88.9687 7.59375 112.453 31.0313 112.453 60C112.453 88.9687 88.9687 112.406 60 112.406Z"
     fill="white"
     id="path4" />
  <path
     d="m 59.745763,0 c -33.1406,0 -60.00000029,26.8594 -60.00000029,60 0,33.1406 26.85940029,60 60.00000029,60 33.1406,0 59.999997,-26.8594 59.999997,-60 0,-33.1406 -26.859397,-60 -59.999997,-60 z m 0,112.406 C 30.777063,112.406 7.3395127,88.9219 7.3395127,60 c 0,-28.9219 23.4375503,-52.40625 52.4062503,-52.40625 28.9687,0 52.452997,23.43755 52.452997,52.40625 0,28.9687 -23.484297,52.406 -52.452997,52.406 z"
     fill="#ffffff"
     id="path116" />
</svg>
