<?xml version="1.0" encoding="utf-8"?>
<svg version="1.1" id="Layer_1" xmlns="http://www.w3.org/2000/svg" xmlns:xlink="http://www.w3.org/1999/xlink" x="0px" y="0px" viewBox="0 0 450 450" style="enable-background:new 0 0 450 450;" xml:space="preserve">
<style type="text/css">
	.st0{fill:#00B4CC;}
	.st1{fill:#5FECFF;}
</style>
<path class="st0" d="M449.98,227.85c0.23-3.86-1.4-6.79-4.88-8.8l-11.25-6.5c0.09-0.19,0.2-0.38,0.27-0.57 c0.06-0.15,0.08-0.32,0.13-0.47c0.04-0.14,0.08-0.28,0.12-0.43c0.05-0.2,0.13-0.39,0.17-0.59c0.12-0.58,0.18-1.18,0.2-1.81 c0-0.02,0-0.04,0-0.06c0-0.1,0-0.2,0-0.3l0.16-58.14c0,0.1,0,0.2,0,0.3c0.11-3.78-1.72-6.76-5.43-8.9L236.59,30.23 c-3.49-2.01-8.55-2.95-15.2-2.8c-6.69,0.14-11.72,1.22-15.16,3.22L0.16,150.4l0,0L0,208.53h55.01l-0.12,43.06 c-0.01,3.8,1.69,6.69,5.07,8.64l163.54,94.42l0.36,68.17v0.07L443.92,295c0.08-0.05,0.16-0.1,0.25-0.15 c0.57-0.34,1.02-0.73,1.5-1.12c0.24-0.19,0.53-0.36,0.74-0.55c0.02-0.01,0.04-0.02,0.05-0.04c0.44-0.41,0.84-0.84,1.2-1.3 c0.13-0.17,0.24-0.36,0.36-0.54c0.08-0.12,0.16-0.24,0.24-0.36c0.08-0.13,0.18-0.25,0.26-0.38c0.25-0.44,0.46-0.9,0.64-1.38 c0.04-0.1,0.06-0.22,0.09-0.32c0.05-0.15,0.08-0.3,0.12-0.45c0.08-0.28,0.18-0.55,0.24-0.83c0.1-0.53,0.17-1.06,0.2-1.62 c0.01-0.12,0.01-0.24,0.02-0.36c0-0.1,0-0.21,0-0.31l0.16-58.14C450,227.4,449.99,227.62,449.98,227.85z M71.27,208.53l48.71,28.12 L71.27,208.53L71.27,208.53z M118.68,165.39L118.68,165.39l0,0.98L118.68,165.39z M76.02,132.14L76.02,132.14L76.02,132.14 L76.02,132.14z M282.11,219.05L153.8,144.98l67.9-39.46l0.16-58.14l0,0l-0.16,58.14l128.3,74.08L282.11,219.05z"/>
<path class="st1" d="M267,236.01L118.72,150.4l-118.55,0L206.23,30.65c3.44-2,8.47-3.08,15.16-3.22c6.65-0.14,11.72,0.79,15.2,2.8 l192.89,111.36c3.71,2.14,5.54,5.11,5.43,8.9c-0.09,3.8-1.98,6.77-5.67,8.91l-131.47,76.4c-3.44,2-8.52,3.08-15.19,3.21 C275.94,239.15,270.71,238.15,267,236.01z M76.02,132.14l55.58,0.01l150.52,86.9l118.16-68.67l-178.41-103L76.02,132.14"/>
<path class="st1" d="M449.98,227.85c-0.23,3.88-2.18,6.86-5.89,9.02L224.02,364.75l-0.36-68.24L60.12,202.1 c-3.46-2-5.16-4.97-5.07-8.9c0.09-3.93,1.89-6.9,5.33-8.9l36.19-21.03L282.4,270.55l125.54-72.96l37.16,21.45 C448.58,221.06,450.21,223.99,449.98,227.85z"/>
</svg>
