<?xml version="1.0" encoding="UTF-8"?>
<svg id="Layer_1" data-name="Layer 1" xmlns="http://www.w3.org/2000/svg" viewBox="0 0 450.1 396.7">
  <defs>
    <style>
      .cls-1 {
        fill: #00b4cc;
      }

      .cls-2 {
        fill: #5fecff;
      }
    </style>
  </defs>
  <path class="cls-1" d="M449.8,187.8c.1-.7,.3-1.4,.3-2.1,0-4.9-2.9-8.9-8.4-12.1L245.4,60.3c-5.5-3.2-12.5-4.8-21-4.8s-15.3,1.6-20.9,4.8L8.6,173.6c-5.6,3.2-8.4,7.3-8.4,12.2l-.2,80.5c.1,4.8,2.9,8.9,8.4,12.1l196.3,113.3c1.3,.8,2.7,1.4,4.1,2q.1,0,.2,.1c.2,.1,.4,.1,.6,.2,.8,.3,1.7,.6,2.6,.9,.5,.1,1,.3,1.6,.4,.2,.1,.5,.1,.7,.2,.2,0,.4,.1,.6,.2,.9,.2,1.9,.4,2.9,.5,.4,.1,.9,.1,1.3,.1,.3,0,.5,.1,.8,.1s.6,.1,.9,.1c1.1,.1,2.2,.2,3.4,.2h3.5c1.2,0,2.4-.1,3.6-.2h.2c.2,0,.4-.1,.6-.1,1-.1,2-.2,3-.4,.4-.1,.7-.2,1-.3,.9-.2,1.7-.4,2.5-.6,.5-.1,1.1-.2,1.5-.4,.3-.1,.5-.2,.7-.3,2-.7,4-1.5,5.7-2.5l194.9-113.3c.1-.1,.3-.2,.4-.3,.5-.3,.8-.6,1.3-.9,.7-.5,1.5-1,2.1-1.6,.1-.1,.2-.1,.3-.2,.6-.6,1.2-1.2,1.7-1.8,.1-.1,.2-.3,.3-.4,.1-.1,.2-.3,.3-.4,.2-.3,.4-.5,.5-.8,.3-.5,.5-1.1,.7-1.6,0-.1,.1-.2,.1-.3s.1-.3,.1-.4c.1-.3,.2-.6,.3-1,.1-.6,.2-1.2,.2-1.9v-.3l.2-80.5c0,.4-.2,1-.3,1.6Zm-3.5,6.5c.6-.6,1.1-1.1,1.6-1.7,0,0,0,.1-.1,.1-.4,.6-1,1.1-1.5,1.6Zm2.3-3.1c.3-.6,.7-1.2,.9-1.8v.1c-.2,.6-.6,1.1-.9,1.7Zm-205.5,19.6l-3-.4,2.4-1.4,.6,1.8Zm200.5-14.2l-.1,.1c-.6,.4-1.1,.8-1.7,1.2,.7-.4,1.2-.9,1.8-1.3Z"/>
  <path class="cls-2" d="M450.1,185.7c.1,4.8-2.7,8.9-8.3,12.1l-194.9,113.3c-5.6,3.2-12.5,4.9-21,4.9s-15.4-1.6-21-4.8L8.7,197.9c-5.5-3.2-8.3-7.3-8.4-12.1,0-4.9,2.8-8.9,8.4-12.2L203.5,60.3c5.6-3.2,12.5-4.9,20.9-4.8,8.4,0,15.4,1.6,21,4.8l196.3,113.3c5.5,3.2,8.3,7.3,8.4,12.1Z"/>
  <path class="cls-1" d="M375.69,125.18c.07-.49,.21-.97,.21-1.46,0-3.4-2.01-6.18-5.83-8.4L233.73,36.63c-3.82-2.22-8.68-3.33-14.58-3.33s-10.63,1.11-14.52,3.33L69.27,115.32c-3.89,2.22-5.83,5.07-5.83,8.47l-.14,55.91c.07,3.33,2.01,6.18,5.83,8.4l136.33,78.69c.9,.56,1.88,.97,2.85,1.39q.07,0,.14,.07c.14,.07,.28,.07,.42,.14,.56,.21,1.18,.42,1.81,.63,.35,.07,.69,.21,1.11,.28,.14,.07,.35,.07,.49,.14,.14,0,.28,.07,.42,.14,.63,.14,1.32,.28,2.01,.35,.28,.07,.63,.07,.9,.07,.21,0,.35,.07,.56,.07s.42,.07,.63,.07c.76,.07,1.53,.14,2.36,.14h2.43c.83,0,1.67-.07,2.5-.14h.14c.14,0,.28-.07,.42-.07,.69-.07,1.39-.14,2.08-.28,.28-.07,.49-.14,.69-.21,.63-.14,1.18-.28,1.74-.42,.35-.07,.76-.14,1.04-.28,.21-.07,.35-.14,.49-.21,1.39-.49,2.78-1.04,3.96-1.74l135.36-78.69c.07-.07,.21-.14,.28-.21,.35-.21,.56-.42,.9-.63,.49-.35,1.04-.69,1.46-1.11,.07-.07,.14-.07,.21-.14,.42-.42,.83-.83,1.18-1.25,.07-.07,.14-.21,.21-.28,.07-.07,.14-.21,.21-.28,.14-.21,.28-.35,.35-.56,.21-.35,.35-.76,.49-1.11,0-.07,.07-.14,.07-.21s.07-.21,.07-.28c.07-.21,.14-.42,.21-.69,.07-.42,.14-.83,.14-1.32v-.21l.14-55.91c0,.28-.14,.69-.21,1.11Zm-2.43,4.51c.42-.42,.76-.76,1.11-1.18,0,0,0,.07-.07,.07-.28,.42-.69,.76-1.04,1.11Zm1.6-2.15c.21-.42,.49-.83,.63-1.25v.07c-.14,.42-.42,.76-.63,1.18Zm-142.72,13.61l-2.08-.28,1.67-.97,.42,1.25Zm139.25-9.86l-.07,.07c-.42,.28-.76,.56-1.18,.83,.49-.28,.83-.63,1.25-.9Z"/>
  <path class="cls-2" d="M375.9,123.73c.07,3.33-1.88,6.18-5.76,8.4l-135.36,78.69c-3.89,2.22-8.68,3.4-14.58,3.4s-10.7-1.11-14.58-3.33L69.34,132.2c-3.82-2.22-5.76-5.07-5.83-8.4,0-3.4,1.94-6.18,5.83-8.47L204.63,36.63c3.89-2.22,8.68-3.4,14.52-3.33,5.83,0,10.7,1.11,14.58,3.33l136.33,78.69c3.82,2.22,5.76,5.07,5.83,8.4Z"/>
  <path class="cls-1" d="M322.4,64.76c.05-.34,.14-.69,.14-1.03,0-2.4-1.33-4.36-3.84-5.92L228.91,2.35C226.39,.79,223.19,0,219.3,0s-7,.78-9.56,2.35L120.59,57.81c-2.56,1.57-3.84,3.57-3.84,5.97l-.09,39.4c.05,2.35,1.33,4.36,3.84,5.92l89.79,55.45c.59,.39,1.23,.69,1.88,.98t.09,.05c.09,.05,.18,.05,.27,.1,.37,.15,.78,.29,1.19,.44,.23,.05,.46,.15,.73,.2,.09,.05,.23,.05,.32,.1,.09,0,.18,.05,.27,.1,.41,.1,.87,.2,1.33,.24,.18,.05,.41,.05,.59,.05,.14,0,.23,.05,.37,.05s.27,.05,.41,.05c.5,.05,1.01,.1,1.56,.1h1.6c.55,0,1.1-.05,1.65-.1h.09c.09,0,.18-.05,.27-.05,.46-.05,.91-.1,1.37-.2,.18-.05,.32-.1,.46-.15,.41-.1,.78-.2,1.14-.29,.23-.05,.5-.1,.69-.2,.14-.05,.23-.1,.32-.15,.91-.34,1.83-.73,2.61-1.22l89.15-55.45s.14-.1,.18-.15c.23-.15,.37-.29,.59-.44,.32-.24,.69-.49,.96-.78,.05-.05,.09-.05,.14-.1,.27-.29,.55-.59,.78-.88,.05-.05,.09-.15,.14-.2,.05-.05,.09-.15,.14-.2,.09-.15,.18-.24,.23-.39,.14-.24,.23-.54,.32-.78,0-.05,.05-.1,.05-.15s.05-.15,.05-.2c.05-.15,.09-.29,.14-.49,.05-.29,.09-.59,.09-.93v-.15l.09-39.4c0,.2-.09,.49-.14,.78Zm-1.6,3.18c.27-.29,.5-.54,.73-.83,0,0,0,.05-.05,.05-.18,.29-.46,.54-.69,.78Zm1.05-1.52c.14-.29,.32-.59,.41-.88v.05c-.09,.29-.27,.54-.41,.83Zm-94,9.59l-1.37-.2,1.1-.69,.27,.88Zm91.71-6.95l-.05,.05c-.27,.2-.5,.39-.78,.59,.32-.2,.55-.44,.82-.64Z"/>
  <path class="cls-2" d="M322.54,59.56c.05,2.2-1.24,4.07-3.8,5.53l-89.15,51.82c-2.56,1.46-5.72,2.24-9.61,2.24s-7.04-.73-9.61-2.2l-89.74-51.82c-2.52-1.46-3.8-3.34-3.84-5.53,0-2.24,1.28-4.07,3.84-5.58L209.74,2.2C212.3,.73,215.46-.04,219.3,0c3.84,0,7.04,.73,9.61,2.2l89.79,51.82c2.52,1.46,3.8,3.34,3.84,5.53Z"/>
</svg>