<?xml version="1.0" encoding="utf-8"?>
<svg version="1.1" id="Layer_1" xmlns="http://www.w3.org/2000/svg" xmlns:xlink="http://www.w3.org/1999/xlink" x="0px" y="0px" viewBox="0 0 450 450" style="enable-background:new 0 0 450 450;" xml:space="preserve">
<style type="text/css">
	.st0{fill:#00B4CC;}
	.st1{fill:#5FECFF;}
</style>
<path class="st0" d="M449.9,187.8c0.1-0.7,0.3-1.4,0.3-2.1c0-4.9-2.9-8.9-8.4-12.1L245.5,60.3c-5.5-3.2-12.5-4.8-21-4.8 c-8.4,0-15.3,1.6-20.9,4.8L8.7,173.6c-5.6,3.2-8.4,7.3-8.4,12.2l-0.2,80.5c0.1,4.8,2.9,8.9,8.4,12.1l196.3,113.3 c1.3,0.8,2.7,1.4,4.1,2c0.1,0,0.1,0,0.2,0.1c0.2,0.1,0.4,0.1,0.6,0.2c0.8,0.3,1.7,0.6,2.6,0.9c0.5,0.1,1,0.3,1.6,0.4 c0.2,0.1,0.5,0.1,0.7,0.2c0.2,0,0.4,0.1,0.6,0.2c0.9,0.2,1.9,0.4,2.9,0.5c0.4,0.1,0.9,0.1,1.3,0.1c0.3,0,0.5,0.1,0.8,0.1 c0.3,0,0.6,0.1,0.9,0.1c1.1,0.1,2.2,0.2,3.4,0.2c0.4,0,0.9,0,1.4,0c0.7,0,1.4,0,2.1,0c1.2,0,2.4-0.1,3.6-0.2c0.1,0,0.1,0,0.2,0 c0.2,0,0.4-0.1,0.6-0.1c1-0.1,2-0.2,3-0.4c0.4-0.1,0.7-0.2,1-0.3c0.9-0.2,1.7-0.4,2.5-0.6c0.5-0.1,1.1-0.2,1.5-0.4 c0.3-0.1,0.5-0.2,0.7-0.3c2-0.7,4-1.5,5.7-2.5l194.9-113.3c0.1-0.1,0.3-0.2,0.4-0.3c0.5-0.3,0.8-0.6,1.3-0.9c0.7-0.5,1.5-1,2.1-1.6 c0.1-0.1,0.2-0.1,0.3-0.2c0.6-0.6,1.2-1.2,1.7-1.8c0.1-0.1,0.2-0.3,0.3-0.4c0.1-0.1,0.2-0.3,0.3-0.4c0.2-0.3,0.4-0.5,0.5-0.8 c0.3-0.5,0.5-1.1,0.7-1.6c0-0.1,0.1-0.2,0.1-0.3c0-0.1,0.1-0.3,0.1-0.4c0.1-0.3,0.2-0.6,0.3-1c0.1-0.6,0.2-1.2,0.2-1.9 c0-0.1,0-0.2,0-0.3l0.2-80.5C450.2,186.6,450,187.2,449.9,187.8z M446.4,194.3c0.6-0.6,1.1-1.1,1.6-1.7c0,0,0,0.1-0.1,0.1 C447.5,193.3,446.9,193.8,446.4,194.3z M448.7,191.2c0.3-0.6,0.7-1.2,0.9-1.8c0,0,0,0.1,0,0.1C449.4,190.1,449,190.6,448.7,191.2z M243.2,210.8l-3-0.4l2.4-1.4L243.2,210.8z M443.7,196.6c0,0-0.1,0.1-0.1,0.1c-0.6,0.4-1.1,0.8-1.7,1.2 C442.6,197.5,443.1,197,443.7,196.6z"/>
<path class="st1" d="M450.2,185.7c0.1,4.8-2.7,8.9-8.3,12.1L247,311.1c-5.6,3.2-12.5,4.9-21,4.9c-8.4,0-15.4-1.6-21-4.8L8.8,197.9 c-5.5-3.2-8.3-7.3-8.4-12.1c0-4.9,2.8-8.9,8.4-12.2L203.6,60.3c5.6-3.2,12.5-4.9,20.9-4.8c8.4,0,15.4,1.6,21,4.8l196.3,113.3 C447.3,176.8,450.1,180.9,450.2,185.7z M126.5,196.1l149.2,18.8l-32.9-86.4L126.5,196.1"/>
</svg>
