<?xml version="1.0" encoding="utf-8"?>
<svg version="1.1" id="Layer_1" xmlns="http://www.w3.org/2000/svg" xmlns:xlink="http://www.w3.org/1999/xlink" x="0px" y="0px" viewBox="0 0 450 450" style="enable-background:new 0 0 450 450;" xml:space="preserve">
<style type="text/css">
	.st0{fill:#00B4CC;}
	.st1{fill:#5FECFF;}
</style>
<g>
	<g>
		<path class="st0" d="M449.94,193.62c0.32-3.7-1.95-7.46-6.85-10.28L244.17,68.48c-18.31-10.57-47.9-10.57-66.09,0L13.39,164.19 c-9.06,5.26-13.58,12.17-13.57,19.07c0-0.02-0.01-0.04-0.01-0.06l-0.2,71.43c-0.02,6.97,4.58,13.95,13.79,19.27l198.93,114.85 c1.1,0.63,2.24,1.23,3.42,1.79c0.39,0.19,0.81,0.35,1.21,0.53c0.69,0.31,1.38,0.63,2.09,0.91c0.08,0.03,0.18,0.06,0.26,0.09 c1.62,0.63,3.3,1.19,5.01,1.69c0.14,0.04,0.26,0.1,0.4,0.13c0.39,0.11,0.8,0.19,1.2,0.29c0.96,0.25,1.93,0.5,2.91,0.71 c0.26,0.06,0.51,0.13,0.77,0.19c0.38,0.08,0.78,0.13,1.17,0.2c0.82,0.16,1.65,0.3,2.49,0.43c0.33,0.05,0.65,0.12,0.98,0.17 c0.36,0.05,0.73,0.08,1.1,0.12c0.78,0.1,1.56,0.19,2.34,0.26c0.37,0.04,0.74,0.09,1.11,0.12c0.35,0.03,0.7,0.03,1.05,0.06 c0.79,0.05,1.58,0.1,2.38,0.13c0.4,0.02,0.79,0.05,1.19,0.06c0.32,0.01,0.63-0.01,0.95,0c0.86,0.01,1.71,0,2.57-0.01 c0.42-0.01,0.85,0.01,1.27-0.01c0.25-0.01,0.5-0.04,0.75-0.05c1.06-0.05,2.11-0.12,3.17-0.21c0.42-0.04,0.85-0.04,1.28-0.09 c0.13-0.01,0.26-0.04,0.38-0.05c1.79-0.19,3.57-0.43,5.32-0.74c0.09-0.02,0.18-0.02,0.27-0.04c0.51-0.09,1-0.22,1.51-0.32 c0.86-0.17,1.73-0.35,2.57-0.55c0.62-0.15,1.22-0.33,1.84-0.49c0.81-0.22,1.62-0.44,2.41-0.69c0.17-0.05,0.35-0.09,0.52-0.15 c0.29-0.09,0.55-0.22,0.83-0.31c1.25-0.43,2.47-0.89,3.66-1.39c0.45-0.19,0.89-0.37,1.33-0.57c1.52-0.69,3-1.41,4.4-2.22 l115.29-67c0.19-0.11,0.38-0.22,0.57-0.34c0.43-0.26,0.8-0.54,1.21-0.81c0.56-0.37,1.14-0.73,1.67-1.11 c0.46-0.34,0.88-0.69,1.31-1.04c0.48-0.39,0.98-0.78,1.42-1.18c0.09-0.08,0.2-0.15,0.28-0.23c0.6-0.56,1.16-1.13,1.68-1.7 c0.11-0.12,0.21-0.25,0.31-0.37c0.31-0.35,0.62-0.69,0.9-1.05c0.12-0.16,0.21-0.32,0.33-0.48c0.4-0.54,0.76-1.08,1.1-1.63 c0.14-0.23,0.33-0.45,0.46-0.68c0.07-0.12,0.1-0.24,0.17-0.36c0.26-0.48,0.47-0.97,0.68-1.46c0.12-0.28,0.29-0.56,0.4-0.85 c0.04-0.1,0.05-0.2,0.09-0.3c0.17-0.47,0.28-0.93,0.4-1.4c0.08-0.31,0.21-0.62,0.27-0.94c0.02-0.08,0.01-0.17,0.03-0.25 c0.09-0.49,0.13-0.99,0.17-1.48c0.03-0.32,0.1-0.63,0.11-0.95c0-0.14,0.01-0.27,0.01-0.41l0.09-30.35l2.6,1.5 c1.06,0.61,2.19,1.15,3.38,1.62c0.06,0.02,0.13,0.04,0.19,0.06c0.19,0.07,0.39,0.13,0.58,0.19c0.68,0.25,1.36,0.5,2.07,0.7 c0.38,0.11,0.78,0.19,1.17,0.29c0.22,0.05,0.44,0.11,0.67,0.16c0.2,0.05,0.4,0.11,0.6,0.15c0.76,0.16,1.53,0.29,2.31,0.4 c0.28,0.04,0.56,0.06,0.84,0.09c0.19,0.02,0.38,0.04,0.58,0.06c0.28,0.03,0.57,0.07,0.85,0.1c0.76,0.06,1.53,0.1,2.3,0.12 c0.24,0.01,0.49-0.01,0.73,0c0.21,0,0.41,0,0.62,0c0.35,0,0.69,0.01,1.04,0c0.87-0.03,1.73-0.09,2.59-0.17 c0.1-0.01,0.2-0.03,0.3-0.04c0.24-0.03,0.47-0.07,0.7-0.1c0.66-0.08,1.33-0.16,1.98-0.28c0.29-0.05,0.56-0.15,0.85-0.21 c0.8-0.16,1.57-0.37,2.34-0.58c0.41-0.11,0.84-0.18,1.24-0.31c0.33-0.11,0.64-0.25,0.96-0.36c0.31-0.11,0.61-0.22,0.91-0.34 c1.14-0.46,2.25-0.96,3.26-1.55c0.1-0.06,0.19-0.11,0.29-0.17c0.22-0.13,0.4-0.27,0.61-0.41c0.28-0.18,0.57-0.37,0.83-0.56 c0.23-0.17,0.44-0.34,0.65-0.52c0.25-0.2,0.5-0.39,0.72-0.59c0.05-0.04,0.1-0.08,0.15-0.12c0.09-0.08,0.15-0.18,0.24-0.26 c0.36-0.35,0.69-0.7,0.99-1.06c0.07-0.08,0.16-0.15,0.22-0.23c0.06-0.08,0.1-0.16,0.16-0.24c0.2-0.27,0.38-0.54,0.55-0.82 c0.07-0.11,0.16-0.23,0.23-0.34c0.03-0.06,0.05-0.12,0.08-0.17c0.13-0.24,0.24-0.48,0.34-0.73c0.06-0.14,0.14-0.28,0.2-0.42 c0.02-0.05,0.02-0.1,0.04-0.14c0.08-0.23,0.14-0.46,0.2-0.7c0.04-0.16,0.1-0.31,0.14-0.47c0.01-0.04,0.01-0.08,0.01-0.13 c0.04-0.24,0.06-0.49,0.08-0.73c0.01-0.16,0.05-0.32,0.05-0.48c0-0.07,0-0.14,0-0.2l0.2-71.43 C450,193.19,449.96,193.4,449.94,193.62z M200.4,94.75c0,0-0.01,0.01-0.01,0.01c0.03-0.04,0.04-0.08,0.06-0.12 C200.43,94.67,200.43,94.71,200.4,94.75z M199.81,95.96c0,0.01,0,0.02-0.01,0.02c0.01-0.03,0.01-0.07,0.02-0.1 C199.81,95.91,199.82,95.94,199.81,95.96z M201.52,93.47c-0.02,0.02-0.03,0.04-0.06,0.06c0,0,0,0,0,0 C201.48,93.51,201.49,93.49,201.52,93.47z M263.21,254.36C263.21,254.36,263.21,254.37,263.21,254.36 c0.02-0.18,0.02-0.38,0.05-0.57C263.23,253.98,263.23,254.17,263.21,254.36z M263.44,253.03c0,0,0,0.01,0,0.01 c0.05-0.18,0.08-0.36,0.13-0.53C263.52,252.68,263.49,252.86,263.44,253.03z M263.88,251.77 C263.88,251.77,263.88,251.77,263.88,251.77c0.07-0.17,0.13-0.35,0.22-0.52C264.02,251.42,263.96,251.59,263.88,251.77z M265.46,249.24C265.46,249.24,265.46,249.24,265.46,249.24c0.12-0.14,0.21-0.29,0.34-0.43 C265.68,248.95,265.58,249.1,265.46,249.24z M266.84,247.79C266.84,247.79,266.84,247.8,266.84,247.79 c0.04-0.04,0.08-0.08,0.13-0.13C266.93,247.7,266.89,247.75,266.84,247.79z M268.22,246.68 C268.22,246.68,268.21,246.68,268.22,246.68c0.04-0.03,0.09-0.07,0.14-0.11C268.31,246.6,268.27,246.64,268.22,246.68z M444.09,201.91c-0.29,0.19-0.57,0.39-0.88,0.57c0.32-0.19,0.6-0.39,0.9-0.58C444.1,201.9,444.1,201.9,444.09,201.91z M445.59,200.83c-0.11,0.09-0.22,0.17-0.33,0.26c0.12-0.09,0.23-0.18,0.34-0.27C445.6,200.82,445.59,200.82,445.59,200.83z M446.7,199.85c-0.01,0.01-0.01,0.01-0.02,0.02C446.69,199.86,446.69,199.86,446.7,199.85C446.7,199.85,446.7,199.85,446.7,199.85 z M448.06,198.32c-0.1,0.13-0.2,0.25-0.3,0.38c0.11-0.13,0.22-0.26,0.31-0.39C448.07,198.31,448.07,198.31,448.06,198.32z M448.93,196.98c-0.09,0.16-0.19,0.32-0.29,0.49c0.1-0.17,0.21-0.34,0.3-0.51C448.93,196.97,448.93,196.98,448.93,196.98z M449.51,195.69c-0.06,0.17-0.14,0.33-0.21,0.5c0.07-0.17,0.16-0.35,0.22-0.52C449.51,195.67,449.51,195.68,449.51,195.69z M449.86,194.39c-0.03,0.17-0.09,0.34-0.13,0.51c0.05-0.18,0.1-0.36,0.13-0.54C449.86,194.37,449.86,194.38,449.86,194.39z"/>
		<g>
			<path class="st1" d="M393.69,212.05c18.29,10.56,18.38,27.73,0.22,38.28l-115.29,67c-18.17,10.56-47.81,10.56-66.09,0 L13.6,202.48c-18.31-10.57-18.39-27.72-0.22-38.28l164.69-95.71c18.19-10.57,47.78-10.57,66.09,0L443.1,183.34 c9.17,5.29,9.2,13.85,0.11,19.14c-9.1,5.29-23.88,5.29-33.05,0L219.52,92.41c-4.58-2.65-12-2.63-16.53,0 c-4.52,2.63-4.52,6.92,0.06,9.57L393.69,212.05z M270.06,264.69c9.17,5.29,23.94,5.3,33.05,0c9.11-5.29,9.06-13.85-0.11-19.14 c-9.17-5.29-23.94-5.29-33.05,0C260.84,250.84,260.89,259.39,270.06,264.69"/>
		</g>
	</g>
</g>
</svg>
