<?xml version="1.0" encoding="UTF-8" standalone="no"?>
<svg
   width="60"
   height="60"
   viewBox="0 0 60 60"
   fill="none"
   version="1.1"
   id="svg272"
   sodipodi:docname="wallet.svg"
   inkscape:version="1.2.1 (9c6d41e4, 2022-07-14)"
   xmlns:inkscape="http://www.inkscape.org/namespaces/inkscape"
   xmlns:sodipodi="http://sodipodi.sourceforge.net/DTD/sodipodi-0.dtd"
   xmlns="http://www.w3.org/2000/svg"
   xmlns:svg="http://www.w3.org/2000/svg">
  <sodipodi:namedview
     id="namedview274"
     pagecolor="#ffffff"
     bordercolor="#000000"
     borderopacity="0.25"
     inkscape:showpageshadow="2"
     inkscape:pageopacity="0.0"
     inkscape:pagecheckerboard="0"
     inkscape:deskcolor="#d1d1d1"
     showgrid="false"
     inkscape:zoom="2.95"
     inkscape:cx="51.016949"
     inkscape:cy="41.355932"
     inkscape:window-width="1439"
     inkscape:window-height="646"
     inkscape:window-x="0"
     inkscape:window-y="25"
     inkscape:window-maximized="0"
     inkscape:current-layer="svg272" />
  <g
     filter="url(#filter0_d_696_4141)"
     id="g246"
     transform="translate(-20.746499,-12.618599)">
    <path
       fill-rule="evenodd"
       clip-rule="evenodd"
       d="m 31.709,22.8086 c -3.3138,0 -6,2.6863 -6,6 v 22.3847 c 0,3.3137 2.6863,6 6,6 h 38.082 c 3.3137,0 6,-2.6863 6,-6 V 34.8086 c 0,-3.3137 -2.6863,-6 -6,-6 h -19.0391 -8 c -1.6568,0 -3,-1.3432 -3,-3 0,-1.6569 -1.3431,-3 -3,-3 z m 30.8429,17.1953 c -0.4418,0 -0.8,0.3582 -0.8,0.8 v 4.4 c 0,0.4418 0.3582,0.8 0.8,0.8 h 8.4 c 0.4418,0 0.8,-0.3582 0.8,-0.8 v -4.4 c 0,-0.4418 -0.3582,-0.8 -0.8,-0.8 z"
       fill="#f2fe67"
       id="path244" />
  </g>
  <defs
     id="defs270">
    <filter
       id="filter0_d_696_4141"
       x="23.466499"
       y="22.808599"
       width="54.567101"
       height="39.617199"
       filterUnits="userSpaceOnUse"
       color-interpolation-filters="sRGB">
      <feFlood
         flood-opacity="0"
         result="BackgroundImageFix"
         id="feFlood248" />
      <feColorMatrix
         in="SourceAlpha"
         type="matrix"
         values="0 0 0 0 0 0 0 0 0 0 0 0 0 0 0 0 0 0 127 0"
         result="hardAlpha"
         id="feColorMatrix250" />
      <feOffset
         dy="2.98997"
         id="feOffset252" />
      <feGaussianBlur
         stdDeviation="1.12124"
         id="feGaussianBlur254" />
      <feComposite
         in2="hardAlpha"
         operator="out"
         id="feComposite256" />
      <feColorMatrix
         type="matrix"
         values="0 0 0 0 0 0 0 0 0 0 0 0 0 0 0 0 0 0 0.16 0"
         id="feColorMatrix258" />
      <feBlend
         mode="normal"
         in2="BackgroundImageFix"
         result="effect1_dropShadow_696_4141"
         id="feBlend260" />
      <feBlend
         mode="normal"
         in="SourceGraphic"
         in2="effect1_dropShadow_696_4141"
         result="shape"
         id="feBlend262" />
    </filter>
    <linearGradient
       id="paint0_linear_696_4141"
       x1="50.75"
       y1="0"
       x2="50.75"
       y2="80"
       gradientUnits="userSpaceOnUse">
      <stop
         stop-color="white"
         stop-opacity="0.25"
         id="stop265" />
      <stop
         offset="1"
         stop-color="white"
         stop-opacity="0.9"
         id="stop267" />
    </linearGradient>
  </defs>
</svg>
