<svg width="56" height="56" viewBox="0 0 56 56" fill="none" xmlns="http://www.w3.org/2000/svg">
<path d="M28 0C12.535 0 0 12.535 0 28C0 43.465 12.535 56 28 56C43.465 56 56 43.465 56 28C56 12.535 43.4607 0 28 0ZM28 52.4671C14.4841 52.4671 3.53291 41.5117 3.53291 28C3.53291 14.4883 14.4883 3.53291 28 3.53291C41.5117 3.53291 52.4671 14.4841 52.4671 28C52.4671 41.5159 41.5117 52.4671 28 52.4671Z" fill="black"/>
<path d="M27.851 47.6595C38.7909 47.6595 47.6595 38.7909 47.6595 27.851C47.6595 16.9111 38.7909 8.04248 27.851 8.04248C16.9111 8.04248 8.04248 16.9111 8.04248 27.851C8.04248 38.7909 16.9111 47.6595 27.851 47.6595Z" fill="black"/>
<path d="M17.9939 25.4021C18.322 25.4021 18.6238 25.4821 18.8991 25.642C19.1745 25.7965 19.3942 26.0089 19.5583 26.2791C19.7223 26.5439 19.8044 26.8446 19.8044 27.181C19.8044 27.512 19.7223 27.8154 19.5583 28.0912C19.3942 28.3615 19.1745 28.5766 18.8991 28.7366C18.6238 28.8966 18.322 28.9765 17.9939 28.9765H16.4384V31.194H15.4893V25.4021H17.9939ZM17.9764 28.116C18.1346 28.116 18.2781 28.0747 18.407 27.9919C18.5359 27.9037 18.6384 27.7906 18.7146 27.6527C18.7966 27.5092 18.8376 27.352 18.8376 27.181C18.8376 26.9218 18.7527 26.7039 18.5828 26.5274C18.4129 26.3509 18.2107 26.2626 17.9764 26.2626H16.4384V28.116H17.9764Z" fill="white"/>
<path d="M26.2092 28.2981C26.2092 28.7173 26.136 29.1089 25.9895 29.473C25.843 29.8316 25.6321 30.146 25.3568 30.4163C25.0872 30.6866 24.7679 30.8989 24.3988 31.0534C24.0356 31.2023 23.6342 31.2768 23.1948 31.2768C22.7554 31.2768 22.3511 31.2023 21.982 31.0534C21.6129 30.8989 21.2936 30.6866 21.0241 30.4163C20.7546 30.146 20.5466 29.8316 20.4001 29.473C20.2536 29.1089 20.1804 28.7173 20.1804 28.2981C20.1804 27.8788 20.2536 27.4899 20.4001 27.1314C20.5466 26.7673 20.7546 26.4501 21.0241 26.1799C21.2936 25.9096 21.6129 25.7 21.982 25.551C22.3511 25.3966 22.7554 25.3193 23.1948 25.3193C23.6342 25.3193 24.0356 25.3966 24.3988 25.551C24.7679 25.7 25.0872 25.9096 25.3568 26.1799C25.6321 26.4501 25.843 26.7673 25.9895 27.1314C26.136 27.4899 26.2092 27.8788 26.2092 28.2981ZM25.2425 28.2981C25.2425 27.8954 25.1546 27.5368 24.9789 27.2224C24.8031 26.9025 24.5599 26.6515 24.2494 26.4695C23.9448 26.2819 23.5932 26.1881 23.1948 26.1881C22.7905 26.1881 22.4332 26.2819 22.1226 26.4695C21.818 26.6515 21.5777 26.9025 21.402 27.2224C21.2321 27.5368 21.1471 27.8954 21.1471 28.2981C21.1471 28.7007 21.2321 29.062 21.402 29.382C21.5777 29.6964 21.818 29.9474 22.1226 30.1349C22.4332 30.317 22.7905 30.408 23.1948 30.408C23.5932 30.408 23.9448 30.317 24.2494 30.1349C24.5599 29.9474 24.8031 29.6936 24.9789 29.3737C25.1546 29.0538 25.2425 28.6952 25.2425 28.2981Z" fill="white"/>
<path d="M29.633 31.194H26.6977V30.3666H27.6908V26.2295H26.6977V25.4021H29.633V26.2295H28.6399V30.3666H29.633V31.194Z" fill="white"/>
<path d="M34.9811 25.4021H35.9302V31.194H35.0602L31.4833 26.7756C31.5184 27.1121 31.5507 27.4486 31.58 27.7851C31.6151 28.116 31.6327 28.4498 31.6327 28.7862V31.194H30.6835V25.4021H31.536L35.1129 29.9115C35.0602 29.5089 35.025 29.0758 35.0074 28.6125C34.9898 28.1436 34.9811 27.7078 34.9811 27.3052V25.4021Z" fill="white"/>
<path d="M38.3819 31.194V26.2626H36.6594V25.4021H41.1063V26.2626H39.331V31.194H38.3819Z" fill="white"/>
</svg>
