<svg xmlns="http://www.w3.org/2000/svg" viewBox="0 0 100 100"><path d="M15,41.4c-4.47-11.58-3.56-17.78-2.82-22.77a22,22,0,0,0,.12-8.41,3.93,3.93,0,0,1,.6-3.51A4.12,4.12,0,0,1,16.4,5.19c6.27,0,20.87,9.5,25.21,23l.63,2L16,44Z" style="fill:#3870c1"/><path d="M16.4,7.67c4.94,0,18.73,8.46,22.85,21.32L17.32,40.5c-6.8-17.61-.55-21.35-2.6-30.85-.35-1.35.34-2,1.68-2m0-5h0a6.63,6.63,0,0,0-5.46,2.48,6.42,6.42,0,0,0-1,5.59,19.52,19.52,0,0,1-.15,7.49C9,23.54,8,30.1,12.7,42.29l2,5.2,4.93-2.59L41.55,33.38l3.69-1.94-1.27-4A38.93,38.93,0,0,0,31.26,9.66C27.13,6.3,21.05,2.71,16.4,2.71Z"/><path d="M22.22,33.92a25.34,25.34,0,0,1-1.61-14.49s7.46,2.84,10.23,8.22Z" style="fill:#fff;opacity:0.4"/><path d="M57.76,30.21l.63-2c4.34-13.54,19-23,25.21-23a4.12,4.12,0,0,1,3.49,1.52,3.9,3.9,0,0,1,.6,3.51,22,22,0,0,0,.12,8.41c.74,5,1.65,11.19-2.82,22.77L84,44Z" style="fill:#3870c1"/><path d="M83.6,7.67c1.35,0,2,.63,1.68,2-2,9.5,4.2,13.24-2.6,30.85L60.75,29C64.87,16.13,78.66,7.67,83.6,7.67m0-5h0c-7.73,0-23,10.63-27.57,24.76l-1.27,4,3.69,1.94L80.37,44.9l4.93,2.59,2-5.2c4.71-12.19,3.74-18.75,3-24a19.52,19.52,0,0,1-.15-7.49,6.42,6.42,0,0,0-1-5.59A6.63,6.63,0,0,0,83.6,2.71Z"/><path d="M77.78,33.92A25.4,25.4,0,0,0,79.4,19.43s-7.47,2.84-10.24,8.22Z" style="fill:#fff;opacity:0.4"/><path d="M95.89,68.82c-9-19.53-12.82-47.9-45.89-47.9S13.08,49.29,4.12,68.82C2.23,72.94,25.39,92.33,50,92.33S97.78,72.94,95.89,68.82Z" style="fill:#3870c1;stroke:#000;stroke-miterlimit:10;stroke-width:4.960588560807305px"/><path d="M40.61,24.31a33.29,33.29,0,0,0-4.76,1.38l8.65,10Z" style="fill:#fff"/><path d="M53.56,23.52c-1.15-.08-2.34-.12-3.56-.12s-2.41,0-3.56.12L50,39.84Z" style="fill:#fff"/><path d="M64.22,25.71a35.18,35.18,0,0,0-4.74-1.38L55.59,35.72Z" style="fill:#fff"/><circle cx="33.66" cy="55.91" r="11.95" style="fill:#fff"/><circle cx="33.66" cy="55.91" r="10.94" style="fill:#f48c06"/><circle cx="33.66" cy="55.91" r="9.03"/><circle cx="30.14" cy="49.8" r="1.2" style="fill:#fff"/><circle cx="33.66" cy="55.91" r="3.51" style="fill:#fff"/><circle cx="29.35" cy="51.97" r="0.44" style="fill:#fff"/><circle cx="66.35" cy="55.91" r="11.95" style="fill:#fff"/><circle cx="66.35" cy="55.91" r="10.94" style="fill:#f48c06"/><circle cx="66.35" cy="55.91" r="9.03"/><circle cx="62.83" cy="49.8" r="1.2" style="fill:#fff"/><circle cx="66.35" cy="55.91" r="3.51" style="fill:#fff"/><circle cx="62.04" cy="51.97" r="0.44" style="fill:#fff"/><path d="M52.25,72.67l1.45-2.5a2.61,2.61,0,0,0-2.26-3.91H48.56a2.61,2.61,0,0,0-2.26,3.91l1.45,2.5A2.6,2.6,0,0,0,52.25,72.67Z"/><path d="M50,72c0,3.28-1.22,8.92-6.27,8.92-3.28,0-6.94-2.33-6.94-5.61" style="fill:none;stroke:#000;stroke-linecap:round;stroke-miterlimit:10;stroke-width:2.3149413283767424px"/><path d="M50,72c0,3.28,1.22,8.92,6.27,8.92,3.28,0,6.94-2.33,6.94-5.61" style="fill:none;stroke:#000;stroke-linecap:round;stroke-miterlimit:10;stroke-width:2.3149413283767424px"/><path d="M57.41,80.89A7.25,7.25,0,0,1,50,88.2a7.44,7.44,0,0,1-7.64-7.31S50,81.75,50,75C50,81.75,57.41,80.89,57.41,80.89Z" style="fill:#ef1621;stroke:#000;stroke-linecap:round;stroke-miterlimit:10;stroke-width:2.3149413283767424px"/><path d="M43.62,84s5-2.89,6.56.35c0,0,.47-2.8,6.43-.54l.8-3s-6.57-.68-7.09-3.68c0,0-5.25,4.21-7.33,4.21S43.62,84,43.62,84Z"/></svg>