<svg width="11" height="16" viewBox="0 0 11 16" fill="none" xmlns="http://www.w3.org/2000/svg">
<path d="M5.0996 12.198L0.65918 10.03L5.09557 16L5.76207 15.103V11.8735L5.0996 12.198Z" fill="#708299"/>
<path d="M5.09545 0L0 9.14292H10.191L5.09545 0Z" fill="#708299"/>
<path d="M10.191 9.15647L5.09546 0V9.15647H10.191Z" fill="#68788E"/>
<path d="M3.55396 5.07812H4.55395V6.07812H3.55396V5.07812Z" fill="white"/>
<path d="M5.09545 6.66016L5.07543 6.65063L0.000488281 9.15063H0.00500486L5.07994 11.6506L5.09996 11.6411L5.76195 11.3171V6.98657L5.09545 6.66016Z" fill="#3C3C47"/>
<path d="M3.55396 3.18652H4.55395V4.18652H3.55396V3.18652Z" fill="white"/>
<path d="M5.09949 12.1981L5.09546 16.0001L9.53502 10.0261L5.09949 12.1981Z" fill="#68788E"/>
<path d="M10.1815 9.15063L5.09546 6.66016L5.07544 6.65063L5.07996 11.6506L5.09998 11.6411L10.186 9.15063H10.1815Z" fill="#31313B"/>
</svg>
