<svg width="26" height="26" viewBox="0 0 26 26" fill="none" xmlns="http://www.w3.org/2000/svg">
<path d="M19.5337 18.0017L24.1736 22.6405L22.6407 24.1735L18.0018 19.5335C16.2758 20.9172 14.1289 21.6698 11.9167 21.6666C6.53475 21.6666 2.16675 17.2986 2.16675 11.9166C2.16675 6.53463 6.53475 2.16663 11.9167 2.16663C17.2987 2.16663 21.6667 6.53463 21.6667 11.9166C21.6699 14.1288 20.9173 16.2757 19.5337 18.0017ZM17.3605 17.1979C18.7354 15.784 19.5032 13.8888 19.5001 11.9166C19.5001 7.72629 16.106 4.33329 11.9167 4.33329C7.72641 4.33329 4.33341 7.72629 4.33341 11.9166C4.33341 16.1059 7.72641 19.5 11.9167 19.5C13.8889 19.5031 15.7841 18.7352 17.198 17.3604L17.3605 17.1979Z" fill="white"/>
</svg>
