
<svg xmlns="http://www.w3.org/2000/svg" viewBox="0 0 382.53 412.55">
  <path d="M85.46,133.88c-13.52-35-10.75-53.77-8.52-68.83,1.27-8.59,2.36-16,.35-25.44C76,34.45,77.55,31,79.1,29s4.75-4.59,10.58-4.59c18.93,0,63.09,28.73,76.21,69.68l1.92,6L88.49,141.74Z" class="main-fill"/>
  <path d="M89.68,31.89c14.91,0,56.61,25.59,69.06,64.46L92.46,131.18C71.88,77.91,90.79,66.61,84.6,37.89c-1.08-4.08,1-6,5.08-6m0-15h0c-9.33,0-14.35,4.71-16.51,7.51S67.92,32.88,70,41.29c1.7,8.05.79,14.19-.46,22.66-2.36,15.94-5.29,35.77,8.94,72.64l6.07,15.7,14.9-7.83,66.29-34.83,11.15-5.86-3.84-12c-6.32-19.73-20-38.86-38.43-53.87-12.5-10.16-30.86-21-44.92-21Z" class="main-dark-fill"/>
  <path d="M107.27,111.26a76.75,76.75,0,0,1-4.89-43.81S125,76,133.33,92.31Z" class="secondary-fill"/>
  <path d="M214.72,100.06l1.92-6c13.12-40.95,57.28-69.68,76.21-69.68,5.83,0,9,2.49,10.58,4.59s3.11,5.47,1.81,10.63c-2,9.43-.92,16.85.35,25.44,2.23,15.06,5,33.82-8.52,68.83l-3,7.86Z" class="main-fill"/>
  <path d="M292.85,31.89c4.08,0,6.16,1.92,5.08,6-6.19,28.72,12.72,40-7.86,93.29L223.79,96.35c12.44-38.87,54.15-64.46,69.06-64.46m0-15h0c-14.06,0-32.42,10.86-44.92,21-18.46,15-32.11,34.14-38.43,53.87l-3.84,12,11.15,5.86,66.29,34.83,14.9,7.83,6.07-15.7C318.3,99.72,315.37,79.89,313,64c-1.25-8.47-2.16-14.61-.46-22.66,2.06-8.42-1.09-14.18-3.18-16.89s-7.18-7.51-16.51-7.51Z" class="main-dark-fill"/>
  <path d="M275.26,111.26a76.75,76.75,0,0,0,4.89-43.81S257.58,76,249.2,92.31Z" class="secondary-fill"/>
  <path d="M255.34,372.93A20.51,20.51,0,0,1,253,332a53.57,53.57,0,0,0,4.66-7.39c6.82-12.06,18.24-32.23,49.16-33.14.83,0,1.65,0,2.46,0,16.39,0,29.34,5.08,38.49,15.09a43.15,43.15,0,0,1,7.35,11.09c.17.37.33.74.49,1.12l.07.18a18.91,18.91,0,0,1-2,17.75,20.52,20.52,0,0,1-16.7,8.81h0A19.51,19.51,0,0,1,323.49,340l-5.87-5.58-.14-.15c-.61-.65-3.05-1.74-8.35-1.74H308c-7.23.23-8.84,2.07-14.63,12.32-5.48,9.69-14.64,25.89-36,28a17.91,17.91,0,0,1-2,.1Z"  class="main-fill main-stroke"/>
  <path d="M309.29,299c14.22,0,25.29,4.26,33,12.66a35.58,35.58,0,0,1,6.1,9.23c.12.25.23.52.34.79C352.08,330.42,344.82,338,337,338a12,12,0,0,1-8.36-3.45l-5.73-5.46c-3.14-3.32-9-4.09-13.81-4.09-.45,0-.89,0-1.32,0-11.49.35-14.93,5.46-20.95,16.12-5.37,9.5-12.73,22.5-30.19,24.22q-.62.06-1.23.06h-.07a13,13,0,0,1-1.26-26c3.34-.33,5-2.2,10.09-11.13,6.43-11.38,16.16-28.55,42.86-29.33.75,0,1.49,0,2.23,0m0-15h0c-.88,0-1.79,0-2.69,0-15.21.45-28.17,5.32-38.51,14.46-8.46,7.48-13.36,16.15-16.95,22.48-1.12,2-1.93,3.35-2.51,4.28a28,28,0,0,0,6.72,55.2h.09c.91,0,1.83-.05,2.74-.14,25.19-2.5,35.95-21.53,41.73-31.75,1.44-2.55,3.85-6.8,5.23-8a7.7,7.7,0,0,1,3.13-.52h.86a17.16,17.16,0,0,1,3.88.35l5.32,5.07A27,27,0,0,0,337,353a28.09,28.09,0,0,0,22.88-12.07,26.28,26.28,0,0,0,2.77-24.7l-.06-.15-.06-.15c-.14-.34-.35-.87-.65-1.48a50.74,50.74,0,0,0-8.58-12.95C342.83,290,327.61,284,309.29,284Z" class="main-dark-fill"/>
  <path d="M267.52,337.13c0,42.1-34.13,53.89-76.22,53.89s-76.23-11.79-76.23-53.89a76.23,76.23,0,0,1,152.45,0Z" class="main-fill main-stroke" style="stroke-miterlimit:10;stroke-width:16.7513197660446px"/>
  <path d="M229.78,377.57a49.73,49.73,0,0,0,2.28-14.89c0-25-18.25-54.05-40.76-54.05s-40.76,29-40.76,54.05a49.11,49.11,0,0,0,2.28,14.89c9.5,3.17,22,5.07,38.48,5.07S220.27,380.74,229.78,377.57Z" class="secondary-fill"/>
  <path d="M330,216.8C302.94,157.74,291.25,72,191.27,72S79.62,157.74,52.53,216.8c-5.71,12.46,64.32,71.09,138.74,71.09S335.75,229.26,330,216.8Z"  class="main-fill main-stroke" style="stroke-miterlimit:10;stroke-width:15px"/>
</svg>