<svg xmlns="http://www.w3.org/2000/svg" viewBox="0 0 382.53 412.55"><circle cx="136.45" cy="176" r="52.68" style="fill:#fff;opacity:0.5"/><path d="M246.83,228.67A52.68,52.68,0,1,1,299.51,176,52.73,52.73,0,0,1,246.83,228.67Z" style="fill:#fff;opacity:0.5"/><path d="M246.83,118.1a58,58,0,0,0-55.19,40.4,57.9,57.9,0,1,0,0,35,57.9,57.9,0,1,0,55.19-75.4ZM136.45,223.45A47.45,47.45,0,1,1,183.9,176,47.44,47.44,0,0,1,136.45,223.45Zm110.38,0A47.45,47.45,0,1,1,294.28,176,47.44,47.44,0,0,1,246.83,223.45Z"/></svg>