<svg xmlns="http://www.w3.org/2000/svg" viewBox="0 0 382.53 412.55"><path d="M344.74,211.18a26.18,26.18,0,0,0-50.2-10.42,25.7,25.7,0,0,0-34.84,15.53,35.37,35.37,0,0,0-25.42,18.88A25.64,25.64,0,0,0,217.7,244a38,38,0,0,0-57.2-1.3,27.42,27.42,0,0,0-21.48-13,40.17,40.17,0,0,0-50-27.11,26.19,26.19,0,1,0-39.75,32.53,26.57,26.57,0,0,0,11.26,40.54,33.78,33.78,0,0,0,14.71,41.42,31.44,31.44,0,0,0,39.16,38c-.07.75-.11,1.51-.11,2.28a22.88,22.88,0,0,0,36.64,18.28,25.69,25.69,0,0,0,40,4.35A28.33,28.33,0,0,0,233,376.34a32.57,32.57,0,0,0,40.24-17.7,19.77,19.77,0,0,0,3.63.35,19.95,19.95,0,0,0,17.25-30,37.83,37.83,0,0,0,18.51-46.15,25.89,25.89,0,0,0,12.89-46.39A26.18,26.18,0,0,0,344.74,211.18Z" style="fill:#eaeaea;stroke:#cecece;stroke-linecap:round;stroke-linejoin:round;stroke-width:4px"/><path d="M86.14,271.21a28.72,28.72,0,0,1-15-37.75" style="fill:#eaeaea;stroke:#cecece;stroke-linecap:round;stroke-linejoin:round;stroke-width:4px"/><path d="M164.06,320.45a28.7,28.7,0,0,1-38.08,14" style="fill:#eaeaea;stroke:#cecece;stroke-linecap:round;stroke-linejoin:round;stroke-width:4px"/><path d="M221.56,360.41a28.69,28.69,0,0,1-39.43-9.57" style="fill:#eaeaea;stroke:#cecece;stroke-linecap:round;stroke-linejoin:round;stroke-width:4px"/><path d="M283.89,286.53A18.31,18.31,0,0,1,265,304.18" style="fill:#eaeaea;stroke:#cecece;stroke-linecap:round;stroke-linejoin:round;stroke-width:4px"/><path d="M309.27,236.5a18.29,18.29,0,0,1-24.49,8.34" style="fill:#eaeaea;stroke:#cecece;stroke-linecap:round;stroke-linejoin:round;stroke-width:4px"/><path d="M164.88,298.92a28.7,28.7,0,0,1-28.69-28.7" style="fill:#eaeaea;stroke:#cecece;stroke-linecap:round;stroke-linejoin:round;stroke-width:4px"/><path d="M251.1,270.38a28.69,28.69,0,0,1-38.08,14" style="fill:#eaeaea;stroke:#cecece;stroke-linecap:round;stroke-linejoin:round;stroke-width:4px"/></svg>