<svg xmlns="http://www.w3.org/2000/svg" viewBox="0 0 382.53 412.55"><rect x="184.81" y="289.97" width="12.83" height="12.83" style="fill:#d81a3a;stroke:#8e0a26;stroke-miterlimit:10;stroke-width:4px"/><path d="M217.5,319.15l-14.86-6.3a9.68,9.68,0,0,1-5.8-10.32h0c.13-.91.24-1.82.31-2.74a41.92,41.92,0,0,0-.31-9.56h0a9.68,9.68,0,0,1,5.8-10.32l14.86-6.3A6.9,6.9,0,0,1,227,281l-1.45,10a37.65,37.65,0,0,0,0,10.81l1.45,10A6.9,6.9,0,0,1,217.5,319.15Z" style="fill:#d81a3a;stroke:#8e0a26;stroke-miterlimit:10;stroke-width:4px"/><path d="M196.37,292l18.33-.46a.28.28,0,0,1,.08.55L197.06,297Z" style="fill:#8e0a26"/><path d="M214.76,300.57,195.9,300l.94-5.43L215,299.6A.5.5,0,0,1,214.76,300.57Z" style="fill:#8e0a26"/><path d="M166,319.15l14.86-6.3a9.68,9.68,0,0,0,5.8-10.32h0c-.14-.91-.24-1.82-.31-2.74a41.92,41.92,0,0,1,.31-9.56h0a9.68,9.68,0,0,0-5.8-10.32L166,273.61a6.9,6.9,0,0,0-9.52,7.35L158,291a37.65,37.65,0,0,1,0,10.81l-1.45,10A6.9,6.9,0,0,0,166,319.15Z" style="fill:#d81a3a;stroke:#8e0a26;stroke-miterlimit:10;stroke-width:4px"/><path d="M187.16,292l-18.33-.46a.28.28,0,0,0-.08.55L186.47,297Z" style="fill:#8e0a26"/><path d="M168.77,300.57l18.86-.61-.94-5.43-18.12,5.07A.5.5,0,0,0,168.77,300.57Z" style="fill:#8e0a26"/></svg>