<svg xmlns="http://www.w3.org/2000/svg" viewBox="0 0 382.53 412.55"><path d="M206.51,222.49c-6.87,0-12.46-4.48-12.46-10V197.7h-5.5v14.81c0,5.5-5.59,10-12.46,10H99.7c-6.88,0-12.47-4.48-12.47-10V187.63c0-5.5,5.59-10,12.47-10h76.39c6.87,0,12.46,4.47,12.46,10v1.1h5.5v-1.1c0-5.5,5.59-10,12.46-10h76.4c6.87,0,12.46,4.47,12.46,10v24.88c0,5.5-5.59,10-12.46,10Z" style="fill:#0a0a0a"/><path d="M282.91,179.16c6,0,11,3.81,11,8.47v24.88c0,4.66-4.94,8.48-11,8.48H206.52c-6,0-11-3.82-11-8.48V196.2h-8.5v16.31c0,4.66-4.94,8.48-11,8.48H99.7c-6,0-11-3.82-11-8.48V187.63c0-4.66,4.94-8.47,11-8.47h76.39c6,0,11,3.81,11,8.47v2.6h8.5v-2.6c0-4.66,4.94-8.47,11-8.47h76.39m0-3H206.52c-7.54,0-13.69,4.93-14,11.07H190c-.26-6.14-6.42-11.07-13.95-11.07H99.7c-7.7,0-14,5.15-14,11.47v24.88c0,6.33,6.27,11.48,14,11.48h76.39c7.69,0,14-5.15,14-11.48V199.2h2.5v13.31c0,6.33,6.27,11.48,14,11.48h76.39c7.69,0,14-5.15,14-11.48V187.63c0-6.32-6.27-11.47-14-11.47Z"/><path d="M129.87,179.16,91.19,217.84A12.41,12.41,0,0,0,99.7,221H108l41.83-41.83Z" style="fill:#262626"/><path d="M187.05,190.23v-2.6c0-4.66-4.94-8.47-11-8.47h-13L121.26,221h35l30.76-30.76Z" style="fill:#262626"/><polygon points="273.48 220.99 279.52 220.99 293.87 206.64 293.87 200.6 273.48 220.99" style="fill:#262626"/><path d="M282.91,179.16h-22L219.12,221h33.22l38.86-38.87A12.43,12.43,0,0,0,282.91,179.16Z" style="fill:#262626"/></svg>