
<svg xmlns="http://www.w3.org/2000/svg" viewBox="0 0 382.53 412.55">
<path d="M141.84,213.91A36.15,36.15,0,0,0,178,177.76H105.7A36.15,36.15,0,0,0,141.84,213.91Z" style="fill:#fff"/>
<path d="M141.84,203.76a26,26,0,0,0,26-26h-52A26,26,0,0,0,141.84,203.76Z" class="eye-fill"/>
<path d="M141.84,198.74c4,0,7.28-9.39,7.28-21H134.56C134.56,189.35,137.82,198.74,141.84,198.74Z"/>
<path d="M240.69,213.91a36.15,36.15,0,0,0,36.14-36.15H204.55A36.15,36.15,0,0,0,240.69,213.91Z" style="fill:#fff"/>
<path d="M240.69,203.76a26,26,0,0,0,26-26h-52A26,26,0,0,0,240.69,203.76Z" class="eye-fill"/>
<path d="M240.69,198.74c4,0,7.28-9.39,7.28-21H233.41C233.41,189.35,236.67,198.74,240.69,198.74Z"/>
<line x1="105.7" y1="177.76" x2="177.98" y2="177.76" style="fill:none;stroke:#000;stroke-linecap:round;stroke-miterlimit:10;stroke-width:7px"/>
<line x1="204.55" y1="177.76" x2="276.83" y2="177.76" style="fill:none;stroke:#000;stroke-linecap:round;stroke-miterlimit:10;stroke-width:7px"/>
<line x1="140.67" y1="150.82" x2="247.38" y2="150.82" style="fill:none;stroke:#000;stroke-linecap:round;stroke-miterlimit:10;stroke-width:7px"/>
<line x1="160.67" y1="130.82" x2="227.38" y2="130.82" style="fill:none;stroke:#000;stroke-linecap:round;stroke-miterlimit:10;stroke-width:7px"/>
</svg>