
<svg xmlns="http://www.w3.org/2000/svg" viewBox="0 0 382.53 412.55">
<circle cx="143.2" cy="177.76" r="36.14" style="fill:#fff"/>
<circle cx="143.2" cy="177.76" r="26" class="eye-fill"/>
<circle cx="143.2" cy="177.76" r="11.03"/>
<circle cx="149.84" cy="162.92" r="3.64" style="fill:#fff"/>
<path d="M109.52,152c-8.34,1.13-14-3.33-8-12.76-3.67,9.33,5.31,6.44,19.31,3.58-2.19-2.24,3.53-6,3.53-6-1.8,3.32-.13,4.54,2.52,4.82,5.1-.88,10.65-3.56,16.36-3.59,13.42-.06,36.89,10.32,36.15,35.06,0,0-11.67-25-40.15-25.72-14-.33-19.24,8.15-29.48,11.36s-15.66-8.21-15.66-8.21S101.16,159.44,109.52,152Z"/>
<circle cx="239.33" cy="177.76" r="36.14" style="fill:#fff"/>
<circle cx="239.33" cy="177.76" r="26" class="eye-fill"/>
<circle cx="239.33" cy="177.76" r="11.03"/>
<circle cx="232.69" cy="162.92" r="3.64" style="fill:#fff"/>
<path d="M273,152c8.34,1.13,14.05-3.33,8-12.76,3.67,9.33-5.31,6.44-19.31,3.58,2.19-2.24-3.53-6-3.53-6,1.8,3.32.13,4.54-2.52,4.82-5.1-.88-10.65-3.56-16.36-3.59-13.42-.06-36.89,10.32-36.15,35.06,0,0,11.67-25,40.15-25.72,14-.33,19.24,8.15,29.48,11.36s15.66-8.21,15.66-8.21S281.37,159.44,273,152Z"/>
</svg>