<svg xmlns="http://www.w3.org/2000/svg" viewBox="0 0 382.53 412.55">
<path d="M180.78,197.86s-30.71,15.29-54.24,5.91c-35.26-14.05-23.68-53.89-23.68-53.89s27.07-12.13,50.24-1.92S180.78,197.86,180.78,197.86Z" style="fill:#fff"/>
<circle cx="140.96" cy="177.76" r="26" class="eye-fill"/>
<ellipse cx="140.96" cy="177.76" rx="7.28" ry="20.98"/>
<circle cx="134.32" cy="162.92" r="3.64" style="fill:#fff"/>
<path d="M201.75,197.86s30.71,15.29,54.24,5.91c35.26-14.05,23.68-53.89,23.68-53.89S252.6,137.75,229.43,148,201.75,197.86,201.75,197.86Z" style="fill:#fff"/>
<circle cx="241.57" cy="177.76" r="26" class="eye-fill"/>
<ellipse cx="241.57" cy="177.76" rx="7.28" ry="20.98"/>
<circle cx="248.21" cy="162.92" r="3.64" style="fill:#fff"/>
</svg>
