
<svg xmlns="http://www.w3.org/2000/svg" viewBox="0 0 382.53 412.55">
<path d="M178,187.76c0,20-16.18,6.15-36.14,6.15s-36.14,13.81-36.14-6.15a36.14,36.14,0,0,1,72.28,0Z" style="fill:#fff"/>
<path d="M160.71,196.9a21,21,0,1,0-37.74,0c5.5-1.34,12-3,18.87-3S155.21,195.56,160.71,196.9Z" class="eye-fill"/>
<path d="M147.27,194.22a46.63,46.63,0,0,0,.44-6.46c0-9.35-2.63-16.93-5.87-16.93S136,178.41,136,187.76a46.63,46.63,0,0,0,.44,6.46,47.71,47.71,0,0,1,10.86,0Z"/>
<circle cx="136.48" cy="175.78" r="2.93" style="fill:#fff"/>
<path d="M276.83,187.76c0,20-16.18,6.15-36.14,6.15s-36.14,13.81-36.14-6.15a36.14,36.14,0,0,1,72.28,0Z" style="fill:#fff"/>
<path d="M259.56,196.9a21,21,0,1,0-37.74,0c5.5-1.34,12-3,18.87-3S254.06,195.56,259.56,196.9Z" class="eye-fill"/>
<path d="M246.12,194.22a46.63,46.63,0,0,0,.44-6.46c0-9.35-2.63-16.93-5.87-16.93s-5.87,7.58-5.87,16.93a46.63,46.63,0,0,0,.44,6.46,47.71,47.71,0,0,1,10.86,0Z"/>
<circle cx="235.33" cy="175.78" r="2.93" style="fill:#fff"/>
</svg>