<svg xmlns="http://www.w3.org/2000/svg" style="height: 1em; color: inherit; fill: currentColor;" viewBox="0 0 400 100"><path d="M72.83,72.54c0-2.44.14-5,.3-7.67A103.68,103.68,0,0,0,73.39,54c6.06-6,7.26-10.21,8.23-13.59a13,13,0,0,1,2-4.58,4.24,4.24,0,0,0,.89-3.67,4.38,4.38,0,0,0-2.62-3h0C79,27.89,74.37,28.4,71,29.3a28.33,28.33,0,0,0-8,3.47,35.21,35.21,0,0,0-12-5.44A28.22,28.22,0,0,0,48.27,19c-1.59-3.17-4.28-7-7.09-8.28h0a4.38,4.38,0,0,0-4,0A4.23,4.23,0,0,0,35,13.86a13,13,0,0,1-2.15,4.49c-1.9,3-4.26,6.63-4.78,15.16a105,105,0,0,0-8,7.37c-1.92,1.89-3.73,3.68-5.57,5.29-.79.68-1.07,1.81-.85,3.36.48,3.26,3.1,8.38,6.68,13,3.19,4.15,8.53,9.8,15.9,13.14S51.43,79.33,56.65,79c5.87-.39,11.45-1.8,14.22-3.6A3.56,3.56,0,0,0,72.83,72.54Z" /><path d="M116.83,41.51a7.88,7.88,0,0,0-6.29,2.5c-1.46,1.67-2.19,4-2.19,7.09s.81,5.48,2.43,7.15a8.65,8.65,0,0,0,6.53,2.5,10.3,10.3,0,0,0,3.7-.58,24.16,24.16,0,0,0,2.91-1.34,5.22,5.22,0,0,1,1.92,4.22,4.37,4.37,0,0,1-2.43,3.7Q121,68.27,116,68.27a22,22,0,0,1-6.72-1,15.05,15.05,0,0,1-5.49-3.12,14.73,14.73,0,0,1-3.7-5.33,19.72,19.72,0,0,1-1.36-7.71,19.18,19.18,0,0,1,1.3-7.33,15.5,15.5,0,0,1,3.57-5.35,15,15,0,0,1,5.31-3.31,18.54,18.54,0,0,1,6.5-1.12,15,15,0,0,1,7.6,1.6,4.72,4.72,0,0,1,2.69,4.1,4.14,4.14,0,0,1-.69,2.4,5.66,5.66,0,0,1-1.6,1.6,17.3,17.3,0,0,0-3-1.54A9.59,9.59,0,0,0,116.83,41.51Z"/><path d="M135.72,60v7.16a10.57,10.57,0,0,1-1.29.23,14.65,14.65,0,0,1-1.74.11,8.41,8.41,0,0,1-1.51-.13,2.54,2.54,0,0,1-1.08-.47,2,2,0,0,1-.65-.93,4.53,4.53,0,0,1-.23-1.57V46.82a1.67,1.67,0,0,1,.43-1.21,3,3,0,0,1,1.18-.69,13.44,13.44,0,0,1,2.95-.65,28.86,28.86,0,0,1,3.58-.21q5.14,0,7.76,2.17a7.2,7.2,0,0,1,2.61,5.86A6.49,6.49,0,0,1,146.54,56a8.55,8.55,0,0,1-2.84,2.54q1.35,1.83,2.65,3.43a22.62,22.62,0,0,1,2.06,2.91,3.54,3.54,0,0,1-1.37,2,3.79,3.79,0,0,1-2.22.69,4.54,4.54,0,0,1-1.41-.19,3.23,3.23,0,0,1-1-.52,4.24,4.24,0,0,1-.82-.82,9.17,9.17,0,0,1-.71-1l-3.13-5Zm2.35-5a3.29,3.29,0,0,0,2.24-.72,2.75,2.75,0,0,0,.82-2.15,2.59,2.59,0,0,0-.92-2.15,4.67,4.67,0,0,0-2.89-.72c-.37,0-.67,0-.89,0l-.75.12V55Z"/><path d="M162.48,67.16a10.46,10.46,0,0,1-1.27.23,14.06,14.06,0,0,1-1.68.11,4.6,4.6,0,0,1-2.58-.58,2.8,2.8,0,0,1-.86-2.44v-5q-.93-1.38-2-3.06c-.72-1.12-1.43-2.27-2.13-3.44s-1.34-2.32-1.94-3.45a30.54,30.54,0,0,1-1.45-3.11,5.1,5.1,0,0,1,1.32-1.24,3.68,3.68,0,0,1,2.07-.56,4.25,4.25,0,0,1,2.37.6,5.69,5.69,0,0,1,1.74,2.24l3.09,6.23h.23c.35-.77.65-1.47.91-2.11s.52-1.27.77-1.9l.78-2c.27-.68.59-1.47.93-2.37a7.15,7.15,0,0,1,1.5-.52,7.29,7.29,0,0,1,1.56-.19,3.58,3.58,0,0,1,2.22.69,2.45,2.45,0,0,1,.92,2.08,3.84,3.84,0,0,1-.19,1.08,11.74,11.74,0,0,1-.86,1.92c-.44.86-1.1,2-2,3.49s-2,3.38-3.48,5.75Z"/><path d="M178.19,67.16a10.57,10.57,0,0,1-1.29.23,14.65,14.65,0,0,1-1.74.11,8.41,8.41,0,0,1-1.51-.13,2.68,2.68,0,0,1-1.1-.47,2,2,0,0,1-.67-.93,4.55,4.55,0,0,1-.22-1.57V46.82a1.66,1.66,0,0,1,.42-1.21,3,3,0,0,1,1.18-.69,13.53,13.53,0,0,1,2.89-.65,25.41,25.41,0,0,1,3.27-.21c3.43,0,6.06.74,7.87,2.2a7.27,7.27,0,0,1,2.73,6,9.16,9.16,0,0,1-.58,3.31,6.94,6.94,0,0,1-1.72,2.54,8,8,0,0,1-2.87,1.64,12.88,12.88,0,0,1-4,.58h-2.65Zm1.94-12a3.53,3.53,0,0,0,2.4-.73,3.26,3.26,0,0,0,0-4.4,3.8,3.8,0,0,0-2.56-.76c-.4,0-.73,0-1,0a5.6,5.6,0,0,0-.8.09v5.78Z"/><path d="M192.07,49.92a4.6,4.6,0,0,1-.49-1.12,4.89,4.89,0,0,1-.22-1.49,2.84,2.84,0,0,1,.65-2.09,2.36,2.36,0,0,1,1.7-.64H210a4.78,4.78,0,0,1,.49,1.12,5,5,0,0,1,.22,1.5,2.86,2.86,0,0,1-.65,2.09,2.35,2.35,0,0,1-1.7.63H204.2V67.16a10.57,10.57,0,0,1-1.29.23,14.65,14.65,0,0,1-1.74.11,8.41,8.41,0,0,1-1.51-.13,2.68,2.68,0,0,1-1.1-.47,2,2,0,0,1-.67-.93,4.55,4.55,0,0,1-.22-1.57V49.92Z"/><path d="M211.4,56a13.52,13.52,0,0,1,.91-5.15,10.39,10.39,0,0,1,6.24-6,14.22,14.22,0,0,1,9.29,0,10.76,10.76,0,0,1,3.75,2.3,10.42,10.42,0,0,1,2.52,3.75A13.52,13.52,0,0,1,235,56a14.11,14.11,0,0,1-.89,5.17,10.3,10.3,0,0,1-6.24,6.06,13.75,13.75,0,0,1-4.7.78,13.52,13.52,0,0,1-4.7-.8,10.39,10.39,0,0,1-3.73-2.33,10.79,10.79,0,0,1-2.47-3.77A13.82,13.82,0,0,1,211.4,56Zm6.72,0A7.87,7.87,0,0,0,219.5,61a4.94,4.94,0,0,0,7.42,0A7.86,7.86,0,0,0,228.31,56a7.87,7.87,0,0,0-1.37-5,4.52,4.52,0,0,0-3.71-1.68,4.6,4.6,0,0,0-3.71,1.66A7.68,7.68,0,0,0,218.12,56Z"/><path d="M258.93,55.32V67.1a16.87,16.87,0,0,1-1.86.32,21.7,21.7,0,0,1-2.51.16,10.64,10.64,0,0,1-2.16-.19,3.8,3.8,0,0,1-1.57-.67,2.77,2.77,0,0,1-1-1.33,6.57,6.57,0,0,1-.32-2.24V35l1.87-.29a17.63,17.63,0,0,1,2.45-.19,11.41,11.41,0,0,1,2.16.19,3.93,3.93,0,0,1,1.57.67,2.82,2.82,0,0,1,1,1.33,6.61,6.61,0,0,1,.32,2.24v8.48L270,34.68c2.42,0,4.15.46,5.2,1.36a4.18,4.18,0,0,1,1.57,3.23,5.25,5.25,0,0,1-.69,2.61,13.84,13.84,0,0,1-2.24,2.77l-6.67,6.67c.89,1,1.82,2,2.8,3.09l2.88,3.12,2.72,2.9c.87.93,1.63,1.73,2.27,2.4a4.89,4.89,0,0,1-.43,2.08,4.83,4.83,0,0,1-1.15,1.55,5.11,5.11,0,0,1-1.62,1,5.86,5.86,0,0,1-1.92.32,5.57,5.57,0,0,1-3.57-1.1,18.43,18.43,0,0,1-2.67-2.58Z"/><path d="M287.29,67.16a10,10,0,0,1-1.28.23,14.78,14.78,0,0,1-1.74.11,8.41,8.41,0,0,1-1.51-.13,2.62,2.62,0,0,1-1.1-.47A2,2,0,0,1,281,66a4.53,4.53,0,0,1-.23-1.57V44.7l1.31-.21a11.54,11.54,0,0,1,1.72-.13,7.59,7.59,0,0,1,1.51.13,2.68,2.68,0,0,1,1.1.47,2,2,0,0,1,.67.93,4.55,4.55,0,0,1,.22,1.57Z"/><path d="M290.73,49.92a4.6,4.6,0,0,1-.49-1.12,4.89,4.89,0,0,1-.22-1.49,2.84,2.84,0,0,1,.65-2.09,2.36,2.36,0,0,1,1.7-.64h16.27a5.15,5.15,0,0,1,.71,2.62,2.86,2.86,0,0,1-.65,2.09,2.37,2.37,0,0,1-1.7.63h-4.14V67.16a10.57,10.57,0,0,1-1.29.23,14.78,14.78,0,0,1-1.74.11,8.41,8.41,0,0,1-1.51-.13,2.68,2.68,0,0,1-1.1-.47,2,2,0,0,1-.67-.93,4.55,4.55,0,0,1-.22-1.57V49.92Z"/><path d="M311.48,49.92A4.6,4.6,0,0,1,311,48.8a4.89,4.89,0,0,1-.22-1.49,2.84,2.84,0,0,1,.65-2.09,2.36,2.36,0,0,1,1.7-.64h16.27a4.78,4.78,0,0,1,.49,1.12,5,5,0,0,1,.22,1.5,2.86,2.86,0,0,1-.65,2.09,2.35,2.35,0,0,1-1.7.63h-4.14V67.16a10.57,10.57,0,0,1-1.29.23,14.65,14.65,0,0,1-1.74.11,8.41,8.41,0,0,1-1.51-.13,2.68,2.68,0,0,1-1.1-.47,2,2,0,0,1-.67-.93,4.55,4.55,0,0,1-.22-1.57V49.92Z"/><path d="M339.43,67.16a9.87,9.87,0,0,1-1.29.23,14.48,14.48,0,0,1-1.73.11,8.25,8.25,0,0,1-1.51-.13,2.57,2.57,0,0,1-1.1-.47,2,2,0,0,1-.68-.93,4.55,4.55,0,0,1-.22-1.57V44.7l1.31-.21a11.32,11.32,0,0,1,1.71-.13,7.52,7.52,0,0,1,1.51.13,2.57,2.57,0,0,1,1.1.47,2,2,0,0,1,.68.93,4.55,4.55,0,0,1,.22,1.57Z"/><path d="M343.91,48.17a3.21,3.21,0,0,1,3.47-3.47h12.31a4.24,4.24,0,0,1,.47,1.08,4.74,4.74,0,0,1,.21,1.42,2.73,2.73,0,0,1-.62,2,2.22,2.22,0,0,1-1.62.6h-7.88v3.47h8.4a4.84,4.84,0,0,1,.47,1.06,4.93,4.93,0,0,1,.2,1.4,2.79,2.79,0,0,1-.6,2,2.15,2.15,0,0,1-1.6.59h-6.87v3.92h9.59a4.5,4.5,0,0,1,.47,1.09,4.67,4.67,0,0,1,.21,1.41,2.81,2.81,0,0,1-.62,2,2.19,2.19,0,0,1-1.62.61h-10.9A3.21,3.21,0,0,1,343.91,64Z"/><path d="M370.59,58.32c-1.1-.38-2.09-.76-3-1.14a9.23,9.23,0,0,1-2.32-1.4,5.77,5.77,0,0,1-1.51-2,6.47,6.47,0,0,1-.54-2.78A6.12,6.12,0,0,1,365.68,46a11,11,0,0,1,6.85-1.9,18.62,18.62,0,0,1,3,.23,8.29,8.29,0,0,1,2.37.69,4.19,4.19,0,0,1,1.55,1.19,2.73,2.73,0,0,1,.55,1.7,3,3,0,0,1-.44,1.66,4.51,4.51,0,0,1-1.09,1.17,8.57,8.57,0,0,0-2.2-.91,11.09,11.09,0,0,0-3-.39,5,5,0,0,0-2.46.46A1.37,1.37,0,0,0,370,51a1.06,1.06,0,0,0,.49.91,5,5,0,0,0,1.45.66l2,.63a14.25,14.25,0,0,1,5.39,2.86,6.08,6.08,0,0,1,1.89,4.72,6.24,6.24,0,0,1-2.5,5.13q-2.51,2-7.35,2a17.62,17.62,0,0,1-3.19-.28,10.16,10.16,0,0,1-2.58-.82,4.75,4.75,0,0,1-1.72-1.35,2.93,2.93,0,0,1-.61-1.84,2.8,2.8,0,0,1,.63-1.85,5.17,5.17,0,0,1,1.38-1.18A10.17,10.17,0,0,0,367.81,62a8.88,8.88,0,0,0,3.3.6,4.48,4.48,0,0,0,2.58-.56,1.62,1.62,0,0,0,.74-1.31,1.31,1.31,0,0,0-.59-1.14,8,8,0,0,0-1.68-.76Z"/></svg>