<svg xmlns="http://www.w3.org/2000/svg" viewBox="0 0 382.53 412.55"><path d="M198.08,228.43l4.36-7.56a7.87,7.87,0,0,0-6.81-11.8H186.9a7.87,7.87,0,0,0-6.81,11.8l4.36,7.56A7.87,7.87,0,0,0,198.08,228.43Z"/><path d="M191.23,226.26c0,9.92-3.69,27-19,27-9.92,0-21-7-21-17" style="fill:none;stroke:#000;stroke-linecap:round;stroke-miterlimit:10;stroke-width:7px"/><path d="M191.3,226.26c0,9.92,3.69,27,19,27,9.93,0,21-7,21-17" style="fill:none;stroke:#000;stroke-linecap:round;stroke-miterlimit:10;stroke-width:7px"/><path d="M213.67,253.3c0,12.57-9.87,22.09-22.44,22.09s-23.1-9.52-23.1-22.09c0,0,23.17,2.61,23.1-17.86C191.3,255.91,213.67,253.3,213.67,253.3Z" style="fill:#ef1621;stroke:#000;stroke-linecap:round;stroke-miterlimit:10;stroke-width:7px"/><path d="M172,262.84s15-8.75,19.82,1c0,0,1.44-8.47,19.46-1.64l2.41-8.94s-19.86-2.07-21.42-11.12c0,0-15.9,12.72-22.19,12.72S172,262.84,172,262.84Z"/></svg>