<svg xmlns="http://www.w3.org/2000/svg" viewBox="0 0 382.53 412.55"><polygon points="190.23 265.17 175.26 264.17 177.26 258.46 188.23 238.46 190.23 265.17" style="fill:#f7f7f7;stroke:#e2e2e2;stroke-linecap:round;stroke-miterlimit:10;stroke-width:3px"/><polygon points="206.15 259.41 195.03 260.41 196.03 242.04 202.15 250.04 206.15 259.41" style="fill:#f7f7f7;stroke:#e2e2e2;stroke-linecap:round;stroke-miterlimit:10;stroke-width:3px"/><path d="M198.08,228.43l4.36-7.56a7.87,7.87,0,0,0-6.81-11.8H186.9a7.87,7.87,0,0,0-6.81,11.8l4.36,7.56A7.87,7.87,0,0,0,198.08,228.43Z"/><path d="M191.23,226.26c0,9.92-10.69,32-26,32" style="fill:none;stroke:#000;stroke-linecap:round;stroke-miterlimit:10;stroke-width:7px"/><path d="M218.26,259.23c-15.27,0-27-23.05-27-33" style="fill:none;stroke:#000;stroke-linecap:round;stroke-miterlimit:10;stroke-width:7px"/></svg>