<svg xmlns="http://www.w3.org/2000/svg" viewBox="0 0 382.53 412.55"><polygon points="164.67 265.25 175.69 243.68 160.03 241.48 164.67 265.25" style="fill:#fff"/><polygon points="217.86 265.25 222.5 241.48 206.84 243.68 217.86 265.25" style="fill:#fff"/><path d="M198.08,229.43l4.36-7.56a7.87,7.87,0,0,0-6.81-11.8H186.9a7.87,7.87,0,0,0-6.81,11.8l4.36,7.56A7.87,7.87,0,0,0,198.08,229.43Z"/><path d="M191.23,227.26c.07,31.65-33.69,9-49,9" style="fill:none;stroke:#000;stroke-linecap:round;stroke-miterlimit:10;stroke-width:7px"/><path d="M191.3,227.26c-.07,31.65,33.69,9,49,9" style="fill:none;stroke:#000;stroke-linecap:round;stroke-miterlimit:10;stroke-width:7px"/></svg>