
<svg xmlns="http://www.w3.org/2000/svg" viewBox="0 0 382.53 412.55">
<path d="M245.72,116.17a55.09,55.09,0,1,0,54.3,46,252.67,252.67,0,0,0-13.46-27.89A54.88,54.88,0,0,0,245.72,116.17Z" class="pattern-fill"/>
<path d="M107.21,187.66a83.7,83.7,0,0,0-38.27,9.22c-2.94,7.56-5.88,14.86-9.08,21.93,1.68,4.55,14.38,19.27,40.54,34.61,17.12,10,51.58,26.85,90.46,27a85,85,0,0,0,.44-8.63A84.09,84.09,0,0,0,107.21,187.66Z" class="pattern-fill"/>
<path d="M162.26,119.14a47.17,47.17,0,0,0,46.41-38.71,149,149,0,0,0-17.4-1c-27.66,0-49.36,6.59-67,20.52A47.11,47.11,0,0,0,162.26,119.14Z" class="pattern-fill"/>
<path d="M102.38,67.45a80.22,80.22,0,0,1,13.82,7.29,44,44,0,0,0,3.24-29.54c-11.91-8.54-23.33-13.31-29.76-13.31-4.08,0-6.16,1.92-5.08,6,4.68,21.73-5,33.49-1.08,61a43.58,43.58,0,0,0,18.32-7.39A74.82,74.82,0,0,1,102.38,67.45Z" class="pattern-fill"/>
<path d="M237.69,343.24a47.58,47.58,0,0,0,7.81,26.17c11.57-9.21,13.64-21.69,13.64-32.28a67.46,67.46,0,0,0-6.39-28.7A47.63,47.63,0,0,0,237.69,343.24Z" class="pattern-fill"/>
<path d="M342.14,311.51c-8.07-8.75-19.86-13-35.08-12.5a53.89,53.89,0,0,0-10.45,1.29,23.4,23.4,0,0,0,9.58,24.82c.53,0,1.05-.08,1.62-.09,4.93-.14,11.5.43,15,3.92A23.47,23.47,0,0,0,342.14,311.51Z" class="pattern-fill"/>
<path d="M123.54,333.77a25.54,25.54,0,0,0,16.89-41.46A67.52,67.52,0,0,0,123.54,333.77Z" class="pattern-fill"/>
</svg>