<svg xmlns="http://www.w3.org/2000/svg" viewBox="0 0 382.53 412.55">
<path d="M162.86,82.22a102,102,0,0,0-14.38,4.15l26.16,30.34Z" class="pattern-fill"/>
<path d="M202,79.82c-3.49-.24-7.07-.36-10.76-.36s-7.28.12-10.77.36l10.76,49.34Z" class="pattern-fill"/>
<path d="M234.25,86.45a99.91,99.91,0,0,0-14.32-4.17l-11.76,34.43Z" class="pattern-fill"/>
<path d="M135.8,298.18a66.55,66.55,0,0,0-4.56,7.45L159.7,312Z" class="pattern-fill"/>
<path d="M125.55,320.35a70.07,70.07,0,0,0-1.39,7l23.82-.89Z" class="pattern-fill"/>
<path d="M123.79,343.93a46.72,46.72,0,0,0,.71,4.63l14.79-4.3Z" class="pattern-fill"/>
<path d="M251.38,305.67a67.08,67.08,0,0,0-4.52-7.4L223.1,312Z" class="pattern-fill"/>
<path d="M258.43,327.35a67.25,67.25,0,0,0-1.38-7l-22.23,6.07Z" class="pattern-fill"/>
<path d="M243.51,344.26l14.6,4.24c.31-1.53.54-3.05.7-4.56Z" class="pattern-fill"/>
<polygon points="314.38 378.92 315.61 379.03 314.74 377.51 314.38 378.92" class="pattern-fill"/>
<path d="M290.35,335.27l-8.94-15.48,5,22.22.49-.86C288.1,339,289.23,337,290.35,335.27Z" class="pattern-fill"/>
<path d="M309.54,299c-.82,0-1.64,0-2.48,0-.65,0-1.27.05-1.9.09l3.21,14.21Z" class="pattern-fill"/>
<path d="M333.19,304.48l-7,27.71,2.48,2.37a11.92,11.92,0,0,0,9.57,3.39l-1.77-31.4A35.57,35.57,0,0,0,333.19,304.48Z" class="pattern-fill"/>
</svg>