
<svg xmlns="http://www.w3.org/2000/svg" viewBox="0 0 382.53 412.55">
<path d="M185,79.58c-31.86,1.21-55.49,11.85-74,33.2-17.6,20.3-28,47.54-38.11,73.88C69.24,196.18,65.74,205.25,62,214A91.54,91.54,0,0,0,185,79.58Z" class="pattern-fill"/>
<path d="M297.93,37.89c1.08-4.08-1-6-5.08-6-5.57,0-14.89,3.58-25,10.09-.14,1.53-.22,3.07-.22,4.63a48.62,48.62,0,0,0,6.18,23.78c3.76-1.94,6.37-2.94,6.37-2.94a72.85,72.85,0,0,1,1.26,13.19A48.94,48.94,0,0,0,299.7,92.53C301.46,69.42,293.62,57.87,297.93,37.89Z" class="pattern-fill"/>
<path d="M300.9,312.93a35.47,35.47,0,0,0,26-11.26A55.32,55.32,0,0,0,307.06,299c-11.25.33-19.48,3.57-25.72,8.06A35.41,35.41,0,0,0,300.9,312.93Z" class="pattern-fill"/>
</svg>