<svg width="60" height="60" fill="none" version="1.1" id="svg315" xmlns="http://www.w3.org/2000/svg"><g filter="url('#filter0_d_696_4161')" id="g289" transform="translate(-20.756 -12.619)"><path fill-rule="evenodd" clip-rule="evenodd" d="M30.194 22.809a4.485 4.485 0 0 0-4.485 4.485v25.414a4.485 4.485 0 0 0 4.485 4.485h41.112a4.485 4.485 0 0 0 4.485-4.485V27.294a4.485 4.485 0 0 0-4.485-4.485zm23.015 7.195a1.5 1.5 0 0 0-3 0v22a1.5 1.5 0 1 0 3 0z" fill="#ff8a83" id="path287"/></g><defs id="defs313"><linearGradient id="paint0_linear_696_4161" x1="50.75" y1="0" x2="50.75" y2="80" gradientUnits="userSpaceOnUse"><stop stop-color="#fff" stop-opacity=".25" id="stop308"/><stop offset="1" stop-color="#fff" stop-opacity=".9" id="stop310"/></linearGradient><filter id="filter0_d_696_4161" x="23.466" y="22.809" width="54.567" height="39.617" filterUnits="userSpaceOnUse" color-interpolation-filters="sRGB"><feFlood flood-opacity="0" result="BackgroundImageFix" id="feFlood291"/><feColorMatrix in="SourceAlpha" type="matrix" values="0 0 0 0 0 0 0 0 0 0 0 0 0 0 0 0 0 0 127 0" result="hardAlpha" id="feColorMatrix293"/><feOffset dy="2.99" id="feOffset295"/><feGaussianBlur stdDeviation="1.121" id="feGaussianBlur297"/><feComposite in2="hardAlpha" operator="out" id="feComposite299"/><feColorMatrix type="matrix" values="0 0 0 0 0 0 0 0 0 0 0 0 0 0 0 0 0 0 0.16 0" id="feColorMatrix301"/><feBlend mode="normal" in2="BackgroundImageFix" result="effect1_dropShadow_696_4161" id="feBlend303"/><feBlend mode="normal" in="SourceGraphic" in2="effect1_dropShadow_696_4161" result="shape" id="feBlend305"/></filter></defs></svg>