<svg width="60" height="60" fill="none" version="1.1" id="svg264" xmlns="http://www.w3.org/2000/svg"><g filter="url('#filter0_d_696_4155')" id="g238" transform="translate(-20.756 -12.619)"><path fill-rule="evenodd" clip-rule="evenodd" d="M30.194 22.809a4.485 4.485 0 0 0-4.485 4.485v25.414a4.485 4.485 0 0 0 4.485 4.485h41.112a4.485 4.485 0 0 0 4.485-4.485V27.294a4.485 4.485 0 0 0-4.485-4.485zm3.788 7.279a1.869 1.869 0 1 0-1.589 3.383l17.002 7.98a4.859 4.859 0 0 0 4.238-.052l15.896-7.948a1.869 1.869 0 0 0-1.671-3.343L51.96 38.056a1.122 1.122 0 0 1-.977.012z" fill="#62c5ff" id="path236"/></g><defs id="defs262"><linearGradient id="paint0_linear_696_4155" x1="50.75" y1="0" x2="50.75" y2="80" gradientUnits="userSpaceOnUse"><stop stop-color="#fff" stop-opacity=".25" id="stop257"/><stop offset="1" stop-color="#fff" stop-opacity=".9" id="stop259"/></linearGradient><filter id="filter0_d_696_4155" x="23.466" y="22.809" width="54.567" height="39.617" filterUnits="userSpaceOnUse" color-interpolation-filters="sRGB"><feFlood flood-opacity="0" result="BackgroundImageFix" id="feFlood240"/><feColorMatrix in="SourceAlpha" type="matrix" values="0 0 0 0 0 0 0 0 0 0 0 0 0 0 0 0 0 0 127 0" result="hardAlpha" id="feColorMatrix242"/><feOffset dy="2.99" id="feOffset244"/><feGaussianBlur stdDeviation="1.121" id="feGaussianBlur246"/><feComposite in2="hardAlpha" operator="out" id="feComposite248"/><feColorMatrix type="matrix" values="0 0 0 0 0 0 0 0 0 0 0 0 0 0 0 0 0 0 0.16 0" id="feColorMatrix250"/><feBlend mode="normal" in2="BackgroundImageFix" result="effect1_dropShadow_696_4155" id="feBlend252"/><feBlend mode="normal" in="SourceGraphic" in2="effect1_dropShadow_696_4155" result="shape" id="feBlend254"/></filter></defs></svg>