<svg width="120" height="120" fill="none" version="1.1" id="svg6" xmlns="http://www.w3.org/2000/svg"><path fill-rule="evenodd" clip-rule="evenodd" d="M102.938 59.672c0 23.484-19.031 42.469-42.469 42.469-23.437 0-42.422-19.032-42.468-42.47 0-23.483 18.984-42.468 42.468-42.468 23.485 0 42.469 19.031 42.469 42.469Zm-64.219-5.344a3.8 3.8 0 0 0-1.922-.516h-5.343v12.422h2.015V61.5h3.328c.704 0 1.313-.188 1.922-.516a5.022 5.022 0 0 0 1.407-1.406 4.11 4.11 0 0 0 .515-1.969c0-.703-.14-1.359-.515-1.922a3.57 3.57 0 0 0-1.407-1.359Zm-1.031 5.016c-.281.187-.61.281-.938.281v-.047h-3.28v-3.984h3.28c.516 0 .938.187 1.313.562.375.375.563.844.563 1.407 0 .374-.094.703-.282 1.03-.14.329-.375.563-.656.75Zm18.797.703c0 .89-.14 1.734-.469 2.531-.328.75-.75 1.453-1.36 2.016a6.324 6.324 0 0 1-2.062 1.36c-.797.327-1.64.468-2.578.468-.937 0-1.828-.14-2.578-.469-.797-.328-1.453-.797-2.063-1.36a6.643 6.643 0 0 1-1.359-2.015c-.328-.797-.469-1.64-.469-2.531 0-.89.141-1.734.47-2.484.327-.797.75-1.454 1.358-2.016a6.322 6.322 0 0 1 2.063-1.36 6.66 6.66 0 0 1 2.578-.515c.938 0 1.781.187 2.578.516.797.328 1.453.75 2.063 1.359.61.562 1.031 1.266 1.36 2.016.28.75.468 1.546.468 2.484Zm-2.11 0c0-.844-.187-1.64-.562-2.297a3.9 3.9 0 0 0-1.547-1.594c-.656-.422-1.406-.61-2.25-.61-.844 0-1.64.188-2.297.61-.656.375-1.172.938-1.547 1.594-.375.656-.562 1.453-.562 2.297 0 .844.187 1.64.562 2.344.375.656.891 1.218 1.547 1.593.657.375 1.453.563 2.297.563.844 0 1.594-.188 2.25-.563.656-.422 1.172-.937 1.547-1.64a4.761 4.761 0 0 0 .563-2.297Zm28.689-4.36v10.547h2.063V55.688h3.796v-1.829h-9.562v1.828h3.703Zm-21.235-1.874h-2.063v12.421h2.063V53.812Zm12.609 4.078v-4.032h2.063v12.422h-1.876l-7.359-9.094v9.047H65.25V53.813h1.829l7.406 9.328v-3.235c-.047-.703-.047-1.359-.047-2.015Z" fill="#fff" id="path2"/><path d="M60 0C26.86 0 0 26.86 0 60s26.86 60 60 60 60-26.86 60-60S93.14 0 60 0Zm0 112.406C31.031 112.406 7.594 88.922 7.594 60 7.594 31.078 31.03 7.594 60 7.594c28.969 0 52.453 23.437 52.453 52.406 0 28.969-23.484 52.406-52.453 52.406Z" fill="#fff" id="path4"/><path d="M59.746 0c-33.14 0-60 26.86-60 60s26.86 60 60 60 60-26.86 60-60-26.86-60-60-60zm0 112.406C30.777 112.406 7.34 88.922 7.34 60c0-28.922 23.437-52.406 52.406-52.406 28.968 0 52.453 23.437 52.453 52.406 0 28.969-23.485 52.406-52.453 52.406z" fill="#fff" id="path116"/></svg>