<svg width="60" height="60" fill="none" version="1.1" id="svg272" xmlns="http://www.w3.org/2000/svg"><g filter="url('#filter0_d_696_4141')" id="g246" transform="translate(-20.746 -12.619)"><path fill-rule="evenodd" clip-rule="evenodd" d="M31.709 22.809a6 6 0 0 0-6 6v22.384a6 6 0 0 0 6 6h38.082a6 6 0 0 0 6-6V34.81a6 6 0 0 0-6-6h-27.04a3 3 0 0 1-3-3 3 3 0 0 0-3-3zm30.843 17.195a.8.8 0 0 0-.8.8v4.4a.8.8 0 0 0 .8.8h8.4a.8.8 0 0 0 .8-.8v-4.4a.8.8 0 0 0-.8-.8z" fill="#f2fe67" id="path244"/></g><defs id="defs270"><linearGradient id="paint0_linear_696_4141" x1="50.75" y1="0" x2="50.75" y2="80" gradientUnits="userSpaceOnUse"><stop stop-color="#fff" stop-opacity=".25" id="stop265"/><stop offset="1" stop-color="#fff" stop-opacity=".9" id="stop267"/></linearGradient><filter id="filter0_d_696_4141" x="23.466" y="22.809" width="54.567" height="39.617" filterUnits="userSpaceOnUse" color-interpolation-filters="sRGB"><feFlood flood-opacity="0" result="BackgroundImageFix" id="feFlood248"/><feColorMatrix in="SourceAlpha" type="matrix" values="0 0 0 0 0 0 0 0 0 0 0 0 0 0 0 0 0 0 127 0" result="hardAlpha" id="feColorMatrix250"/><feOffset dy="2.99" id="feOffset252"/><feGaussianBlur stdDeviation="1.121" id="feGaussianBlur254"/><feComposite in2="hardAlpha" operator="out" id="feComposite256"/><feColorMatrix type="matrix" values="0 0 0 0 0 0 0 0 0 0 0 0 0 0 0 0 0 0 0.16 0" id="feColorMatrix258"/><feBlend mode="normal" in2="BackgroundImageFix" result="effect1_dropShadow_696_4141" id="feBlend260"/><feBlend mode="normal" in="SourceGraphic" in2="effect1_dropShadow_696_4141" result="shape" id="feBlend262"/></filter></defs></svg>